<?xml version="1.0" standalone="no"?>
<!DOCTYPE svg PUBLIC "-//W3C//DTD SVG 1.1//EN" "http://www.w3.org/Graphics/SVG/1.1/DTD/svg11.dtd" >
<svg xmlns="http://www.w3.org/2000/svg">
<metadata>
Created by FontPrep 20130207 at Wed Dec 31 20:07:33 2014
 By Nikita Bayev
2005 Albert-Jan Pool published by FSI FontShop International GmbH
</metadata>
<defs>
<font id="62f75ccd04c776030ca293d074e92944" horiz-adv-x='1024' >
  <font-face 
    font-family="DINPro-Light"
    font-weight="350"
    font-stretch="normal"
    units-per-em="2048"
    panose-1="2 11 5 4 2 1 1 1 1 2"
    ascent="1565"
    descent="-483"
    x-height="987"
    cap-height="1458"
    bbox="-348 -483 2404 2318"
    underline-thickness="77"
    underline-position="-211"
    unicode-range="U+000D-FEFF"
  />
<missing-glyph horiz-adv-x="1144" 
d="M276 78h592v1302h-592v-1302zM199 0v1458h747v-1458h-747z" />
    <glyph glyph-name=".notdef" horiz-adv-x="1144" 
d="M276 78h592v1302h-592v-1302zM199 0v1458h747v-1458h-747z" />
    <glyph glyph-name=".null" horiz-adv-x="0" 
 />
    <glyph glyph-name=".null" horiz-adv-x="0" 
 />
    <glyph glyph-name="nonmarkingreturn" horiz-adv-x="682" 
 />
    <glyph glyph-name="CR" unicode="&#xd;" horiz-adv-x="522" 
 />
    <glyph glyph-name="space" unicode=" " horiz-adv-x="522" 
 />
    <glyph glyph-name="exclam" unicode="!" horiz-adv-x="622" 
d="M285 1458h112l-6 -1065h-100zM272 0v137h138v-137h-138z" />
    <glyph glyph-name="quotedbl" unicode="&#x22;" horiz-adv-x="835" 
d="M512 1139v319h129v-319h-129zM195 1139v319h129v-319h-129z" />
    <glyph glyph-name="numbersign" unicode="#" horiz-adv-x="1308" 
d="M485 582h359l51 313h-358zM172 492v90h211l51 313h-203v92h215l74 471h107l-76 -471h358l74 471h102l-73 -471h192v-92h-205l-51 -313h197v-90h-211l-78 -492h-104l79 492h-360l-76 -492h-104l78 492h-197z" />
    <glyph glyph-name="dollar" unicode="$" horiz-adv-x="1202" 
d="M971 389q0 168 -77.5 209.5t-95.5 46.5t-26 7.5t-30 6.5t-30.5 5.5t-37 5.5t-39.5 6v-588q157 11 246.5 88.5t89.5 212.5zM244 1076q0 -242 299 -281v579q-141 -10 -220 -90t-79 -208zM135 1074q0 170 109 276t299 118v183h92v-183q114 -6 199 -42.5t174 -112.5l-72 -72
q-67 60 -135.5 93t-165.5 40v-594q148 -24 211 -45.5t108 -60.5q127 -104 127 -282t-118.5 -285t-327.5 -117v-223h-92v221q-140 6 -242 51.5t-197 140.5l78 78q88 -88 169 -125t192 -45v604q-185 19 -297 115q-112 97 -111 267z" />
    <glyph glyph-name="percent" unicode="%" horiz-adv-x="1695" 
d="M1106 262q0 -199 179 -199t179 199v211q0 201 -179 201t-179 -201v-211zM1016 258v219q0 123 75 199t195 76t194 -76t74 -199v-219q0 -123 -74 -197.5t-194 -74.5t-195 75t-75 197zM463 0l680 1458h92l-680 -1458h-92zM231 983q-1 -199 179 -199t180 199v211
q0 201 -180 201t-179 -201v-211zM141 979v219q0 123 75.5 199t195.5 76t194 -76t74 -199v-219q0 -123 -74 -197.5t-194 -74.5t-195.5 75t-75.5 197z" />
    <glyph glyph-name="ampersand" unicode="&#x26;" horiz-adv-x="1527" 
d="M455 1196q0 -69 29.5 -125.5t113.5 -155.5q185 117 208 169.5t23 93.5q0 84 -54 139t-134 55t-133 -53.5t-53 -122.5zM283 410q0 -143 94 -233.5t246 -90.5q206 0 389 162l-443 534q-134 -88 -186 -141.5t-76 -108.5t-24 -122zM296 701q124 97 210 155
q-124 150 -143 214.5t-19 109.5q0 122 86 206t210 84t211 -84.5t87 -207.5q0 -84 -44.5 -146.5t-123.5 -116.5l-108 -73l417 -506q50 74 68 149.5t18 212.5h109q0 -285 -127 -444l209 -254h-142l-141 172q-184 -184 -448 -184q-201 0 -327 114.5t-126 308.5q0 193 124 290z
" />
    <glyph glyph-name="quotesingle" unicode="'" horiz-adv-x="518" 
d="M195 1139v319h129v-319h-129z" />
    <glyph glyph-name="parenleft" unicode="(" horiz-adv-x="581" 
d="M199 162v1134q1 116 31 174t56.5 89.5t86.5 91.5l76 -76l-47 -47q-46 -46 -69 -93q-24 -47 -24 -151v-1110q0 -151 55.5 -206.5l84.5 -84.5l-76 -76q-61 61 -87 92t-56 89q-30 59 -31 174z" />
    <glyph glyph-name="parenright" unicode=")" horiz-adv-x="581" 
d="M272 174v1110q0 152 -55 207l-84 84l76 76q60 -60 86.5 -91.5t56.5 -89.5t31 -174v-1134q-1 -115 -31 -173q-30 -59 -56 -90t-87 -92l-76 76l47 47q46 46 69 92t23 152z" />
    <glyph glyph-name="asterisk" unicode="*" horiz-adv-x="956" 
d="M147 975l252 139l-252 139l46 78l245 -149l-6 288h92l-6 -288l246 149l45 -78l-252 -139l252 -139l-45 -78l-246 150l6 -289h-92l6 289l-245 -150z" />
    <glyph glyph-name="plus" unicode="+" 
d="M109 492v96h370v368h96v-368h369v-96h-369v-371h-96v371h-370z" />
    <glyph glyph-name="comma" unicode="," horiz-adv-x="528" 
d="M195 139h139v-278l-139 -140v418z" />
    <glyph glyph-name="hyphen" unicode="-" horiz-adv-x="872" 
d="M168 492v96h537v-96h-537z" />
    <glyph glyph-name="period" unicode="." horiz-adv-x="540" 
d="M195 0v152h151v-152h-151z" />
    <glyph glyph-name="slash" unicode="/" horiz-adv-x="692" 
d="M0 -152l584 1762h108l-583 -1762h-109z" />
    <glyph glyph-name="zero" unicode="0" 
d="M248 387q0 -134 73 -220.5t205 -86.5t205.5 86.5t73.5 220.5v684q0 134 -73.5 220.5t-205.5 86.5t-205 -86.5t-73 -220.5v-684zM143 377v704q0 171 107.5 280t275.5 109t275.5 -109t107.5 -280v-704q0 -171 -107.5 -280t-275.5 -109t-275.5 109t-107.5 280z" />
    <glyph glyph-name="one" unicode="1" 
d="M641 1458v-1458h-104v1339l-265 -233v125l265 227h104z" />
    <glyph glyph-name="two" unicode="2" 
d="M147 0v92l586 768q82 106 82 233t-73.5 206t-201.5 79t-207 -72.5t-79 -218.5h-104q0 167 104.5 275t279.5 108t280.5 -105.5t105.5 -277.5q0 -82 -23 -145t-78 -135l-547 -715h648v-92h-773z" />
    <glyph glyph-name="three" unicode="3" 
d="M506 78q130 0 217.5 84t87.5 227q0 311 -317 311h-25v93h25q288 0 288 292q0 138 -79.5 216.5t-204.5 78.5t-200 -70.5t-89 -195.5h-105q17 169 125 264t276 95t275 -106t107 -282q0 -242 -207 -331q235 -79 235 -365q0 -190 -115.5 -296.5t-295.5 -106.5t-293 93
t-125 275h104q11 -140 98.5 -208t217.5 -68z" />
    <glyph glyph-name="four" unicode="4" 
d="M88 240v92l537 1126h110l-536 -1126h467v463h104v-463h195v-92h-195v-240h-104v240h-578z" />
    <glyph glyph-name="five" unicode="5" 
d="M819 481q0 385 -256 385q-232 0 -280 -153h-93v745h701v-92h-608v-516q95 108 265 108t248 -80q80 -80 104 -178t24 -226t-21.5 -221t-91.5 -163q-103 -104 -285 -104t-276 98q-86 86 -98 238h104q18 -121 83.5 -182.5t191.5 -61.5q179 0 229.5 102t54.5 172.5t4 128.5z
" />
    <glyph glyph-name="six" unicode="6" 
d="M250 403q0 -148 75.5 -235.5t204.5 -87.5t206 87.5t77 230.5t-74.5 236t-206.5 93t-207 -88t-75 -236zM145 397q0 134 82 305l375 756h105l-336 -674q75 35 170 35q174 0 275.5 -115.5t101.5 -291.5q0 -250 -133.5 -337t-252.5 -87q-181 0 -284 113t-103 296z" />
    <glyph glyph-name="seven" unicode="7" 
d="M176 1137v321h764v-92l-516 -1366h-107l517 1366h-553v-229h-105z" />
    <glyph glyph-name="eight" unicode="8" 
d="M246 1090q0 -128 78 -208.5t202 -80.5t202.5 80.5t78.5 208.5t-78.5 208t-202.5 80t-202 -80t-78 -208zM215 392q0 -134 89.5 -223t221.5 -89t222 89.5t90 223.5t-90 225t-222 91t-221.5 -91.5t-89.5 -225.5zM111 393q0 242 231 365q-201 110 -201 332q0 162 108.5 271
t276.5 109t276.5 -109t108.5 -271q0 -225 -198 -332q229 -122 229 -365q0 -174 -119 -289.5t-297 -115.5t-296.5 115.5t-118.5 289.5z" />
    <glyph glyph-name="nine" unicode="9" 
d="M240 1060q0 -143 73.5 -236t204.5 -93t208 88t77 236t-77 235.5t-206 87.5t-204.5 -87.5t-75.5 -230.5zM135 1048q0 116 44 211.5t133 153t208 57.5q181 0 284 -113t103 -296q0 -134 -82 -305l-374 -756h-105l336 674q-75 -35 -182 -35t-193 55t-129 146.5t-43 207.5z
" />
    <glyph glyph-name="colon" unicode=":" horiz-adv-x="598" 
d="M252 639v152h151v-152h-151zM252 0v152h151v-152h-151z" />
    <glyph glyph-name="semicolon" unicode=";" horiz-adv-x="598" 
d="M256 139h139v-278l-139 -140v418zM252 639v152h151v-152h-151z" />
    <glyph glyph-name="less" unicode="&#x3c;" 
d="M215 489v99l623 330v-113l-521 -266l521 -267v-112z" />
    <glyph glyph-name="equal" unicode="=" 
d="M109 647v96h835v-96h-835zM109 334v96h835v-96h-835z" />
    <glyph glyph-name="greater" unicode="&#x3e;" 
d="M215 160v112l520 267l-520 266v113l623 -330v-99z" />
    <glyph glyph-name="question" unicode="?" horiz-adv-x="999" 
d="M475 0v137h137v-137h-137zM164 1110q0 151 102.5 255.5t261.5 104.5t264 -103t105 -257q0 -67 -22 -122t-68 -122l-174 -256q-37 -53 -37 -123v-96h-104v92q0 100 59 185l172 254q45 69 57.5 109.5t12.5 78.5q0 115 -75 191.5t-190 76.5t-187.5 -78.5t-72.5 -189.5h-104z
" />
    <glyph glyph-name="at" unicode="@" horiz-adv-x="1427" 
d="M612 494q0 -69 9 -163t70.5 -173.5t190.5 -79.5t189.5 65.5t77 153.5t16.5 177t-5 141.5t-21.5 110.5t-45.5 95.5t-81 62.5t-123 25t-123 -25t-81 -62.5t-46 -95.5t-22 -110.5t-5 -121.5zM508 492q0 259 80 372q44 65 121 101t170 36q182 0 286 -139v182
q0 88 -18.5 142.5t-65.5 101.5q-86 86 -233 86h-270q-146 0 -232 -86q-47 -47 -65.5 -100t-18.5 -144v-722q0 -104 25 -156t102 -109l-72 -71q-94 66 -126.5 134.5t-32.5 201.5v716q0 196 110 308t291 112h307q180 0 292 -112t112 -308v-1038h-105v121q-100 -135 -283 -135
t-286 133q-47 65 -67.5 150.5t-20.5 222.5z" />
    <glyph glyph-name="A" unicode="A" horiz-adv-x="1232" 
d="M311 453h611l-306 858zM31 0l536 1458h99l536 -1458h-119l-127 354h-680l-126 -354h-119z" />
    <glyph glyph-name="B" unicode="B" horiz-adv-x="1374" 
d="M336 795h414q195 0 259 92.5t64 189.5q0 143 -90.5 213t-232.5 70h-414v-565zM336 98h430q151 0 240.5 79.5t89.5 219.5t-89.5 219.5t-240.5 79.5h-430v-598zM225 0v1458h537q186 0 304 -102.5t118 -278.5q0 -116 -61 -204t-167 -123q119 -41 184.5 -133.5t65.5 -219.5
q0 -191 -115.5 -294t-312.5 -103h-553z" />
    <glyph glyph-name="C" unicode="C" horiz-adv-x="1318" 
d="M658 1470q206 0 337 -114t168 -312h-112q-32 153 -134 240.5t-258 87.5t-268 -112q-74 -74 -93 -178t-19 -353t19 -352.5t93 -177.5q113 -113 269 -113t259.5 88t135.5 240h108q-37 -197 -170 -311.5t-337 -114.5t-343 139q-115 115 -130 254t-15 303t4.5 286.5
t35.5 204.5t105 156q139 139 345 139z" />
    <glyph glyph-name="D" unicode="D" horiz-adv-x="1388" 
d="M336 98h352q278 0 341.5 140t71 235t8.5 136.5t1 119.5t-2 171t-25 188.5t-82 158.5q-108 113 -313 113h-352v-1262zM225 0v1458h490q231 0 363 -132t137.5 -322.5t5.5 -274.5t-3 -190t-33.5 -218.5t-105.5 -187.5q-133 -133 -364 -133h-490z" />
    <glyph glyph-name="E" unicode="E" horiz-adv-x="1224" 
d="M225 0v1458h885v-98h-774v-576h659v-98h-659v-588h774v-98h-885z" />
    <glyph glyph-name="F" unicode="F" horiz-adv-x="1179" 
d="M225 0v1458h885v-98h-774v-600h659v-98h-659v-662h-111z" />
    <glyph glyph-name="G" unicode="G" horiz-adv-x="1333" 
d="M656 1470q204 0 340.5 -117t168.5 -309h-110q-32 152 -135.5 240t-259.5 88t-269 -112q-74 -74 -93 -178t-19 -353t19 -352.5t93 -177.5q113 -113 277 -113q87 0 166.5 36.5t131.5 100.5t72.5 131.5t20.5 161.5v131h-391v98h501v-237q0 -117 -26.5 -199t-94.5 -157
t-169 -119.5t-211 -44.5q-216 0 -355 139q-115 115 -130 254t-15 303t4.5 286.5t35.5 204.5t105 156q139 139 343 139z" />
    <glyph glyph-name="H" unicode="H" horiz-adv-x="1431" 
d="M225 0v1458h111v-674h760v674h110v-1458h-110v686h-760v-686h-111z" />
    <glyph glyph-name="I" unicode="I" horiz-adv-x="561" 
d="M225 0v1458h111v-1458h-111z" />
    <glyph glyph-name="J" unicode="J" horiz-adv-x="1019" 
d="M381 86q158 0 241 94.5t83 272.5v1005h110v-1028q0 -200 -118.5 -321t-314.5 -121t-321 125l76 75q50 -50 103 -76t141 -26z" />
    <glyph glyph-name="K" unicode="K" horiz-adv-x="1320" 
d="M225 0v1458h111v-911l739 911h133l-450 -557l526 -901h-131l-469 817l-348 -422v-395h-111z" />
    <glyph glyph-name="L" unicode="L" horiz-adv-x="1171" 
d="M225 0v1458h111v-1360h774v-98h-885z" />
    <glyph glyph-name="M" unicode="M" horiz-adv-x="1675" 
d="M225 0v1458h111l508 -1124l495 1124h111v-1458h-111v1202l-442 -997h-111l-450 997v-1202h-111z" />
    <glyph glyph-name="N" unicode="N" horiz-adv-x="1513" 
d="M225 0v1458h111l842 -1263v1263h110v-1458h-110l-842 1268v-1268h-111z" />
    <glyph glyph-name="O" unicode="O" horiz-adv-x="1335" 
d="M279 729q0 -249 19 -352.5t93 -177.5q113 -113 277 -113t276 113q74 74 93.5 178t19.5 352t-19.5 352.5t-93.5 178.5q-112 112 -276 112t-277 -112q-74 -74 -93 -178t-19 -353zM668 1470q216 0 354 -139q115 -115 134.5 -295.5t10.5 -425.5t-40 -327t-105 -156
q-138 -139 -354 -139t-355 139q-115 115 -130 254t-15 303t4.5 286.5t35.5 204.5t105 156q139 139 355 139z" />
    <glyph glyph-name="P" unicode="P" horiz-adv-x="1292" 
d="M336 717h412q158 0 250 81t92 240t-92 240.5t-250 81.5h-412v-643zM225 0v1458h535q194 0 317 -112.5t123 -307.5t-123 -307.5t-317 -112.5h-424v-618h-111z" />
    <glyph glyph-name="Q" unicode="Q" horiz-adv-x="1333" 
d="M279 729q0 -249 19 -352.5t93 -177.5q113 -113 266 -113t258 86l-204 205l73 74l201 -203q46 67 59 166.5t13 331.5t-19.5 336t-93.5 178q-112 112 -276 112t-277 -112q-74 -74 -93 -178t-19 -353zM668 1470q216 0 354 -139q115 -115 130 -254t15 -371t-18 -341t-86 -193
l172 -172l-74 -74l-172 170q-129 -108 -333 -108t-343 139q-115 115 -130 254t-15 303t4.5 286.5t35.5 204.5t105 156q139 139 355 139z" />
    <glyph glyph-name="R" unicode="R" horiz-adv-x="1345" 
d="M336 770h430q147 0 234 74t87 221t-87 221t-234 74h-430v-590zM225 0v1458h555q185 0 301.5 -103t116.5 -277t-90 -275.5t-246 -128.5l352 -674h-129l-348 672h-401v-672h-111z" />
    <glyph glyph-name="S" unicode="S" horiz-adv-x="1202" 
d="M616 86q154 0 254.5 79t100.5 219t-80 208q-38 33 -80 48.5t-131 29.5l-170 26q-167 24 -260 105q-115 95 -115 275t121.5 287t331.5 107q132 0 228 -36.5t192 -120.5l-72 -72q-71 67 -152 101t-221 34t-229.5 -80.5t-89.5 -215.5q0 -134 75 -198t207 -83l170 -27
q100 -15 154.5 -36t105.5 -64q125 -110 125 -288t-131.5 -287t-359.5 -109q-159 0 -272 45.5t-214 146.5l78 78q97 -97 188.5 -134.5t245.5 -37.5z" />
    <glyph glyph-name="T" unicode="T" horiz-adv-x="1103" 
d="M61 1360v98h981v-98h-436v-1360h-110v1360h-435z" />
    <glyph glyph-name="U" unicode="U" horiz-adv-x="1409" 
d="M205 473v985h110v-971q0 -182 106.5 -291.5t283.5 -109.5t283 109.5t106 291.5v971h110v-985q0 -214 -139.5 -349.5t-359.5 -135.5t-360 135.5t-140 349.5z" />
    <glyph glyph-name="V" unicode="V" horiz-adv-x="1093" 
d="M20 1458h117l410 -1263l409 1263h117l-479 -1458h-94z" />
    <glyph glyph-name="W" unicode="W" horiz-adv-x="1724" 
d="M41 1458h117l307 -1268l340 1268h115l340 -1268l307 1268h116l-364 -1458h-113l-344 1270l-344 -1270h-112z" />
    <glyph glyph-name="X" unicode="X" horiz-adv-x="1089" 
d="M37 0l446 748l-417 710h129l348 -612l350 612h127l-418 -710l451 -748h-129l-381 649l-381 -649h-125z" />
    <glyph glyph-name="Y" unicode="Y" horiz-adv-x="1011" 
d="M561 0h-110v604l-431 854h119l371 -737l362 737h119l-430 -854v-604z" />
    <glyph glyph-name="Z" unicode="Z" horiz-adv-x="1144" 
d="M129 0v117l768 1243h-737v98h856v-98l-774 -1262h774v-98h-887z" />
    <glyph glyph-name="bracketleft" unicode="[" horiz-adv-x="593" 
d="M199 -152v1762h303v-92h-199v-1577h199v-93h-303z" />
    <glyph glyph-name="backslash" unicode="\" horiz-adv-x="692" 
d="M0 1610h109l583 -1762h-108z" />
    <glyph glyph-name="bracketright" unicode="]" horiz-adv-x="600" 
d="M92 -66h205v1590h-205v86h309v-1762h-309v86z" />
    <glyph glyph-name="asciicircum" unicode="^" 
d="M156 864l323 606h94l324 -606h-104l-267 496l-266 -496h-104z" />
    <glyph glyph-name="underscore" unicode="_" 
d="M0 -250h1053v-78h-1053v78z" />
    <glyph glyph-name="grave" unicode="`" horiz-adv-x="1024" 
d="M272 1509h138l198 -301h-119z" />
    <glyph glyph-name="a" unicode="a" horiz-adv-x="1073" 
d="M219 272q-1 -192 231 -192q108 0 166 15t110 64t52 185v127h-307q-252 0 -252 -199zM778 666q0 241 -256 241q-126 0 -186.5 -28.5t-108.5 -96.5l-75 66q61 85 141.5 118t206.5 33q383 0 383 -323v-676h-105v98q-62 -62 -129 -86t-175 -24t-174.5 20.5t-113.5 69.5
q-71 71 -71 199t91 203t253 75h319v111z" />
    <glyph glyph-name="b" unicode="b" horiz-adv-x="1105" 
d="M303 494q0 -69 5.5 -123t23 -110.5t47.5 -94.5t81.5 -62t121.5 -24t121.5 24t81 61.5t47 95t23 111t5.5 122.5t-5.5 122.5t-23 110.5t-47 94.5t-81 61.5t-121.5 24t-121.5 -24t-81.5 -61.5t-47.5 -94.5t-23 -110.5t-5.5 -122.5zM199 0v1458h104v-598q62 81 130.5 110
t153.5 29q165 0 251 -86q127 -127 127 -419q0 -397 -146.5 -451.5t-231.5 -54.5t-153.5 29t-130.5 110v-127h-104z" />
    <glyph glyph-name="c" unicode="c" horiz-adv-x="1009" 
d="M141 494q0 235 116 370t318 135q104 0 177 -32.5t149 -118.5l-72 -66q-63 70 -119 97.5t-135 27.5q-174 0 -262 -131q-37 -54 -52 -118t-15 -206.5t67 -240.5q88 -131 262 -131q78 0 134.5 28t119.5 97l72 -66q-76 -86 -149 -118.5t-177 -32.5q-202 0 -318 135.5
t-116 370.5z" />
    <glyph glyph-name="d" unicode="d" horiz-adv-x="1105" 
d="M246 494q0 -69 5.5 -122.5t23 -111t47 -95t81 -61.5t121.5 -24t121.5 24t81.5 62t47.5 94.5t23 110.5t5.5 123t-5.5 122.5t-23 110.5t-47.5 94.5t-81.5 61.5t-121.5 24t-121.5 -24t-81 -61.5t-47 -94.5t-23 -110.5t-5.5 -122.5zM141 494q0 397 146.5 451t231.5 54
t153.5 -29t130.5 -110v598h104v-1458h-104v127q-62 -81 -130.5 -110t-153.5 -29t-231.5 54.5t-146.5 451.5z" />
    <glyph glyph-name="e" unicode="e" horiz-adv-x="1071" 
d="M538 907q-86 0 -153 -44.5t-95 -103.5t-33.5 -92t-10.5 -112h581q-9 129 -37 197q-29 67 -97.5 111t-154.5 44zM141 490q0 243 105 376t291 133t290.5 -127t104.5 -354v-47h-686q0 -190 81.5 -289.5t239.5 -99.5q86 0 147.5 27.5t125.5 91.5l78 -62q-79 -79 -159 -115
t-198 -36q-204 0 -312 129.5t-108 372.5z" />
    <glyph glyph-name="f" unicode="f" horiz-adv-x="622" 
d="M94 909v78h135v213q0 116 62 187t176 71h90v-92h-72q-151 0 -151 -164v-215h223v-78h-223v-909h-105v909h-135z" />
    <glyph glyph-name="g" unicode="g" horiz-adv-x="1105" 
d="M246 494q0 -69 5.5 -122.5t23 -111t47 -95t81 -61.5t121.5 -24t121.5 24t81.5 62t47.5 94.5t23 110.5t5.5 123t-5.5 122.5t-23 110.5t-47.5 94.5t-81.5 61.5t-121.5 24t-121.5 -24t-81 -61.5t-47 -94.5t-23 -110.5t-5.5 -122.5zM141 494q0 397 146.5 451t231.5 54
t153.5 -29t130.5 -110v127h104v-1042q0 -190 -107.5 -309t-295.5 -119q-106 0 -176 29.5t-150 101.5l70 69q65 -60 116.5 -84t139.5 -24q149 0 224 93.5t75 248.5v176q-62 -81 -130.5 -110t-153.5 -29t-231.5 54.5t-146.5 451.5z" />
    <glyph glyph-name="h" unicode="h" horiz-adv-x="1144" 
d="M199 0v1458h104v-588q111 129 286 129t272 -98t97 -270v-631h-104v612q0 143 -69 219t-203 76t-206.5 -76.5t-72.5 -218.5v-612h-104z" />
    <glyph glyph-name="i" unicode="i" horiz-adv-x="501" 
d="M199 0v987h104v-987h-104zM186 1329v129h129v-129h-129z" />
    <glyph glyph-name="j" unicode="j" horiz-adv-x="501" 
d="M186 1329v129h129v-129h-129zM-25 -379h72q85 0 118.5 39t33.5 127v1200h104v-1202q0 -121 -59.5 -188.5t-177.5 -67.5h-91v92z" />
    <glyph glyph-name="k" unicode="k" horiz-adv-x="1079" 
d="M199 0v1458h104v-1028l490 557h133l-326 -369l397 -618h-129l-340 543l-225 -260v-283h-104z" />
    <glyph glyph-name="l" unicode="l" horiz-adv-x="587" 
d="M195 256v1202h104v-1200q0 -88 33.5 -127t118.5 -39h71v-92h-90q-118 0 -177.5 67.5t-59.5 188.5z" />
    <glyph glyph-name="m" unicode="m" horiz-adv-x="1798" 
d="M596 999q227 0 317 -180q114 180 336 180q161 0 263 -98t102 -270v-631h-105v612q0 143 -69.5 219t-200.5 76t-206 -74t-75 -202v-631h-104v612q0 143 -69.5 219t-202.5 76t-206 -77t-73 -218v-612h-104v987h104v-117q111 129 293 129z" />
    <glyph glyph-name="n" unicode="n" horiz-adv-x="1144" 
d="M199 0v987h104v-117q111 129 283 129q172 -1 272 -97t100 -271v-631h-104v612q0 143 -69.5 219t-202.5 76t-206 -77t-73 -218v-612h-104z" />
    <glyph glyph-name="o" unicode="o" horiz-adv-x="1077" 
d="M246 494q0 -112 16.5 -193.5t71.5 -136.5q84 -84 204 -84t205 84q55 55 71.5 136.5t16.5 193.5t-16.5 193t-71.5 136q-85 84 -205 84t-204 -84q-55 -55 -71.5 -136t-16.5 -193zM141 494q-1 274 115 390t282 115q166 1 282 -115t116 -390t-116 -390t-282 -116t-282 116
t-115 390z" />
    <glyph glyph-name="p" unicode="p" horiz-adv-x="1105" 
d="M303 494q0 -69 5.5 -123t23 -110.5t47.5 -94.5t81.5 -62t121.5 -24t121.5 24t81 61.5t47 95t23 111t5.5 122.5t-5.5 122.5t-23 110.5t-47 94.5t-81 61.5t-121.5 24t-121.5 -24t-81.5 -61.5t-47.5 -94.5t-23 -110.5t-5.5 -122.5zM199 -471v1458h104v-127q62 81 130.5 110
t153.5 29q165 0 251 -86q127 -127 127 -419q0 -397 -146.5 -451.5t-231.5 -54.5t-153.5 29t-130.5 110v-598h-104z" />
    <glyph glyph-name="q" unicode="q" horiz-adv-x="1105" 
d="M246 494q0 -69 5.5 -122.5t23 -111t47 -95t81 -61.5t121.5 -24t121.5 24t81.5 62t47.5 94.5t23 110.5t5.5 123t-5.5 122.5t-23 110.5t-47.5 94.5t-81.5 61.5t-121.5 24t-121.5 -24t-81 -61.5t-47 -94.5t-23 -110.5t-5.5 -122.5zM141 494q0 397 146.5 451t231.5 54
t153.5 -29t130.5 -110v127h104v-1458h-104v598q-62 -81 -130.5 -110t-153.5 -29t-231.5 54.5t-146.5 451.5z" />
    <glyph glyph-name="r" unicode="r" horiz-adv-x="837" 
d="M199 0v987h104v-131q42 67 120.5 105t160.5 38t137.5 -21t107.5 -73l-75 -76q-44 44 -84.5 61t-102.5 17q-122 0 -193 -87t-71 -212v-608h-104z" />
    <glyph glyph-name="s" unicode="s" horiz-adv-x="1011" 
d="M498 80q297 0 297 201q0 78 -45 117t-144 48l-164 15q-297 24 -297 258q0 129 96.5 204.5t280.5 75.5t324 -104l-70 -70q-116 84 -258 84q-270 0 -270 -190q0 -77 48 -116t153 -50l159 -14q218 -23 253.5 -105.5t35.5 -152.5q0 -135 -106 -214t-289 -79q-253 0 -400 141
l72 72q115 -121 324 -121z" />
    <glyph glyph-name="t" unicode="t" horiz-adv-x="665" 
d="M88 909v78h135v316h105v-316h223v-78h-223v-653q0 -164 151 -164h72v-92h-90q-114 0 -176 71t-62 187v651h-135z" />
    <glyph glyph-name="u" unicode="u" horiz-adv-x="1144" 
d="M186 356v631h105v-612q0 -143 69.5 -219t202.5 -76t206 77t73 218v612h104v-987h-104v117q-111 -129 -283 -129q-173 0 -273 97t-100 271z" />
    <glyph glyph-name="v" unicode="v" horiz-adv-x="880" 
d="M29 987h114l297 -864l297 864h115l-360 -987h-103z" />
    <glyph glyph-name="w" unicode="w" horiz-adv-x="1458" 
d="M29 987h114l252 -864l283 864h102l283 -864l252 864h115l-316 -987h-106l-279 823l-278 -823h-107z" />
    <glyph glyph-name="x" unicode="x" horiz-adv-x="942" 
d="M82 0l334 504l-320 483h127l250 -397l246 397h127l-320 -483l334 -504h-127l-260 416l-264 -416h-127z" />
    <glyph glyph-name="y" unicode="y" horiz-adv-x="880" 
d="M139 -446h-49v92h39q103 0 132 41t48 94l80 219l-360 987h114l297 -864l297 864h115l-459 -1255q-28 -82 -67 -115q-66 -63 -187 -63z" />
    <glyph glyph-name="z" unicode="z" horiz-adv-x="925" 
d="M111 0v98l594 797h-562v92h672v-98l-596 -797h596v-92h-704z" />
    <glyph glyph-name="braceleft" unicode="{" horiz-adv-x="647" 
d="M102 684v90h37q49 0 87 38t38 124v424q0 83 23.5 166.5t228.5 83.5h29v-92h-27q-57 0 -80.5 -5t-46 -27.5t-22.5 -127.5v-424q0 -79 -29 -125.5t-96 -79.5q67 -33 96 -79.5t29 -125.5v-424q0 -105 22.5 -127.5t45.5 -27t81 -4.5h27v-93h-29q-205 0 -228.5 83.5
t-23.5 166.5v424q0 86 -38 124t-87 38h-37z" />
    <glyph glyph-name="bar" unicode="|" horiz-adv-x="649" 
d="M272 -152v1762h105v-1762h-105z" />
    <glyph glyph-name="braceright" unicode="}" horiz-adv-x="647" 
d="M102 -59h27q58 0 81 4.5t46 27.5t23 127v424q0 79 28.5 125.5t95.5 79.5q-67 33 -95.5 79.5t-28.5 125.5v424q0 104 -23 127t-46.5 28t-80.5 5h-27v92h29q205 0 228.5 -83.5t23.5 -166.5v-424q0 -86 38 -124t87 -38h37v-90h-37q-49 0 -87 -38t-38 -124v-424
q0 -83 -23.5 -166.5t-228.5 -83.5h-29v93z" />
    <glyph glyph-name="asciitilde" unicode="~" 
d="M321 649q39 0 53 -1.5t31 -6t27.5 -7.5t31.5 -11t28.5 -11t32.5 -13.5t29 -12.5t21 -9t21 -9t18.5 -7.5t36.5 -13.5t65 -8q42 0 74 16.5t91 75.5l63 -64q-80 -80 -126.5 -103.5t-86.5 -23.5t-59 3t-32 6t-41 13.5t-37 14.5l-64 27q-15 5 -30 12.5t-29.5 13t-36.5 13.5
t-64 8t-74.5 -16.5t-91.5 -75.5l-63 63q80 80 126.5 103.5t85.5 23.5z" />
    <glyph glyph-name="uni00A0" unicode="&#xa0;" horiz-adv-x="522" 
 />
    <glyph glyph-name="exclamdown" unicode="&#xa1;" horiz-adv-x="622" 
d="M225 -471l6 1065h101l6 -1065h-113zM213 850v137h137v-137h-137z" />
    <glyph glyph-name="cent" unicode="&#xa2;" horiz-adv-x="1019" 
d="M246 707.5q0 -142.5 70 -243.5t194 -122v815q-125 -21 -197 -125q-37 -54 -52 -118t-15 -206.5zM141 750q0 216 97.5 347t271.5 154v207h88v-203q96 -5 163 -37t140 -114l-72 -66q-60 66 -111 93t-120 32v-827q69 5 120 32t111 93l72 -66q-73 -82 -140 -114t-163 -37
v-244h-88v248q-174 23 -271.5 154.5t-97.5 347.5z" />
    <glyph glyph-name="sterling" unicode="&#xa3;" horiz-adv-x="1099" 
d="M102 700v78h131v250q0 200 118.5 321t314.5 121t321 -124l-76 -76q-50 50 -102.5 76t-140.5 26q-158 0 -241 -94.5t-83 -271.5v-228h324v-78h-324v-602h643v-98h-754v700h-131z" />
    <glyph glyph-name="currency" unicode="&#xa4;" horiz-adv-x="1345" 
d="M326 543q0 -145 100.5 -245.5t245.5 -100.5t245.5 100.5t100.5 245.5t-100.5 245.5t-245.5 100.5t-245.5 -100.5t-100.5 -245.5zM227 544q0 162 99 281l-152 150l66 65l151 -149q117 96 281 96t280 -96l154 149l65 -65l-151 -150q96 -115 96 -281t-96 -282l151 -151
l-65 -66l-154 152q-118 -99 -280 -99t-281 99l-151 -152l-66 66l152 151q-99 120 -99 282z" />
    <glyph glyph-name="yen" unicode="&#xa5;" horiz-adv-x="1009" 
d="M877 791v-78h-261l-55 -109v-108h316v-78h-316v-418h-110v418h-318v78h318v108l-56 109h-262v78h223l-336 667h117l371 -739l366 739h115l-334 -667h222z" />
    <glyph glyph-name="brokenbar" unicode="&#xa6;" horiz-adv-x="671" 
d="M272 893v717h105v-717h-105zM272 -152v717h105v-717h-105z" />
    <glyph glyph-name="section" unicode="&#xa7;" horiz-adv-x="1159" 
d="M580 215q120 0 195 81t75 213t-78 210t-196 78t-192 -81q-75 -81 -75 -211q0 -131 75 -211q76 -80 196 -79zM836 -159q0 99 -52.5 160.5t-140.5 86.5l-170 47q-129 36 -201.5 136.5t-72.5 228.5t63.5 219t161.5 135q-101 43 -152 111.5t-51 177.5q0 149 103 238t254 89
t255 -82.5t111 -226.5h-108q-10 112 -74 162.5t-182 50.5t-184 -58t-66 -173q0 -165 186 -219l170 -47q128 -36 201.5 -136.5t73.5 -228.5t-64 -218.5t-162 -135.5q98 -33 154.5 -111.5t56.5 -187.5q0 -150 -102 -246t-262 -96t-263.5 84t-115.5 233h110q20 -219 203 -219
t251.5 63.5t68.5 162.5z" />
    <glyph glyph-name="dieresis" unicode="&#xa8;" horiz-adv-x="1024" 
d="M666 1229v157h118v-157h-118zM240 1229v157h118v-157h-118z" />
    <glyph glyph-name="copyright" unicode="&#xa9;" horiz-adv-x="1830" 
d="M561 720q0 79 21 175t108 177t234 81q84 0 143.5 -25t124.5 -84l-62 -61q-55 49 -99.5 67.5t-105.5 18.5t-108.5 -18.5t-77.5 -49.5t-50 -75t-28 -92.5t-8 -104.5t12.5 -132t75.5 -141t183 -65q63 0 107 17.5t99 66.5l62 -61q-62 -56 -123.5 -81.5t-148.5 -25.5
t-157.5 33.5t-114 92t-65.5 133.5t-22 154zM272 729q0 -130 51.5 -250t137.5 -208t205.5 -140.5t248.5 -52.5t248.5 52.5t206 140.5t138 208t51.5 250t-51.5 250t-138 208t-206 140.5t-248.5 52.5t-248.5 -52.5t-205.5 -140.5t-137.5 -208t-51.5 -250zM174 729
q0 151 58.5 288.5t157.5 236.5t236.5 157.5t313.5 58.5t347 -99t270.5 -269.5t99.5 -372.5t-99.5 -372.5t-270.5 -269.5t-347 -99t-313.5 58.5t-236.5 157.5t-157.5 236.5t-58.5 288.5z" />
    <glyph glyph-name="ordfeminine" unicode="&#xaa;" horiz-adv-x="915" 
d="M209 887q0 -148 179 -148q83 0 128.5 11.5t85.5 49.5t39 144v96h-238q-194 0 -194 -153zM641 1198q0 186 -199 186q-98 0 -145 -21.5t-84 -76.5l-66 55q52 69 116.5 96t162.5 27q151 0 227 -66.5t76 -191.5v-536h-88v73q-49 -47 -101 -65.5t-136 -18.5t-136.5 16
t-89.5 56q-57 57 -57 159t71.5 162t200.5 60h248v86z" />
    <glyph glyph-name="guillemotleft" unicode="&#xab;" horiz-adv-x="1079" 
d="M510 543l401 401v-135l-266 -266l266 -267v-135zM86 543l401 401v-135l-266 -266l266 -267v-135z" />
    <glyph glyph-name="logicalnot" unicode="&#xac;" 
d="M109 492v96h835v-369h-96v273h-739z" />
    <glyph glyph-name="uni00AD" unicode="&#xad;" horiz-adv-x="872" 
d="M168 492v96h537v-96h-537z" />
    <glyph glyph-name="registered" unicode="&#xae;" horiz-adv-x="1830" 
d="M774 743h160q74 0 123 44.5t49 112.5t-49.5 112.5t-122.5 44.5h-160v-314zM682 319v822h262q104 0 179 -69.5t75 -165.5q0 -184 -186 -236l207 -351h-107l-203 343h-135v-343h-92zM270 729q0 -130 51.5 -251t138 -209t206 -140.5t271.5 -52.5t301 89t236 239.5t87 324.5
t-87 324.5t-236 239.5t-301 89t-271.5 -52.5t-206 -140.5t-138 -209t-51.5 -251zM174 729q0 151 58.5 288.5t157.5 236.5t236.5 157.5t313.5 58.5t347 -99t270.5 -269.5t99.5 -372.5t-99.5 -372.5t-270.5 -269.5t-347 -99t-313.5 58.5t-236.5 157.5t-157.5 236.5
t-58.5 288.5z" />
    <glyph glyph-name="macron" unicode="&#xaf;" horiz-adv-x="1024" 
d="M209 1249v94h606v-94h-606z" />
    <glyph glyph-name="degree" unicode="&#xb0;" horiz-adv-x="937" 
d="M240 1152q0 -102 65 -169.5t164 -67.5t164 67.5t65 167.5t-66.5 168t-164.5 68t-162.5 -66t-64.5 -168zM147 1151q0 133 94.5 227.5t227.5 94.5t227.5 -94.5t94.5 -227.5t-94.5 -227.5t-227.5 -94.5t-227.5 94.5t-94.5 227.5z" />
    <glyph glyph-name="plusminus" unicode="&#xb1;" 
d="M109 553v96h370v371h96v-371h369v-96h-369v-373h-96v373h-370zM109 0v96h835v-96h-835z" />
    <glyph glyph-name="twosuperior" unicode="&#xb2;" horiz-adv-x="641" 
d="M90 584v82l344 436q47 62 47 131t-39 110t-108 41t-111.5 -37t-42.5 -118h-90q0 105 66 171t176 66t175.5 -64t65.5 -173q0 -52 -15.5 -90.5t-53.5 -87.5l-305 -385h374v-82h-483z" />
    <glyph glyph-name="threesuperior" unicode="&#xb3;" horiz-adv-x="641" 
d="M323 657q70 0 117 45.5t47 123.5t-43 121.5t-129 43.5h-16v80h16q75 0 115.5 41.5t40.5 114.5t-44.5 115t-110.5 42t-106 -38t-46 -105h-90q7 104 74.5 164.5t173.5 60.5t172.5 -64.5t66.5 -172.5q0 -141 -117 -193q134 -50 134 -211q0 -118 -73 -184t-183 -66
t-183.5 60.5t-77.5 173.5h93q4 -77 51.5 -114.5t117.5 -37.5z" />
    <glyph glyph-name="acute" unicode="&#xb4;" horiz-adv-x="1024" 
d="M416 1208l198 301h138l-217 -301h-119z" />
    <glyph glyph-name="mu" unicode="&#xb5;" horiz-adv-x="1138" 
d="M180 -471v1458h105v-612q0 -143 69.5 -219t202.5 -76t206 77t73 218v612h104v-987h-104v117q-111 -129 -281 -129t-270 92v-551h-105z" />
    <glyph glyph-name="paragraph" unicode="&#xb6;" horiz-adv-x="1185" 
d="M205 1341.5q113 116.5 319 116.5h437v-1929h-105v1831h-252v-1831h-104v1151q-95 0 -174 34t-156.5 120t-77.5 239q0 152 113 268.5z" />
    <glyph glyph-name="periodcentered" unicode="&#xb7;" horiz-adv-x="540" 
d="M195 465v151h151v-151h-151z" />
    <glyph glyph-name="cedilla" unicode="&#xb8;" horiz-adv-x="1024" 
d="M371 -451l147 308h113l-131 -308h-129z" />
    <glyph glyph-name="onesuperior" unicode="&#xb9;" horiz-adv-x="641" 
d="M401 1458v-874h-90v774l-164 -146v105l164 141h90z" />
    <glyph glyph-name="ordmasculine" unicode="&#xba;" horiz-adv-x="925" 
d="M463 1384q-95 0 -161 -66t-66 -240q0 -72 6 -144t66 -132q61 -61 155 -61t160 66q67 67 67 241q0 72 -6 144t-66 132t-155 60zM147 1063q0 101 20.5 179t78.5 136q86 86 217 86t217 -86q58 -58 78 -135.5t20 -179.5t-20 -179.5t-78 -135.5q-86 -86 -217 -86t-217 86
q-58 58 -78.5 136t-20.5 179z" />
    <glyph glyph-name="guillemotright" unicode="&#xbb;" horiz-adv-x="1079" 
d="M592 141v135l266 267l-266 266v135l401 -401zM168 141v135l266 267l-266 266v135l401 -401z" />
    <glyph glyph-name="onequarter" unicode="&#xbc;" horiz-adv-x="1644" 
d="M1053 137v82l315 655h96l-313 -655h250v246h90v-246h106v-82h-106v-137h-90v137h-348zM436 0l680 1458h92l-680 -1458h-92zM401 1458v-874h-90v774l-164 -146v105l164 141h90z" />
    <glyph glyph-name="onehalf" unicode="&#xbd;" horiz-adv-x="1644" 
d="M1094 0v82l344 436q47 62 47 131t-39.5 110.5t-107.5 41.5t-111 -37.5t-43 -118.5h-90q0 105 66 171.5t176 66.5t175.5 -64.5t65.5 -173.5q0 -52 -15.5 -90.5t-54.5 -87.5l-305 -385h375v-82h-483zM436 0l680 1458h92l-680 -1458h-92zM401 1458v-874h-90v774l-164 -146
v105l164 141h90z" />
    <glyph glyph-name="threequarters" unicode="&#xbe;" horiz-adv-x="1644" 
d="M1053 137v82l315 655h96l-313 -655h250v246h90v-246h106v-82h-106v-137h-90v137h-348zM436 0l680 1458h92l-680 -1458h-92zM323 657q70 0 117 45.5t47 123.5t-43 121.5t-129 43.5h-16v80h16q75 0 115.5 41.5t40.5 114.5t-44.5 115t-110.5 42t-106 -38t-46 -105h-90
q7 104 74.5 164.5t173.5 60.5t172.5 -64.5t66.5 -172.5q0 -141 -117 -193q134 -50 134 -211q0 -118 -73 -184t-183 -66t-183.5 60.5t-77.5 173.5h93q4 -77 51.5 -114.5t117.5 -37.5z" />
    <glyph glyph-name="questiondown" unicode="&#xbf;" horiz-adv-x="999" 
d="M387 850v137h137v-137h-137zM102 -123q0 67 22.5 122t68.5 122l174 256q36 52 36 123v96h105v-92q0 -100 -59 -185l-173 -253q-37 -57 -53 -95.5t-16 -93.5q0 -115 74.5 -191.5t189.5 -76.5t187.5 78.5t72.5 189.5h105q0 -151 -103 -255.5t-262 -104.5t-264 103t-105 257
z" />
    <glyph glyph-name="Agrave" unicode="&#xc0;" horiz-adv-x="1232" 
d="M377 1898h137l199 -301h-119zM311 453h611l-306 858zM31 0l536 1458h99l536 -1458h-119l-127 354h-680l-126 -354h-119z" />
    <glyph glyph-name="Aacute" unicode="&#xc1;" horiz-adv-x="1232" 
d="M520 1597l199 301h137l-217 -301h-119zM311 453h611l-306 858zM31 0l536 1458h99l536 -1458h-119l-127 354h-680l-126 -354h-119z" />
    <glyph glyph-name="Acircumflex" unicode="&#xc2;" horiz-adv-x="1232" 
d="M311 453h611l-306 858zM309 1597l252 301h111l252 -301h-117l-191 224l-190 -224h-117zM31 0l536 1458h99l536 -1458h-119l-127 354h-680l-126 -354h-119z" />
    <glyph glyph-name="Atilde" unicode="&#xc3;" horiz-adv-x="1232" 
d="M311 453h611l-306 858zM421 1802.5q37 7.5 81 7.5t117 -46q75 -46 111 -46t61.5 12.5t68.5 55.5l62 -60q-82 -82 -120 -90t-79 -8t-119 46t-114 46t-60.5 -12t-67.5 -55l-61 59q83 83 120 90.5zM31 0l536 1458h99l536 -1458h-119l-127 354h-680l-126 -354h-119z" />
    <glyph glyph-name="Adieresis" unicode="&#xc4;" horiz-adv-x="1232" 
d="M770 1618v158h119v-158h-119zM344 1618v158h119v-158h-119zM311 453h611l-306 858zM31 0l536 1458h99l536 -1458h-119l-127 354h-680l-126 -354h-119z" />
    <glyph glyph-name="Aring" unicode="&#xc5;" horiz-adv-x="1232" 
d="M467 1763q0 -61 43.5 -105t105.5 -44t106 44t44 105t-44 104.5t-106 43.5t-105.5 -43.5t-43.5 -104.5zM383 1763q0 97 68 165.5t165 68.5t165.5 -68.5t68.5 -165.5t-68.5 -166t-165.5 -69t-165 69t-68 166zM311 453h611l-306 858zM31 0l536 1458h99l536 -1458h-119
l-127 354h-680l-126 -354h-119z" />
    <glyph glyph-name="AE" unicode="&#xc6;" horiz-adv-x="1845" 
d="M848 453v907l-475 -907h475zM1731 1458v-98h-775v-582h660v-98h-660v-582h775v-98h-883v354h-522l-185 -354h-121l773 1458h938z" />
    <glyph glyph-name="Ccedilla" unicode="&#xc7;" horiz-adv-x="1318" 
d="M489 -451l148 308h113l-132 -308h-129zM658 1470q206 0 337 -114t168 -312h-112q-32 153 -134 240.5t-258 87.5t-268 -112q-74 -74 -93 -178t-19 -353t19 -352.5t93 -177.5q113 -113 269 -113t259.5 88t135.5 240h108q-37 -197 -170 -311.5t-337 -114.5t-343 139
q-115 115 -130 254t-15 303t4.5 286.5t35.5 204.5t105 156q139 139 345 139z" />
    <glyph glyph-name="Egrave" unicode="&#xc8;" horiz-adv-x="1224" 
d="M403 1898h138l198 -301h-118zM225 0v1458h885v-98h-774v-576h659v-98h-659v-588h774v-98h-885z" />
    <glyph glyph-name="Eacute" unicode="&#xc9;" horiz-adv-x="1224" 
d="M547 1597l198 301h138l-217 -301h-119zM225 0v1458h885v-98h-774v-576h659v-98h-659v-588h774v-98h-885z" />
    <glyph glyph-name="Ecircumflex" unicode="&#xca;" horiz-adv-x="1224" 
d="M336 1597l252 301h110l252 -301h-116l-191 224l-190 -224h-117zM225 0v1458h885v-98h-774v-576h659v-98h-659v-588h774v-98h-885z" />
    <glyph glyph-name="Edieresis" unicode="&#xcb;" horiz-adv-x="1224" 
d="M797 1618v158h118v-158h-118zM371 1618v158h118v-158h-118zM225 0v1458h885v-98h-774v-576h659v-98h-659v-588h774v-98h-885z" />
    <glyph glyph-name="Igrave" unicode="&#xcc;" horiz-adv-x="561" 
d="M225 0v1458h111v-1458h-111zM14 1898h138l198 -301h-119z" />
    <glyph glyph-name="Iacute" unicode="&#xcd;" horiz-adv-x="561" 
d="M225 0v1458h111v-1458h-111zM211 1597l199 301h137l-217 -301h-119z" />
    <glyph glyph-name="Icircumflex" unicode="&#xce;" horiz-adv-x="561" 
d="M225 0v1458h111v-1458h-111zM-23 1597l252 301h111l252 -301h-117l-190 224l-191 -224h-117z" />
    <glyph glyph-name="Idieresis" unicode="&#xcf;" horiz-adv-x="561" 
d="M434 1618v158h119v-158h-119zM225 0v1458h111v-1458h-111zM8 1618v158h119v-158h-119z" />
    <glyph glyph-name="Eth" unicode="&#xd0;" horiz-adv-x="1411" 
d="M358 98h353q278 0 341.5 140t71 235t8.5 136.5t1 119.5t-2 171t-25 188.5t-82 158.5q-108 113 -313 113h-353v-582h365v-86h-365v-594zM82 692v86h166v680h489q232 0 365 -133t137 -322t4 -274t-2 -188.5t-33 -218t-106 -189.5q-133 -133 -365 -133h-489v692h-166z" />
    <glyph glyph-name="Ntilde" unicode="&#xd1;" horiz-adv-x="1513" 
d="M562.5 1802.5q37.5 7.5 82.5 7.5t117 -46t109 -46t62 12.5t68 55.5l62 -60q-83 -83 -120.5 -90.5t-78.5 -7.5t-119 46q-79 46 -114 46t-59.5 -12t-67.5 -55l-62 59q83 83 120.5 90.5zM225 0v1458h111l842 -1263v1263h110v-1458h-110l-842 1268v-1268h-111z" />
    <glyph glyph-name="Ograve" unicode="&#xd2;" horiz-adv-x="1335" 
d="M428 1898h137l199 -301h-119zM279 729q0 -249 19 -352.5t93 -177.5q113 -113 277 -113t276 113q74 74 93.5 178t19.5 352t-19.5 352.5t-93.5 178.5q-112 112 -276 112t-277 -112q-74 -74 -93 -178t-19 -353zM668 1470q216 0 354 -139q115 -115 130 -254t15 -303
t-4.5 -286.5t-35.5 -204.5t-105 -156q-138 -139 -354 -139t-355 139q-115 115 -130 254t-15 303t4.5 286.5t35.5 204.5t105 156q139 139 355 139z" />
    <glyph glyph-name="Oacute" unicode="&#xd3;" horiz-adv-x="1335" 
d="M571 1597l199 301h137l-217 -301h-119zM279 729q0 -249 19 -352.5t93 -177.5q113 -113 277 -113t276 113q74 74 93.5 178t19.5 352t-19.5 352.5t-93.5 178.5q-112 112 -276 112t-277 -112q-74 -74 -93 -178t-19 -353zM668 1470q216 0 354 -139q115 -115 130 -254t15 -303
t-4.5 -286.5t-35.5 -204.5t-105 -156q-138 -139 -354 -139t-355 139q-115 115 -130 254t-15 303t4.5 286.5t35.5 204.5t105 156q139 139 355 139z" />
    <glyph glyph-name="Ocircumflex" unicode="&#xd4;" horiz-adv-x="1335" 
d="M360 1597l252 301h111l252 -301h-117l-190 224l-191 -224h-117zM279 729q0 -249 19 -352.5t93 -177.5q113 -113 277 -113t276 113q74 74 93.5 178t19.5 352t-19.5 352.5t-93.5 178.5q-112 112 -276 112t-277 -112q-74 -74 -93 -178t-19 -353zM668 1470q216 0 354 -139
q115 -115 130 -254t15 -303t-4.5 -286.5t-35.5 -204.5t-105 -156q-138 -139 -354 -139t-355 139q-115 115 -130 254t-15 303t4.5 286.5t35.5 204.5t105 156q139 139 355 139z" />
    <glyph glyph-name="Otilde" unicode="&#xd5;" horiz-adv-x="1335" 
d="M472.5 1802.5q37.5 7.5 82.5 7.5t117 -46t109 -46t62 12.5t68 55.5l62 -60q-83 -83 -120.5 -90.5t-78.5 -7.5t-119 46q-79 46 -114 46t-59.5 -12t-67.5 -55l-62 59q83 83 120.5 90.5zM279 729q0 -249 19 -352.5t93 -177.5q113 -113 277 -113t276 113q74 74 93.5 178
t19.5 352t-19.5 352.5t-93.5 178.5q-112 112 -276 112t-277 -112q-74 -74 -93 -178t-19 -353zM668 1470q216 0 354 -139q115 -115 130 -254t15 -303t-4.5 -286.5t-35.5 -204.5t-105 -156q-138 -139 -354 -139t-355 139q-115 115 -130 254t-15 303t4.5 286.5t35.5 204.5
t105 156q139 139 355 139z" />
    <glyph glyph-name="Odieresis" unicode="&#xd6;" horiz-adv-x="1335" 
d="M821 1618v158h119v-158h-119zM395 1618v158h119v-158h-119zM279 729q0 -249 19 -352.5t93 -177.5q113 -113 277 -113t276 113q74 74 93.5 178t19.5 352t-19.5 352.5t-93.5 178.5q-112 112 -276 112t-277 -112q-74 -74 -93 -178t-19 -353zM668 1470q216 0 354 -139
q115 -115 130 -254t15 -303t-4.5 -286.5t-35.5 -204.5t-105 -156q-138 -139 -354 -139t-355 139q-115 115 -130 254t-15 303t4.5 286.5t35.5 204.5t105 156q139 139 355 139z" />
    <glyph glyph-name="multiply" unicode="&#xd7;" 
d="M145 223l318 318l-318 317l64 64l317 -318l318 318l63 -64l-317 -317l317 -318l-63 -63l-318 317l-317 -317z" />
    <glyph glyph-name="Oslash" unicode="&#xd8;" horiz-adv-x="1335" 
d="M668 86q163 0 276 113q74 74 93.5 178t19.5 344t-16.5 342.5t-75.5 173.5l-519 -1083q100 -68 222 -68zM279 736q0 -242 15.5 -344t76.5 -171l518 1084q-98 67 -221 67q-165 0 -277 -112q-74 -74 -93 -178t-19 -346zM168 728q0 120 4.5 242.5t35.5 204.5t105 156
q139 139 355 139q149 0 266 -71l72 149h108l-100 -209q76 -74 106.5 -150.5t38.5 -171.5t8 -251t-4.5 -278.5t-35.5 -204.5t-105 -156q-139 -139 -354 -139q-147 0 -267 71l-71 -149h-109l101 209q-81 79 -114 163.5t-36.5 205t-3.5 240.5z" />
    <glyph glyph-name="Ugrave" unicode="&#xd9;" horiz-adv-x="1409" 
d="M465 1898h137l199 -301h-119zM205 473v985h110v-971q0 -182 106.5 -291.5t283.5 -109.5t283 109.5t106 291.5v971h110v-985q0 -214 -139.5 -349.5t-359.5 -135.5t-360 135.5t-140 349.5z" />
    <glyph glyph-name="Uacute" unicode="&#xda;" horiz-adv-x="1409" 
d="M608 1597l199 301h137l-217 -301h-119zM205 473v985h110v-971q0 -182 106.5 -291.5t283.5 -109.5t283 109.5t106 291.5v971h110v-985q0 -214 -139.5 -349.5t-359.5 -135.5t-360 135.5t-140 349.5z" />
    <glyph glyph-name="Ucircumflex" unicode="&#xdb;" horiz-adv-x="1409" 
d="M397 1597l252 301h111l252 -301h-117l-190 224l-191 -224h-117zM205 473v985h110v-971q0 -182 106.5 -291.5t283.5 -109.5t283 109.5t106 291.5v971h110v-985q0 -214 -139.5 -349.5t-359.5 -135.5t-360 135.5t-140 349.5z" />
    <glyph glyph-name="Udieresis" unicode="&#xdc;" horiz-adv-x="1409" 
d="M858 1618v158h119v-158h-119zM432 1618v158h119v-158h-119zM205 473v985h110v-971q0 -182 106.5 -291.5t283.5 -109.5t283 109.5t106 291.5v971h110v-985q0 -214 -139.5 -349.5t-359.5 -135.5t-360 135.5t-140 349.5z" />
    <glyph glyph-name="Yacute" unicode="&#xdd;" horiz-adv-x="1011" 
d="M410 1597l198 301h137l-217 -301h-118zM561 0h-110v604l-431 854h119l371 -737l362 737h119l-430 -854v-604z" />
    <glyph glyph-name="Thorn" unicode="&#xde;" horiz-adv-x="1323" 
d="M336 414h412q158 0 250 81t92 240t-92 240.5t-250 81.5h-412v-643zM225 0v1458h111v-303h424q194 0 317 -111.5t123 -307.5t-123 -308.5t-317 -112.5h-424v-315h-111z" />
    <glyph glyph-name="germandbls" unicode="&#xdf;" horiz-adv-x="1126" 
d="M864 651q0 187 -180 187h-100v92h80q92 0 146 57t54 159t-71 167t-213 65t-209.5 -81.5t-67.5 -223.5v-1073h-104v1073q0 186 103.5 291.5t278.5 105.5t280.5 -84t105.5 -248t-129 -249q76 -38 103.5 -95t27.5 -159v-361q0 -127 -80 -204q-77 -70 -195 -70h-110v92h90
q47 0 74.5 10t58.5 35q57 45 57 150v364z" />
    <glyph glyph-name="agrave" unicode="&#xe0;" horiz-adv-x="1073" 
d="M270 1509h138l198 -301h-119zM219 272q-1 -192 231 -192q108 0 166 15t110 64t52 185v127h-307q-252 0 -252 -199zM778 666q0 241 -256 241q-126 0 -186.5 -28.5t-108.5 -96.5l-75 66q61 85 141.5 118t206.5 33q383 0 383 -323v-676h-105v98q-62 -62 -129 -86t-175 -24
t-174.5 20.5t-113.5 69.5q-71 71 -71 199t91 203t253 75h319v111z" />
    <glyph glyph-name="aacute" unicode="&#xe1;" horiz-adv-x="1073" 
d="M414 1208l198 301h138l-218 -301h-118zM219 272q-1 -192 231 -192q108 0 166 15t110 64t52 185v127h-307q-252 0 -252 -199zM778 666q0 241 -256 241q-126 0 -186.5 -28.5t-108.5 -96.5l-75 66q61 85 141.5 118t206.5 33q383 0 383 -323v-676h-105v98q-62 -62 -129 -86
t-175 -24t-174.5 20.5t-113.5 69.5q-71 71 -71 199t91 203t253 75h319v111z" />
    <glyph glyph-name="acircumflex" unicode="&#xe2;" horiz-adv-x="1073" 
d="M219 272q-1 -192 231 -192q108 0 166 15t110 64t52 185v127h-307q-252 0 -252 -199zM203 1208l252 301h110l252 -301h-117l-190 224l-191 -224h-116zM778 666q0 241 -256 241q-126 0 -186.5 -28.5t-108.5 -96.5l-75 66q61 85 141.5 118t206.5 33q383 0 383 -323v-676
h-105v98q-62 -62 -129 -86t-175 -24t-174.5 20.5t-113.5 69.5q-71 71 -71 199t91 203t253 75h319v111z" />
    <glyph glyph-name="atilde" unicode="&#xe3;" horiz-adv-x="1073" 
d="M219 272q-1 -192 231 -192q108 0 166 15t110 64t52 185v127h-307q-252 0 -252 -199zM315 1413.5q37 7.5 82 7.5t117 -46t109 -46t62.5 12.5t68.5 55.5l61 -60q-83 -83 -121 -90.5t-78 -7.5t-118 46t-114 46t-60.5 -12t-67.5 -55l-61 59q83 83 120 90.5zM778 666
q0 241 -256 241q-126 0 -186.5 -28.5t-108.5 -96.5l-75 66q61 85 141.5 118t206.5 33q383 0 383 -323v-676h-105v98q-62 -62 -129 -86t-175 -24t-174.5 20.5t-113.5 69.5q-71 71 -71 199t91 203t253 75h319v111z" />
    <glyph glyph-name="adieresis" unicode="&#xe4;" horiz-adv-x="1073" 
d="M664 1229v157h118v-157h-118zM238 1229v157h118v-157h-118zM219 272q-1 -192 231 -192q108 0 166 15t110 64t52 185v127h-307q-252 0 -252 -199zM778 666q0 241 -256 241q-126 0 -186.5 -28.5t-108.5 -96.5l-75 66q61 85 141.5 118t206.5 33q383 0 383 -323v-676h-105v98
q-62 -62 -129 -86t-175 -24t-174.5 20.5t-113.5 69.5q-71 71 -71 199t91 203t253 75h319v111z" />
    <glyph glyph-name="aring" unicode="&#xe5;" horiz-adv-x="1073" 
d="M360 1386q0 -61 44 -105t106 -44t105.5 43.5t43.5 105.5t-43.5 105t-105.5 43t-106 -43.5t-44 -104.5zM276 1386q0 97 68.5 165.5t165.5 68.5t165 -68.5t68 -165.5t-68 -166t-165 -69t-165.5 69t-68.5 166zM219 272q-1 -192 231 -192q108 0 166 15t110 64t52 185v127
h-307q-252 0 -252 -199zM778 666q0 241 -256 241q-126 0 -186.5 -28.5t-108.5 -96.5l-75 66q61 85 141.5 118t206.5 33q383 0 383 -323v-676h-105v98q-62 -62 -129 -86t-175 -24t-174.5 20.5t-113.5 69.5q-71 71 -71 199t91 203t253 75h319v111z" />
    <glyph glyph-name="ae" unicode="&#xe6;" horiz-adv-x="1708" 
d="M1174 907q-88 0 -171.5 -53t-99 -139t-20.5 -160h581q-9 129 -37 197q-29 67 -97 111t-156 44zM219 272q-1 -192 231 -192q108 0 166 15t110 64t52 185v127h-307q-252 0 -252 -199zM778 666q0 241 -256 241q-126 0 -186.5 -28.5t-108.5 -96.5l-75 66q61 85 141.5 118
t206.5 33q278 0 354 -174q103 174 320 174q186 0 290.5 -127t104.5 -354v-47h-686q0 -190 81.5 -289.5t239.5 -99.5q86 0 147.5 27.5t125.5 91.5l77 -62q-79 -79 -159.5 -115t-198.5 -36q-250 0 -352 184q-61 -100 -145.5 -142t-208.5 -42t-190.5 20.5t-113.5 69.5
q-71 71 -71 199t91 203t253 75h319v111z" />
    <glyph glyph-name="ccedilla" unicode="&#xe7;" horiz-adv-x="1009" 
d="M371 -451l147 308h113l-131 -308h-129zM141 494q0 235 116 370t318 135q104 0 177 -32.5t149 -118.5l-72 -66q-63 70 -119 97.5t-135 27.5q-174 0 -262 -131q-37 -54 -52 -118t-15 -206.5t67 -240.5q88 -131 262 -131q78 0 134.5 28t119.5 97l72 -66q-76 -86 -149 -118.5
t-177 -32.5q-202 0 -318 135.5t-116 370.5z" />
    <glyph glyph-name="egrave" unicode="&#xe8;" horiz-adv-x="1071" 
d="M301 1509h137l199 -301h-119zM538 907q-86 0 -153 -44.5t-95 -103.5t-33.5 -92t-10.5 -112h581q-9 129 -37 197q-29 67 -97.5 111t-154.5 44zM141 490q0 243 105 376t291 133t290.5 -127t104.5 -354v-47h-686q0 -190 81.5 -289.5t239.5 -99.5q86 0 147.5 27.5t125.5 91.5
l78 -62q-79 -79 -159 -115t-198 -36q-204 0 -312 129.5t-108 372.5z" />
    <glyph glyph-name="eacute" unicode="&#xe9;" horiz-adv-x="1071" 
d="M444 1208l199 301h137l-217 -301h-119zM538 907q-86 0 -153 -44.5t-95 -103.5t-33.5 -92t-10.5 -112h581q-9 129 -37 197q-29 67 -97.5 111t-154.5 44zM141 490q0 243 105 376t291 133t290.5 -127t104.5 -354v-47h-686q0 -190 81.5 -289.5t239.5 -99.5q86 0 147.5 27.5
t125.5 91.5l78 -62q-79 -79 -159 -115t-198 -36q-204 0 -312 129.5t-108 372.5z" />
    <glyph glyph-name="ecircumflex" unicode="&#xea;" horiz-adv-x="1071" 
d="M538 907q-86 0 -153 -44.5t-95 -103.5t-33.5 -92t-10.5 -112h581q-9 129 -37 197q-29 67 -97.5 111t-154.5 44zM233 1208l252 301h111l252 -301h-117l-190 224l-191 -224h-117zM141 490q0 243 105 376t291 133t290.5 -127t104.5 -354v-47h-686q0 -190 81.5 -289.5
t239.5 -99.5q86 0 147.5 27.5t125.5 91.5l78 -62q-79 -79 -159 -115t-198 -36q-204 0 -312 129.5t-108 372.5z" />
    <glyph glyph-name="edieresis" unicode="&#xeb;" horiz-adv-x="1071" 
d="M694 1229v157h119v-157h-119zM268 1229v157h119v-157h-119zM538 907q-86 0 -153 -44.5t-95 -103.5t-33.5 -92t-10.5 -112h581q-9 129 -37 197q-29 67 -97.5 111t-154.5 44zM141 490q0 243 105 376t291 133t290.5 -127t104.5 -354v-47h-686q0 -190 81.5 -289.5
t239.5 -99.5q86 0 147.5 27.5t125.5 91.5l78 -62q-79 -79 -159 -115t-198 -36q-204 0 -312 129.5t-108 372.5z" />
    <glyph glyph-name="igrave" unicode="&#xec;" horiz-adv-x="501" 
d="M199 0v987h104v-987h-104zM-33 1509h137l199 -301h-119z" />
    <glyph glyph-name="iacute" unicode="&#xed;" horiz-adv-x="501" 
d="M199 1208l198 301h138l-218 -301h-118zM199 0v987h104v-987h-104z" />
    <glyph glyph-name="icircumflex" unicode="&#xee;" horiz-adv-x="501" 
d="M199 0v987h104v-987h-104zM-57 1208l252 301h110l252 -301h-117l-190 224l-191 -224h-116z" />
    <glyph glyph-name="idieresis" unicode="&#xef;" horiz-adv-x="501" 
d="M403 1229v157h119v-157h-119zM199 0v987h104v-987h-104zM-23 1229v157h119v-157h-119z" />
    <glyph glyph-name="eth" unicode="&#xf0;" horiz-adv-x="1077" 
d="M246 494q0 -112 16.5 -193.5t71.5 -136.5q84 -84 204 -84t205 84q55 55 71.5 136.5t16.5 193.5t-16.5 193t-71.5 136q-85 84 -205 84t-204 -84q-55 -55 -71.5 -136t-16.5 -193zM936 494q0 -274 -116 -390t-282 -116t-282 116t-115 390q-1 274 115 390t283 115
q97 0 153 -34l-137 231h-240v78h195l-109 184h109l106 -184h162v-78h-116l147 -252q80 -140 103.5 -227t23.5 -223z" />
    <glyph glyph-name="ntilde" unicode="&#xf1;" horiz-adv-x="1144" 
d="M386.5 1413.5q37.5 7.5 82.5 7.5t117 -46t109 -46t62 12.5t68 55.5l62 -60q-83 -83 -120.5 -90.5t-78.5 -7.5q-42 0 -120 46t-113 46t-59.5 -12t-67.5 -55l-62 59q83 83 120.5 90.5zM199 0v987h104v-117q111 129 283 129q172 -1 272 -97t100 -271v-631h-104v612
q0 143 -69.5 219t-202.5 76t-206 -77t-73 -218v-612h-104z" />
    <glyph glyph-name="ograve" unicode="&#xf2;" horiz-adv-x="1077" 
d="M309 1509h137l199 -301h-119zM246 494q0 -112 16.5 -193.5t71.5 -136.5q84 -84 204 -84t205 84q55 55 71.5 136.5t16.5 193.5t-16.5 193t-71.5 136q-85 84 -205 84t-204 -84q-55 -55 -71.5 -136t-16.5 -193zM141 494q-1 274 115 390t282 115q166 1 282 -115t116 -390
t-116 -390t-282 -116t-282 116t-115 390z" />
    <glyph glyph-name="oacute" unicode="&#xf3;" horiz-adv-x="1077" 
d="M442 1208l199 301h137l-217 -301h-119zM246 494q0 -112 16.5 -193.5t71.5 -136.5q84 -84 204 -84t205 84q55 55 71.5 136.5t16.5 193.5t-16.5 193t-71.5 136q-85 84 -205 84t-204 -84q-55 -55 -71.5 -136t-16.5 -193zM141 494q-1 274 115 390t282 115q166 1 282 -115
t116 -390t-116 -390t-282 -116t-282 116t-115 390z" />
    <glyph glyph-name="ocircumflex" unicode="&#xf4;" horiz-adv-x="1077" 
d="M246 494q0 -112 16.5 -193.5t71.5 -136.5q84 -84 204 -84t205 84q55 55 71.5 136.5t16.5 193.5t-16.5 193t-71.5 136q-85 84 -205 84t-204 -84q-55 -55 -71.5 -136t-16.5 -193zM231 1208l252 301h111l252 -301h-117l-190 224l-191 -224h-117zM141 494q-1 274 115 390
t282 115q166 1 282 -115t116 -390t-116 -390t-282 -116t-282 116t-115 390z" />
    <glyph glyph-name="otilde" unicode="&#xf5;" horiz-adv-x="1077" 
d="M246 494q0 -112 16.5 -193.5t71.5 -136.5q84 -84 204 -84t205 84q55 55 71.5 136.5t16.5 193.5t-16.5 193t-71.5 136q-85 84 -205 84t-204 -84q-55 -55 -71.5 -136t-16.5 -193zM343.5 1413.5q37.5 7.5 82.5 7.5t117 -46t109 -46t62 12.5t68 55.5l62 -60
q-83 -83 -120.5 -90.5t-78.5 -7.5t-119 46t-114 46q-35 0 -59.5 -12t-67.5 -55l-62 59q83 83 120.5 90.5zM141 494q-1 274 115 390t282 115q166 1 282 -115t116 -390t-116 -390t-282 -116t-282 116t-115 390z" />
    <glyph glyph-name="odieresis" unicode="&#xf6;" horiz-adv-x="1077" 
d="M692 1229v157h119v-157h-119zM266 1229v157h119v-157h-119zM246 494q0 -112 16.5 -193.5t71.5 -136.5q84 -84 204 -84t205 84q55 55 71.5 136.5t16.5 193.5t-16.5 193t-71.5 136q-85 84 -205 84t-204 -84q-55 -55 -71.5 -136t-16.5 -193zM141 494q-1 274 115 390t282 115
q166 1 282 -115t116 -390t-116 -390t-282 -116t-282 116t-115 390z" />
    <glyph glyph-name="divide" unicode="&#xf7;" 
d="M455 813v143h143v-143h-143zM455 123v143h143v-143h-143zM109 492v96h835v-96h-835z" />
    <glyph glyph-name="oslash" unicode="&#xf8;" horiz-adv-x="1077" 
d="M552 80q108 0 191 84q55 55 71.5 136.5t16.5 171.5t-5 170.5t-60 154.5l-393 -666q71 -51 179 -51zM246 516q0 -90 5 -171t60 -155l394 666q-71 51 -179 51t-192 -84q-55 -55 -71.5 -136t-16.5 -171zM141 497q-1 271 115 387t283 115q124 0 215 -61l82 139h98l-115 -192
q117 -124 117 -395q0 -270 -116 -386t-281 -116q-120 0 -215 59l-82 -137h-99l115 192q-117 124 -117 395z" />
    <glyph glyph-name="ugrave" unicode="&#xf9;" horiz-adv-x="1144" 
d="M326 1509h137l199 -301h-119zM186 356v631h105v-612q0 -143 69.5 -219t202.5 -76t206 77t73 218v612h104v-987h-104v117q-111 -129 -283 -129q-173 0 -273 97t-100 271z" />
    <glyph glyph-name="uacute" unicode="&#xfa;" horiz-adv-x="1144" 
d="M469 1208l199 301h137l-217 -301h-119zM186 356v631h105v-612q0 -143 69.5 -219t202.5 -76t206 77t73 218v612h104v-987h-104v117q-111 -129 -283 -129q-173 0 -273 97t-100 271z" />
    <glyph glyph-name="ucircumflex" unicode="&#xfb;" horiz-adv-x="1144" 
d="M258 1208l252 301h111l251 -301h-116l-191 224l-190 -224h-117zM186 356v631h105v-612q0 -143 69.5 -219t202.5 -76t206 77t73 218v612h104v-987h-104v117q-111 -129 -283 -129q-173 0 -273 97t-100 271z" />
    <glyph glyph-name="udieresis" unicode="&#xfc;" horiz-adv-x="1144" 
d="M719 1229v157h119v-157h-119zM293 1229v157h119v-157h-119zM186 356v631h105v-612q0 -143 69.5 -219t202.5 -76t206 77t73 218v612h104v-987h-104v117q-111 -129 -283 -129q-173 0 -273 97t-100 271z" />
    <glyph glyph-name="yacute" unicode="&#xfd;" horiz-adv-x="880" 
d="M344 1208l199 301h137l-217 -301h-119zM139 -446h-49v92h39q103 0 132 41t48 94l80 219l-360 987h114l297 -864l297 864h115l-459 -1255q-28 -82 -67 -115q-66 -63 -187 -63z" />
    <glyph glyph-name="thorn" unicode="&#xfe;" horiz-adv-x="1105" 
d="M303 494q0 -69 5.5 -123t23 -110.5t47.5 -94.5t81.5 -62t121.5 -24t121.5 24t81 61.5t47 95t23 111t5.5 122.5t-5.5 122.5t-23 110.5t-47 94.5t-81 61.5t-121.5 24t-121.5 -24t-81.5 -61.5t-47.5 -94.5t-23 -110.5t-5.5 -122.5zM199 -471v1929h104v-598q62 81 130.5 110
t153.5 29q165 0 251 -86q127 -127 127 -419q0 -397 -146.5 -451.5t-231.5 -54.5t-153.5 29t-130.5 110v-598h-104z" />
    <glyph glyph-name="ydieresis" unicode="&#xff;" horiz-adv-x="880" 
d="M594 1229v157h119v-157h-119zM168 1229v157h119v-157h-119zM139 -446h-49v92h39q103 0 132 41t48 94l80 219l-360 987h114l297 -864l297 864h115l-459 -1255q-28 -82 -67 -115q-66 -63 -187 -63z" />
    <glyph glyph-name="Amacron" unicode="&#x100;" horiz-adv-x="1232" 
d="M313 1638v95h607v-95h-607zM311 453h611l-306 858zM31 0l536 1458h99l536 -1458h-119l-127 354h-680l-126 -354h-119z" />
    <glyph glyph-name="amacron" unicode="&#x101;" horiz-adv-x="1073" 
d="M233 1249v94h607v-94h-607zM219 272q-1 -192 231 -192q108 0 166 15t110 64t52 185v127h-307q-252 0 -252 -199zM778 666q0 241 -256 241q-126 0 -186.5 -28.5t-108.5 -96.5l-75 66q61 85 141.5 118t206.5 33q383 0 383 -323v-676h-105v98q-62 -62 -129 -86t-175 -24
t-174.5 20.5t-113.5 69.5q-71 71 -71 199t91 203t253 75h319v111z" />
    <glyph glyph-name="Abreve" unicode="&#x102;" horiz-adv-x="1232" 
d="M311 453h611l-306 858zM616 1714q105 0 169.5 48.5t76.5 135.5h92q-29 -276 -337.5 -276t-337.5 276h92q12 -87 76 -135.5t169 -48.5zM31 0l536 1458h99l536 -1458h-119l-127 354h-680l-126 -354h-119z" />
    <glyph glyph-name="abreve" unicode="&#x103;" horiz-adv-x="1073" 
d="M219 272q-1 -192 231 -192q108 0 166 15t110 64t52 185v127h-307q-252 0 -252 -199zM500 1294q105 0 169 49t76 136h93q-29 -277 -338 -277t-338 277h92q12 -87 76.5 -136t169.5 -49zM778 666q0 241 -256 241q-126 0 -186.5 -28.5t-108.5 -96.5l-75 66q61 85 141.5 118
t206.5 33q383 0 383 -323v-676h-105v98q-62 -62 -129 -86t-175 -24t-174.5 20.5t-113.5 69.5q-71 71 -71 199t91 203t253 75h319v111z" />
    <glyph glyph-name="Aogonek" unicode="&#x104;" horiz-adv-x="1232" 
d="M936 -451l147 308h113l-131 -308h-129zM311 453h611l-306 858zM31 0l536 1458h99l536 -1458h-119l-127 354h-680l-126 -354h-119z" />
    <glyph glyph-name="aogonek" unicode="&#x105;" horiz-adv-x="1073" 
d="M631 -451l147 308h113l-131 -308h-129zM219 272q-1 -192 231 -192q108 0 166 15t110 64t52 185v127h-307q-252 0 -252 -199zM778 666q0 241 -256 241q-126 0 -186.5 -28.5t-108.5 -96.5l-75 66q61 85 141.5 118t206.5 33q383 0 383 -323v-676h-105v98q-62 -62 -129 -86
t-175 -24t-174.5 20.5t-113.5 69.5q-71 71 -71 199t91 203t253 75h319v111z" />
    <glyph glyph-name="Cacute" unicode="&#x106;" horiz-adv-x="1318" 
d="M563 1597l199 301h137l-217 -301h-119zM658 1470q206 0 337 -114t168 -312h-112q-32 153 -134 240.5t-258 87.5t-268 -112q-74 -74 -93 -178t-19 -353t19 -352.5t93 -177.5q113 -113 269 -113t259.5 88t135.5 240h108q-37 -197 -170 -311.5t-337 -114.5t-343 139
q-115 115 -130 254t-15 303t4.5 286.5t35.5 204.5t105 156q139 139 345 139z" />
    <glyph glyph-name="cacute" unicode="&#x107;" horiz-adv-x="1009" 
d="M479 1208l199 301h137l-217 -301h-119zM141 494q0 235 116 370t318 135q104 0 177 -32.5t149 -118.5l-72 -66q-63 70 -119 97.5t-135 27.5q-174 0 -262 -131q-37 -54 -52 -118t-15 -206.5t67 -240.5q88 -131 262 -131q78 0 134.5 28t119.5 97l72 -66q-76 -86 -149 -118.5
t-177 -32.5q-202 0 -318 135.5t-116 370.5z" />
    <glyph glyph-name="Ccircumflex" unicode="&#x108;" horiz-adv-x="1318" 
d="M360 1597l252 301h111l252 -301h-117l-190 224l-191 -224h-117zM658 1470q206 0 337 -114t168 -312h-112q-32 153 -134 240.5t-258 87.5t-268 -112q-74 -74 -93 -178t-19 -353t19 -352.5t93 -177.5q113 -113 269 -113t259.5 88t135.5 240h108q-37 -197 -170 -311.5
t-337 -114.5t-343 139q-115 115 -130 254t-15 303t4.5 286.5t35.5 204.5t105 156q139 139 345 139z" />
    <glyph glyph-name="ccircumflex" unicode="&#x109;" horiz-adv-x="1009" 
d="M268 1208l252 301h111l252 -301h-117l-191 224l-190 -224h-117zM141 494q0 235 116 370t318 135q104 0 177 -32.5t149 -118.5l-72 -66q-63 70 -119 97.5t-135 27.5q-174 0 -262 -131q-37 -54 -52 -118t-15 -206.5t67 -240.5q88 -131 262 -131q78 0 134.5 28t119.5 97
l72 -66q-76 -86 -149 -118.5t-177 -32.5q-202 0 -318 135.5t-116 370.5z" />
    <glyph glyph-name="Cdotaccent" unicode="&#x10a;" horiz-adv-x="1318" 
d="M604 1638v129h127v-129h-127zM658 1470q206 0 337 -114t168 -312h-112q-32 153 -134 240.5t-258 87.5t-268 -112q-74 -74 -93 -178t-19 -353t19 -352.5t93 -177.5q113 -113 269 -113t259.5 88t135.5 240h108q-37 -197 -170 -311.5t-337 -114.5t-343 139
q-115 115 -130 254t-15 303t4.5 286.5t35.5 204.5t105 156q139 139 345 139z" />
    <glyph glyph-name="cdotaccent" unicode="&#x10b;" horiz-adv-x="1009" 
d="M512 1249v129h127v-129h-127zM141 494q0 235 116 370t318 135q104 0 177 -32.5t149 -118.5l-72 -66q-63 70 -119 97.5t-135 27.5q-174 0 -262 -131q-37 -54 -52 -118t-15 -206.5t67 -240.5q88 -131 262 -131q78 0 134.5 28t119.5 97l72 -66q-76 -86 -149 -118.5
t-177 -32.5q-202 0 -318 135.5t-116 370.5z" />
    <glyph glyph-name="Ccaron" unicode="&#x10c;" horiz-adv-x="1318" 
d="M352 1898h117l190 -223l191 223h117l-252 -301h-111zM658 1470q206 0 337 -114t168 -312h-112q-32 153 -134 240.5t-258 87.5t-268 -112q-74 -74 -93 -178t-19 -353t19 -352.5t93 -177.5q113 -113 269 -113t259.5 88t135.5 240h108q-37 -197 -170 -311.5t-337 -114.5
t-343 139q-115 115 -130 254t-15 303t4.5 286.5t35.5 204.5t105 156q139 139 345 139z" />
    <glyph glyph-name="ccaron" unicode="&#x10d;" horiz-adv-x="1009" 
d="M268 1509h117l190 -223l191 223h117l-252 -301h-111zM141 494q0 235 116 370t318 135q104 0 177 -32.5t149 -118.5l-72 -66q-63 70 -119 97.5t-135 27.5q-174 0 -262 -131q-37 -54 -52 -118t-15 -206.5t67 -240.5q88 -131 262 -131q78 0 134.5 28t119.5 97l72 -66
q-76 -86 -149 -118.5t-177 -32.5q-202 0 -318 135.5t-116 370.5z" />
    <glyph glyph-name="Dcaron" unicode="&#x10e;" horiz-adv-x="1388" 
d="M387 1898h117l190 -223l191 223h116l-251 -301h-111zM336 98h352q278 0 341.5 140t71 235t8.5 136.5t1 119.5t-2 171t-25 188.5t-82 158.5q-108 113 -313 113h-352v-1262zM225 0v1458h490q231 0 363 -132t137.5 -322.5t5.5 -274.5t-3 -190t-33.5 -218.5t-105.5 -187.5
q-133 -133 -364 -133h-490z" />
    <glyph glyph-name="dcaron" unicode="&#x10f;" horiz-adv-x="1105" 
d="M1036 1155l82 303h113l-98 -303h-97zM246 494q0 -69 5.5 -122.5t23 -111t47 -95t81 -61.5t121.5 -24t121.5 24t81.5 62t47.5 94.5t23 110.5t5.5 123t-5.5 122.5t-23 110.5t-47.5 94.5t-81.5 61.5t-121.5 24t-121.5 -24t-81 -61.5t-47 -94.5t-23 -110.5t-5.5 -122.5z
M141 494q0 397 146.5 451t231.5 54t153.5 -29t130.5 -110v598h104v-1458h-104v127q-62 -81 -130.5 -110t-153.5 -29t-231.5 54.5t-146.5 451.5z" />
    <glyph glyph-name="Dcroat" unicode="&#x110;" horiz-adv-x="1411" 
d="M358 98h353q278 0 341.5 140t71 235t8.5 136.5t1 119.5t-2 171t-25 188.5t-82 158.5q-108 113 -313 113h-353v-582h365v-86h-365v-594zM82 692v86h166v680h489q232 0 365 -133t137 -322t4 -274t-2 -188.5t-33 -218t-106 -189.5q-133 -133 -365 -133h-489v692h-166z" />
    <glyph glyph-name="dcroat" unicode="&#x111;" horiz-adv-x="1126" 
d="M246 494q0 -69 5.5 -122.5t23 -111t47 -95t81 -61.5t121.5 -24t121.5 24t81.5 62t47.5 94.5t23 110.5t5.5 123t-5.5 122.5t-23 110.5t-47.5 94.5t-81.5 61.5t-121.5 24t-121.5 -24t-81 -61.5t-47 -94.5t-23 -110.5t-5.5 -122.5zM141 494q0 506 369 505q93 0 163 -29.5
t130 -109.5v316h-279v73h279v209h104v-209h133v-73h-133v-1176h-104v127q-60 -80 -130 -109.5t-154 -29.5q-165 0 -251 86q-127 128 -127 420z" />
    <glyph glyph-name="Emacron" unicode="&#x112;" horiz-adv-x="1224" 
d="M340 1638v95h606v-95h-606zM225 0v1458h885v-98h-774v-576h659v-98h-659v-588h774v-98h-885z" />
    <glyph glyph-name="emacron" unicode="&#x113;" horiz-adv-x="1071" 
d="M538 907q-86 0 -153 -44.5t-95 -103.5t-33.5 -92t-10.5 -112h581q-9 129 -37 197q-29 67 -97.5 111t-154.5 44zM231 1249v94h607v-94h-607zM141 490q0 243 105 376t291 133t290.5 -127t104.5 -354v-47h-686q0 -190 81.5 -289.5t239.5 -99.5q86 0 147.5 27.5t125.5 91.5
l78 -62q-79 -79 -159 -115t-198 -36q-204 0 -312 129.5t-108 372.5z" />
    <glyph glyph-name="Ebreve" unicode="&#x114;" horiz-adv-x="1224" 
d="M643 1714q105 0 169.5 48.5t76.5 135.5h92q-29 -276 -338 -276t-338 276h92q12 -87 76.5 -135.5t169.5 -48.5zM225 0v1458h885v-98h-774v-576h659v-98h-659v-588h774v-98h-885z" />
    <glyph glyph-name="ebreve" unicode="&#x115;" horiz-adv-x="1071" 
d="M538 907q-86 0 -153 -44.5t-95 -103.5t-33.5 -92t-10.5 -112h581q-9 129 -37 197q-29 67 -97.5 111t-154.5 44zM541 1294q105 0 169 49t76 136h93q-29 -277 -338 -277t-338 277h92q12 -87 76.5 -136t169.5 -49zM141 490q0 243 105 376t291 133t290.5 -127t104.5 -354v-47
h-686q0 -190 81.5 -289.5t239.5 -99.5q86 0 147.5 27.5t125.5 91.5l78 -62q-79 -79 -159 -115t-198 -36q-204 0 -312 129.5t-108 372.5z" />
    <glyph glyph-name="Edotaccent" unicode="&#x116;" horiz-adv-x="1224" 
d="M580 1638v129h127v-129h-127zM225 0v1458h885v-98h-774v-576h659v-98h-659v-588h774v-98h-885z" />
    <glyph glyph-name="edotaccent" unicode="&#x117;" horiz-adv-x="1071" 
d="M471 1249v129h127v-129h-127zM538 907q-86 0 -153 -44.5t-95 -103.5t-33.5 -92t-10.5 -112h581q-9 129 -37 197q-29 67 -97.5 111t-154.5 44zM141 490q0 243 105 376t291 133t290.5 -127t104.5 -354v-47h-686q0 -190 81.5 -289.5t239.5 -99.5q86 0 147.5 27.5t125.5 91.5
l78 -62q-79 -79 -159 -115t-198 -36q-204 0 -312 129.5t-108 372.5z" />
    <glyph glyph-name="Eogonek" unicode="&#x118;" horiz-adv-x="1224" 
d="M850 -451l147 308h113l-131 -308h-129zM225 0v1458h885v-98h-774v-576h659v-98h-659v-588h774v-98h-885z" />
    <glyph glyph-name="eogonek" unicode="&#x119;" horiz-adv-x="1071" 
d="M467 -451l147 308h113l-131 -308h-129zM538 907q-86 0 -153 -44.5t-95 -103.5t-33.5 -92t-10.5 -112h581q-9 129 -37 197q-29 67 -97.5 111t-154.5 44zM141 490q0 243 105 376t291 133t290.5 -127t104.5 -354v-47h-686q0 -190 81.5 -289.5t239.5 -99.5q86 0 147.5 27.5
t125.5 91.5l78 -62q-79 -79 -159 -115t-198 -36q-204 0 -312 129.5t-108 372.5z" />
    <glyph glyph-name="Ecaron" unicode="&#x11a;" horiz-adv-x="1224" 
d="M336 1898h117l190 -223l191 223h116l-252 -301h-110zM225 0v1458h885v-98h-774v-576h659v-98h-659v-588h774v-98h-885z" />
    <glyph glyph-name="ecaron" unicode="&#x11b;" horiz-adv-x="1071" 
d="M538 907q-86 0 -153 -44.5t-95 -103.5t-33.5 -92t-10.5 -112h581q-9 129 -37 197q-29 67 -97.5 111t-154.5 44zM227 1509h117l191 -223l190 223h117l-252 -301h-111zM141 490q0 243 105 376t291 133t290.5 -127t104.5 -354v-47h-686q0 -190 81.5 -289.5t239.5 -99.5
q86 0 147.5 27.5t125.5 91.5l78 -62q-79 -79 -159 -115t-198 -36q-204 0 -312 129.5t-108 372.5z" />
    <glyph glyph-name="Gcircumflex" unicode="&#x11c;" horiz-adv-x="1333" 
d="M360 1597l252 301h111l252 -301h-117l-190 224l-191 -224h-117zM656 1470q204 0 340.5 -117t168.5 -309h-110q-32 152 -135.5 240t-259.5 88t-269 -112q-74 -74 -93 -178t-19 -353t19 -352.5t93 -177.5q113 -113 277 -113q87 0 166.5 36.5t131.5 100.5t72.5 131.5
t20.5 161.5v131h-391v98h501v-237q0 -117 -26.5 -199t-94.5 -157t-169 -119.5t-211 -44.5q-216 0 -355 139q-115 115 -130 254t-15 303t4.5 286.5t35.5 204.5t105 156q139 139 343 139z" />
    <glyph glyph-name="gcircumflex" unicode="&#x11d;" horiz-adv-x="1105" 
d="M260 1208l252 301h111l251 -301h-116l-191 224l-190 -224h-117zM246 494q0 -69 5.5 -122.5t23 -111t47 -95t81 -61.5t121.5 -24t121.5 24t81.5 62t47.5 94.5t23 110.5t5.5 123t-5.5 122.5t-23 110.5t-47.5 94.5t-81.5 61.5t-121.5 24t-121.5 -24t-81 -61.5t-47 -94.5
t-23 -110.5t-5.5 -122.5zM141 494q0 397 146.5 451t231.5 54t153.5 -29t130.5 -110v127h104v-1042q0 -190 -107.5 -309t-295.5 -119q-106 0 -176 29.5t-150 101.5l70 69q65 -60 116.5 -84t139.5 -24q149 0 224 93.5t75 248.5v176q-62 -81 -130.5 -110t-153.5 -29
t-231.5 54.5t-146.5 451.5z" />
    <glyph glyph-name="Gbreve" unicode="&#x11e;" horiz-adv-x="1333" 
d="M662 1714q105 0 169 48.5t76 135.5h92q-29 -276 -337.5 -276t-337.5 276h92q12 -87 76.5 -135.5t169.5 -48.5zM656 1470q204 0 340.5 -117t168.5 -309h-110q-32 152 -135.5 240t-259.5 88t-269 -112q-74 -74 -93 -178t-19 -353t19 -352.5t93 -177.5q113 -113 277 -113
q87 0 166.5 36.5t131.5 100.5t72.5 131.5t20.5 161.5v131h-391v98h501v-237q0 -117 -26.5 -199t-94.5 -157t-169 -119.5t-211 -44.5q-216 0 -355 139q-115 115 -130 254t-15 303t4.5 286.5t35.5 204.5t105 156q139 139 343 139z" />
    <glyph glyph-name="gbreve" unicode="&#x11f;" horiz-adv-x="1105" 
d="M246 494q0 -69 5.5 -122.5t23 -111t47 -95t81 -61.5t121.5 -24t121.5 24t81.5 62t47.5 94.5t23 110.5t5.5 123t-5.5 122.5t-23 110.5t-47.5 94.5t-81.5 61.5t-121.5 24t-121.5 -24t-81 -61.5t-47 -94.5t-23 -110.5t-5.5 -122.5zM524 1294q105 0 169.5 49t76.5 136h92
q-29 -277 -338 -277t-338 277h93q12 -87 76 -136t169 -49zM141 494q0 397 146.5 451t231.5 54t153.5 -29t130.5 -110v127h104v-1042q0 -190 -107.5 -309t-295.5 -119q-106 0 -176 29.5t-150 101.5l70 69q65 -60 116.5 -84t139.5 -24q149 0 224 93.5t75 248.5v176
q-62 -81 -130.5 -110t-153.5 -29t-231.5 54.5t-146.5 451.5z" />
    <glyph glyph-name="Gdotaccent" unicode="&#x120;" horiz-adv-x="1333" 
d="M604 1638v129h127v-129h-127zM656 1470q204 0 340.5 -117t168.5 -309h-110q-32 152 -135.5 240t-259.5 88t-269 -112q-74 -74 -93 -178t-19 -353t19 -352.5t93 -177.5q113 -113 277 -113q87 0 166.5 36.5t131.5 100.5t72.5 131.5t20.5 161.5v131h-391v98h501v-237
q0 -117 -26.5 -199t-94.5 -157t-169 -119.5t-211 -44.5q-216 0 -355 139q-115 115 -130 254t-15 303t4.5 286.5t35.5 204.5t105 156q139 139 343 139z" />
    <glyph glyph-name="gdotaccent" unicode="&#x121;" horiz-adv-x="1105" 
d="M461 1249v129h127v-129h-127zM246 494q0 -69 5.5 -122.5t23 -111t47 -95t81 -61.5t121.5 -24t121.5 24t81.5 62t47.5 94.5t23 110.5t5.5 123t-5.5 122.5t-23 110.5t-47.5 94.5t-81.5 61.5t-121.5 24t-121.5 -24t-81 -61.5t-47 -94.5t-23 -110.5t-5.5 -122.5zM141 494
q0 397 146.5 451t231.5 54t153.5 -29t130.5 -110v127h104v-1042q0 -190 -107.5 -309t-295.5 -119q-106 0 -176 29.5t-150 101.5l70 69q65 -60 116.5 -84t139.5 -24q149 0 224 93.5t75 248.5v176q-62 -81 -130.5 -110t-153.5 -29t-231.5 54.5t-146.5 451.5z" />
    <glyph glyph-name="Gcommaaccent" unicode="&#x122;" horiz-adv-x="1333" 
d="M473 -451l148 308h112l-131 -308h-129zM656 1470q204 0 340.5 -117t168.5 -309h-110q-32 152 -135.5 240t-259.5 88t-269 -112q-74 -74 -93 -178t-19 -353t19 -352.5t93 -177.5q113 -113 277 -113q87 0 166.5 36.5t131.5 100.5t72.5 131.5t20.5 161.5v131h-391v98h501
v-237q0 -117 -26.5 -199t-94.5 -157t-169 -119.5t-211 -44.5q-216 0 -355 139q-115 115 -130 254t-15 303t4.5 286.5t35.5 204.5t105 156q139 139 343 139z" />
    <glyph glyph-name="gcommaaccent" unicode="&#x123;" horiz-adv-x="1105" 
d="M457 1208l198 301h138l-218 -301h-118zM246 494q0 -69 5.5 -122.5t23 -111t47 -95t81 -61.5t121.5 -24t121.5 24t81.5 62t47.5 94.5t23 110.5t5.5 123t-5.5 122.5t-23 110.5t-47.5 94.5t-81.5 61.5t-121.5 24t-121.5 -24t-81 -61.5t-47 -94.5t-23 -110.5t-5.5 -122.5z
M141 494q0 397 146.5 451t231.5 54t153.5 -29t130.5 -110v127h104v-1042q0 -190 -107.5 -309t-295.5 -119q-106 0 -176 29.5t-150 101.5l70 69q65 -60 116.5 -84t139.5 -24q149 0 224 93.5t75 248.5v176q-62 -81 -130.5 -110t-153.5 -29t-231.5 54.5t-146.5 451.5z" />
    <glyph glyph-name="Hcircumflex" unicode="&#x124;" horiz-adv-x="1431" 
d="M410 1597l252 301h110l252 -301h-117l-190 224l-191 -224h-116zM225 0v1458h111v-674h760v674h110v-1458h-110v686h-760v-686h-111z" />
    <glyph glyph-name="hcircumflex" unicode="&#x125;" horiz-adv-x="1144" 
d="M199 0v1458h104v-588q111 129 286 129t272 -98t97 -270v-631h-104v612q0 143 -69 219t-203 76t-206.5 -76.5t-72.5 -218.5v-612h-104zM-55 1597l252 301h110l252 -301h-117l-190 224l-191 -224h-116z" />
    <glyph glyph-name="Hbar" unicode="&#x126;" horiz-adv-x="1456" 
d="M348 784h760v275h-760v-275zM82 1059v86h156v313h110v-313h760v313h111v-313h155v-86h-155v-1059h-111v686h-760v-686h-110v1059h-156z" />
    <glyph glyph-name="hbar" unicode="&#x127;" horiz-adv-x="1165" 
d="M86 1176v73h133v209h105v-209h278v-73h-278v-306q66 69 132.5 99t159.5 30q167 0 265 -99t98 -269v-631h-105v612q0 143 -70 219t-202 76t-205 -77.5t-73 -217.5v-612h-105v1176h-133z" />
    <glyph glyph-name="Itilde" unicode="&#x128;" horiz-adv-x="561" 
d="M225 0v1458h111v-1458h-111zM85 1802.5q37 7.5 81 7.5t117 -46q75 -46 111 -46t61.5 12.5t68.5 55.5l62 -60q-82 -82 -120 -90t-79 -8t-120 46q-77 46 -113 46t-60 -12t-67 -55l-62 59q83 83 120 90.5z" />
    <glyph glyph-name="itilde" unicode="&#x129;" horiz-adv-x="501" 
d="M199 0v987h104v-987h-104zM61 1413.5q37 7.5 82 7.5t117 -46t109 -46t62.5 12.5t68.5 55.5l61 -60q-83 -83 -120.5 -90.5t-78.5 -7.5t-119 46q-77 46 -113 46t-60.5 -12t-67.5 -55l-61 59q83 83 120 90.5z" />
    <glyph glyph-name="Imacron" unicode="&#x12a;" horiz-adv-x="561" 
d="M225 0v1458h111v-1458h-111zM-23 1638v95h607v-95h-607z" />
    <glyph glyph-name="imacron" unicode="&#x12b;" horiz-adv-x="501" 
d="M199 0v987h104v-987h-104zM-51 1249v94h606v-94h-606z" />
    <glyph glyph-name="Ibreve" unicode="&#x12c;" horiz-adv-x="561" 
d="M225 0v1458h111v-1458h-111zM281 1714q105 0 169 48.5t76 135.5h92q-29 -276 -337.5 -276t-337.5 276h92q12 -87 76.5 -135.5t169.5 -48.5z" />
    <glyph glyph-name="ibreve" unicode="&#x12d;" horiz-adv-x="501" 
d="M199 0v987h104v-987h-104zM250 1294q105 0 169.5 49t76.5 136h92q-29 -277 -338 -277t-338 277h92q12 -87 76.5 -136t169.5 -49z" />
    <glyph glyph-name="Iogonek" unicode="&#x12e;" horiz-adv-x="561" 
d="M225 0v1458h111v-1458h-111zM78 -451l147 308h113l-131 -308h-129z" />
    <glyph glyph-name="iogonek" unicode="&#x12f;" horiz-adv-x="501" 
d="M199 0v987h104v-987h-104zM186 1329v129h129v-129h-129zM51 -451l148 308h112l-131 -308h-129z" />
    <glyph glyph-name="Idotaccent" unicode="&#x130;" horiz-adv-x="561" 
d="M225 0v1458h111v-1458h-111zM217 1638v129h127v-129h-127z" />
    <glyph glyph-name="dotlessi" unicode="&#x131;" horiz-adv-x="501" 
d="M199 0v987h104v-987h-104z" />
    <glyph glyph-name="IJ" unicode="&#x132;" horiz-adv-x="1581" 
d="M942 86q158 0 241 94.5t83 272.5v1005h110v-1028q0 -200 -118 -321t-314 -121t-321 125l75 75q50 -50 103 -76t141 -26zM225 0v1458h111v-1458h-111z" />
    <glyph glyph-name="ij" unicode="&#x133;" horiz-adv-x="1003" 
d="M688 1329v129h129v-129h-129zM477 -379h72q85 0 118 39t33 127v1200h105v-1202q0 -120 -60 -188t-178 -68h-90v92zM199 0v987h104v-987h-104zM186 1329v129h129v-129h-129z" />
    <glyph glyph-name="Jcircumflex" unicode="&#x134;" horiz-adv-x="1019" 
d="M453 1597l252 301h110l252 -301h-117l-190 224l-191 -224h-116zM381 86q158 0 241 94.5t83 272.5v1005h110v-1028q0 -200 -118.5 -321t-314.5 -121t-321 125l76 75q50 -50 103 -76t141 -26z" />
    <glyph glyph-name="jcircumflex" unicode="&#x135;" horiz-adv-x="501" 
d="M-25 -379h72q85 0 118.5 39t33.5 127v1200h104v-1202q0 -121 -59.5 -188.5t-177.5 -67.5h-91v92zM-57 1208l252 301h110l252 -301h-117l-190 224l-191 -224h-116z" />
    <glyph glyph-name="Kcommaaccent" unicode="&#x136;" horiz-adv-x="1320" 
d="M520 -451l148 308h112l-131 -308h-129zM225 0v1458h111v-911l739 911h133l-450 -557l526 -901h-131l-469 817l-348 -422v-395h-111z" />
    <glyph glyph-name="kcommaaccent" unicode="&#x137;" horiz-adv-x="1079" 
d="M397 -451l148 308h112l-131 -308h-129zM199 0v1458h104v-1028l490 557h133l-326 -369l397 -618h-129l-340 543l-225 -260v-283h-104z" />
    <glyph glyph-name="kgreenlandic" unicode="&#x138;" horiz-adv-x="1079" 
d="M199 0v987h104v-557l490 557h133l-326 -369l397 -618h-129l-340 543l-225 -260v-283h-104z" />
    <glyph glyph-name="Lacute" unicode="&#x139;" horiz-adv-x="1171" 
d="M225 0v1458h111v-1360h774v-98h-885zM211 1597l199 301h137l-217 -301h-119z" />
    <glyph glyph-name="lacute" unicode="&#x13a;" horiz-adv-x="587" 
d="M195 1597l198 301h137l-217 -301h-118zM195 256v1202h104v-1200q0 -88 33.5 -127t118.5 -39h71v-92h-90q-118 0 -177.5 67.5t-59.5 188.5z" />
    <glyph glyph-name="Lcommaaccent" unicode="&#x13b;" horiz-adv-x="1171" 
d="M444 -451l148 308h113l-132 -308h-129zM225 0v1458h111v-1360h774v-98h-885z" />
    <glyph glyph-name="lcommaaccent" unicode="&#x13c;" horiz-adv-x="587" 
d="M195 256v1202h104v-1200q0 -88 33.5 -127t118.5 -39h71v-92h-90q-118 0 -177.5 67.5t-59.5 188.5zM154 -451l147 308h113l-131 -308h-129z" />
    <glyph glyph-name="Lcaron" unicode="&#x13d;" horiz-adv-x="1171" 
d="M588 1155l82 303h112l-98 -303h-96zM225 0v1458h111v-1360h774v-98h-885z" />
    <glyph glyph-name="lcaron" unicode="&#x13e;" horiz-adv-x="587" 
d="M426 1155l82 303h113l-99 -303h-96zM195 256v1202h104v-1200q0 -88 33.5 -127t118.5 -39h71v-92h-90q-118 0 -177.5 67.5t-59.5 188.5z" />
    <glyph glyph-name="Ldot" unicode="&#x13f;" horiz-adv-x="1171" 
d="M813 670v129h127v-129h-127zM225 0v1458h111v-1360h774v-98h-885z" />
    <glyph glyph-name="ldot" unicode="&#x140;" horiz-adv-x="600" 
d="M483 475v129h127v-129h-127zM195 256v1202h104v-1200q0 -88 33.5 -127t118.5 -39h71v-92h-90q-118 0 -177.5 67.5t-59.5 188.5z" />
    <glyph glyph-name="Lslash" unicode="&#x141;" horiz-adv-x="1183" 
d="M238 1458h110v-663l336 213v-99l-336 -213v-598h774v-98h-884v627l-156 -99v99l156 98v733z" />
    <glyph glyph-name="lslash" unicode="&#x142;" horiz-adv-x="630" 
d="M217 1458h105v-571l180 112v-92l-180 -112v-537q0 -88 33 -127t118 -39h72v-92h-90q-118 0 -178 68t-60 188v473l-135 -84v92l135 84v637z" />
    <glyph glyph-name="Nacute" unicode="&#x143;" horiz-adv-x="1513" 
d="M659 1597l199 301h137l-217 -301h-119zM225 0v1458h111l842 -1263v1263h110v-1458h-110l-842 1268v-1268h-111z" />
    <glyph glyph-name="nacute" unicode="&#x144;" horiz-adv-x="1144" 
d="M475 1208l199 301h137l-217 -301h-119zM199 0v987h104v-117q111 129 283 129q172 -1 272 -97t100 -271v-631h-104v612q0 143 -69.5 219t-202.5 76t-206 -77t-73 -218v-612h-104z" />
    <glyph glyph-name="Ncommaaccent" unicode="&#x145;" horiz-adv-x="1513" 
d="M594 -451l147 308h113l-131 -308h-129zM225 0v1458h111l842 -1263v1263h110v-1458h-110l-842 1268v-1268h-111z" />
    <glyph glyph-name="ncommaaccent" unicode="&#x146;" horiz-adv-x="1144" 
d="M430 -451l148 308h112l-131 -308h-129zM199 0v987h104v-117q111 129 283 129q172 -1 272 -97t100 -271v-631h-104v612q0 143 -69.5 219t-202.5 76t-206 -77t-73 -218v-612h-104z" />
    <glyph glyph-name="Ncaron" unicode="&#x147;" horiz-adv-x="1513" 
d="M449 1898h116l191 -223l190 223h117l-252 -301h-111zM225 0v1458h111l842 -1263v1263h110v-1458h-110l-842 1268v-1268h-111z" />
    <glyph glyph-name="ncaron" unicode="&#x148;" horiz-adv-x="1144" 
d="M264 1509h117l190 -223l191 223h117l-252 -301h-111zM199 0v987h104v-117q111 129 283 129q172 -1 272 -97t100 -271v-631h-104v612q0 143 -69.5 219t-202.5 76t-206 -77t-73 -218v-612h-104z" />
    <glyph glyph-name="napostrophe" unicode="&#x149;" horiz-adv-x="1144" 
d="M199 0v987h104v-117q111 129 283 129q172 -1 272 -97t100 -271v-631h-104v612q0 143 -69.5 219t-202.5 76t-206 -77t-73 -218v-612h-104zM90 1458h109v-262l-109 -115v377z" />
    <glyph glyph-name="Eng" unicode="&#x14a;" horiz-adv-x="1513" 
d="M225 0v1458h111l842 -1263v1263h110v-1653q0 -121 -59.5 -188.5t-177.5 -67.5h-90v93h65q85 0 118.5 38.5t33.5 126.5v193l-842 1268v-1268h-111z" />
    <glyph glyph-name="eng" unicode="&#x14b;" horiz-adv-x="1144" 
d="M199 0v987h104v-117q111 129 283 129q172 -1 272 -97t100 -271v-826q0 -121 -59.5 -188.5t-177.5 -67.5h-90v93h71q85 0 118.5 38.5t33.5 126.5v805q0 143 -69.5 219t-202.5 76t-206 -77t-73 -218v-612h-104z" />
    <glyph glyph-name="Omacron" unicode="&#x14c;" horiz-adv-x="1335" 
d="M365 1638v95h606v-95h-606zM279 729q0 -249 19 -352.5t93 -177.5q113 -113 277 -113t276 113q74 74 93.5 178t19.5 352t-19.5 352.5t-93.5 178.5q-112 112 -276 112t-277 -112q-74 -74 -93 -178t-19 -353zM668 1470q216 0 354 -139q115 -115 130 -254t15 -303
t-4.5 -286.5t-35.5 -204.5t-105 -156q-138 -139 -354 -139t-355 139q-115 115 -130 254t-15 303t4.5 286.5t35.5 204.5t105 156q139 139 355 139z" />
    <glyph glyph-name="omacron" unicode="&#x14d;" horiz-adv-x="1077" 
d="M246 494q0 -112 16.5 -193.5t71.5 -136.5q84 -84 204 -84t205 84q55 55 71.5 136.5t16.5 193.5t-16.5 193t-71.5 136q-85 84 -205 84t-204 -84q-55 -55 -71.5 -136t-16.5 -193zM236 1249v94h606v-94h-606zM141 494q-1 274 115 390t282 115q166 1 282 -115t116 -390
t-116 -390t-282 -116t-282 116t-115 390z" />
    <glyph glyph-name="Obreve" unicode="&#x14e;" horiz-adv-x="1335" 
d="M668 1714q105 0 169 48.5t76 135.5h93q-29 -276 -338 -276t-338 276h92q12 -87 76.5 -135.5t169.5 -48.5zM279 729q0 -249 19 -352.5t93 -177.5q113 -113 277 -113t276 113q74 74 93.5 178t19.5 352t-19.5 352.5t-93.5 178.5q-112 112 -276 112t-277 -112
q-74 -74 -93 -178t-19 -353zM668 1470q216 0 354 -139q115 -115 130 -254t15 -303t-4.5 -286.5t-35.5 -204.5t-105 -156q-138 -139 -354 -139t-355 139q-115 115 -130 254t-15 303t4.5 286.5t35.5 204.5t105 156q139 139 355 139z" />
    <glyph glyph-name="obreve" unicode="&#x14f;" horiz-adv-x="1077" 
d="M539 1264q167 0 182 163h104q-21 -245 -287 -245t-286 245h104q16 -163 183 -163zM246 494q0 -112 16.5 -193.5t71.5 -136.5q84 -84 204 -84t205 84q55 55 71.5 136.5t16.5 193.5t-16.5 193t-71.5 136q-85 84 -205 84t-204 -84q-55 -55 -71.5 -136t-16.5 -193zM141 494
q-1 274 115 390t282 115q166 1 282 -115t116 -390t-116 -390t-282 -116t-282 116t-115 390z" />
    <glyph glyph-name="Ohungarumlaut" unicode="&#x150;" horiz-adv-x="1335" 
d="M723 1597l199 301h137l-219 -301h-117zM422 1597l199 301h137l-217 -301h-119zM279 729q0 -249 19 -352.5t93 -177.5q113 -113 277 -113t276 113q74 74 93.5 178t19.5 352t-19.5 352.5t-93.5 178.5q-112 112 -276 112t-277 -112q-74 -74 -93 -178t-19 -353zM668 1470
q216 0 354 -139q115 -115 130 -254t15 -303t-4.5 -286.5t-35.5 -204.5t-105 -156q-138 -139 -354 -139t-355 139q-115 115 -130 254t-15 303t4.5 286.5t35.5 204.5t105 156q139 139 355 139z" />
    <glyph glyph-name="ohungarumlaut" unicode="&#x151;" horiz-adv-x="1077" 
d="M594 1208l199 301h137l-219 -301h-117zM293 1208l199 301h137l-217 -301h-119zM246 494q0 -112 16.5 -193.5t71.5 -136.5q84 -84 204 -84t205 84q55 55 71.5 136.5t16.5 193.5t-16.5 193t-71.5 136q-85 84 -205 84t-204 -84q-55 -55 -71.5 -136t-16.5 -193zM141 494
q-1 274 115 390t282 115q166 1 282 -115t116 -390t-116 -390t-282 -116t-282 116t-115 390z" />
    <glyph glyph-name="OE" unicode="&#x152;" horiz-adv-x="2041" 
d="M279 729q0 -249 19 -352.5t93 -177.5q113 -113 277 -113t276 113q74 74 93.5 178t19.5 352t-19.5 352.5t-93.5 178.5q-112 112 -276 112t-277 -112q-74 -74 -93 -178t-19 -353zM1927 96v-96h-870v174q-72 -91 -173.5 -138.5t-215.5 -47.5q-216 0 -355 139
q-115 115 -130 254t-15 303t4.5 286.5t35.5 204.5t105 156q139 139 367 139t377 -186v174h864v-96h-756l2 -584h641v-86h-641l-2 -596h762z" />
    <glyph glyph-name="oe" unicode="&#x153;" horiz-adv-x="1761" 
d="M1227 907q-87 0 -157 -45t-92 -105t-30 -97t-12 -105h582q-5 79 -10.5 112t-24.5 74q-32 78 -100.5 122t-155.5 44zM246 494q0 -112 16.5 -193.5t71.5 -136.5q84 -84 204 -84t205 84q55 55 71.5 136.5t16.5 193.5t-16.5 193t-71.5 136q-85 84 -205 84t-204 -84
q-55 -55 -71.5 -136t-16.5 -193zM539 -12q-167 0 -283 116t-115 390q-1 274 115 390t283 115q118 0 209.5 -56t138.5 -159q47 104 134.5 159.5t205.5 55.5q186 0 290.5 -127t104.5 -354v-47h-686q0 -190 81.5 -289.5t239.5 -99.5q86 0 147.5 27.5t125.5 91.5l78 -62
q-79 -79 -159 -115t-198 -36q-262 0 -364 215q-47 -103 -139 -159t-209 -56z" />
    <glyph glyph-name="Racute" unicode="&#x154;" horiz-adv-x="1345" 
d="M575 1597l199 301h137l-217 -301h-119zM336 770h430q147 0 234 74t87 221t-87 221t-234 74h-430v-590zM225 0v1458h555q185 0 301.5 -103t116.5 -277t-90 -275.5t-246 -128.5l352 -674h-129l-348 672h-401v-672h-111z" />
    <glyph glyph-name="racute" unicode="&#x155;" horiz-adv-x="837" 
d="M324 1208l198 301h137l-217 -301h-118zM199 0v987h104v-131q42 67 120.5 105t160.5 38t137.5 -21t107.5 -73l-75 -76q-44 44 -84.5 61t-102.5 17q-122 0 -193 -87t-71 -212v-608h-104z" />
    <glyph glyph-name="Rcommaaccent" unicode="&#x156;" horiz-adv-x="1345" 
d="M528 -451l148 308h112l-131 -308h-129zM336 770h430q147 0 234 74t87 221t-87 221t-234 74h-430v-590zM225 0v1458h555q185 0 301.5 -103t116.5 -277t-90 -275.5t-246 -128.5l352 -674h-129l-348 672h-401v-672h-111z" />
    <glyph glyph-name="rcommaaccent" unicode="&#x157;" horiz-adv-x="837" 
d="M199 0v987h104v-131q42 67 120.5 105t160.5 38t137.5 -21t107.5 -73l-75 -76q-44 44 -84.5 61t-102.5 17q-122 0 -193 -87t-71 -212v-608h-104zM49 -451l148 308h112l-131 -308h-129z" />
    <glyph glyph-name="Rcaron" unicode="&#x158;" horiz-adv-x="1345" 
d="M365 1898h116l191 -223l190 223h117l-252 -301h-111zM336 770h430q147 0 234 74t87 221t-87 221t-234 74h-430v-590zM225 0v1458h555q185 0 301.5 -103t116.5 -277t-90 -275.5t-246 -128.5l352 -674h-129l-348 672h-401v-672h-111z" />
    <glyph glyph-name="rcaron" unicode="&#x159;" horiz-adv-x="837" 
d="M199 0v987h104v-131q42 67 120.5 105t160.5 38t137.5 -21t107.5 -73l-75 -76q-44 44 -84.5 61t-102.5 17q-122 0 -193 -87t-71 -212v-608h-104zM113 1509h116l191 -223l190 223h117l-252 -301h-110z" />
    <glyph glyph-name="Sacute" unicode="&#x15a;" horiz-adv-x="1202" 
d="M504 1597l198 301h138l-217 -301h-119zM616 86q154 0 254.5 79t100.5 219t-80 208q-38 33 -80 48.5t-131 29.5l-170 26q-167 24 -260 105q-115 95 -115 275t121.5 287t331.5 107q132 0 228 -36.5t192 -120.5l-72 -72q-71 67 -152 101t-221 34t-229.5 -80.5t-89.5 -215.5
q0 -134 75 -198t207 -83l170 -27q100 -15 154.5 -36t105.5 -64q125 -110 125 -288t-131.5 -287t-359.5 -109q-159 0 -272 45.5t-214 146.5l78 78q97 -97 188.5 -134.5t245.5 -37.5z" />
    <glyph glyph-name="sacute" unicode="&#x15b;" horiz-adv-x="1011" 
d="M410 1208l198 301h137l-217 -301h-118zM498 80q297 0 297 201q0 78 -45 117t-144 48l-164 15q-297 24 -297 258q0 129 96.5 204.5t280.5 75.5t324 -104l-70 -70q-116 84 -258 84q-270 0 -270 -190q0 -77 48 -116t153 -50l159 -14q218 -23 253.5 -105.5t35.5 -152.5
q0 -135 -106 -214t-289 -79q-253 0 -400 141l72 72q115 -121 324 -121z" />
    <glyph glyph-name="Scircumflex" unicode="&#x15c;" horiz-adv-x="1202" 
d="M289 1597l252 301h110l252 -301h-117l-190 224l-190 -224h-117zM616 86q154 0 254.5 79t100.5 219t-80 208q-38 33 -80 48.5t-131 29.5l-170 26q-167 24 -260 105q-115 95 -115 275t121.5 287t331.5 107q132 0 228 -36.5t192 -120.5l-72 -72q-71 67 -152 101t-221 34
t-229.5 -80.5t-89.5 -215.5q0 -134 75 -198t207 -83l170 -27q100 -15 154.5 -36t105.5 -64q125 -110 125 -288t-131.5 -287t-359.5 -109q-159 0 -272 45.5t-214 146.5l78 78q97 -97 188.5 -134.5t245.5 -37.5z" />
    <glyph glyph-name="scircumflex" unicode="&#x15d;" horiz-adv-x="1011" 
d="M205 1208l252 301h110l252 -301h-117l-190 224l-190 -224h-117zM498 80q297 0 297 201q0 78 -45 117t-144 48l-164 15q-297 24 -297 258q0 129 96.5 204.5t280.5 75.5t324 -104l-70 -70q-116 84 -258 84q-270 0 -270 -190q0 -77 48 -116t153 -50l159 -14
q218 -23 253.5 -105.5t35.5 -152.5q0 -135 -106 -214t-289 -79q-253 0 -400 141l72 72q115 -121 324 -121z" />
    <glyph glyph-name="Scedilla" unicode="&#x15e;" horiz-adv-x="1202" 
d="M395 -451l148 308h112l-131 -308h-129zM616 86q154 0 254.5 79t100.5 219t-80 208q-38 33 -80 48.5t-131 29.5l-170 26q-167 24 -260 105q-115 95 -115 275t121.5 287t331.5 107q132 0 228 -36.5t192 -120.5l-72 -72q-71 67 -152 101t-221 34t-229.5 -80.5t-89.5 -215.5
q0 -134 75 -198t207 -83l170 -27q100 -15 154.5 -36t105.5 -64q125 -110 125 -288t-131.5 -287t-359.5 -109q-159 0 -272 45.5t-214 146.5l78 78q97 -97 188.5 -134.5t245.5 -37.5z" />
    <glyph glyph-name="scedilla" unicode="&#x15f;" horiz-adv-x="1011" 
d="M307 -451l148 308h112l-131 -308h-129zM498 80q297 0 297 201q0 78 -45 117t-144 48l-164 15q-297 24 -297 258q0 129 96.5 204.5t280.5 75.5t324 -104l-70 -70q-116 84 -258 84q-270 0 -270 -190q0 -77 48 -116t153 -50l159 -14q218 -23 253.5 -105.5t35.5 -152.5
q0 -135 -106 -214t-289 -79q-253 0 -400 141l72 72q115 -121 324 -121z" />
    <glyph glyph-name="Scaron" unicode="&#x160;" horiz-adv-x="1202" 
d="M281 1898h116l191 -223l190 223h117l-252 -301h-111zM616 86q154 0 254.5 79t100.5 219t-80 208q-38 33 -80 48.5t-131 29.5l-170 26q-167 24 -260 105q-115 95 -115 275t121.5 287t331.5 107q132 0 228 -36.5t192 -120.5l-72 -72q-71 67 -152 101t-221 34t-229.5 -80.5
t-89.5 -215.5q0 -134 75 -198t207 -83l170 -27q100 -15 154.5 -36t105.5 -64q125 -110 125 -288t-131.5 -287t-359.5 -109q-159 0 -272 45.5t-214 146.5l78 78q97 -97 188.5 -134.5t245.5 -37.5z" />
    <glyph glyph-name="scaron" unicode="&#x161;" horiz-adv-x="1011" 
d="M193 1509h116l191 -223l190 223h117l-252 -301h-111zM498 80q297 0 297 201q0 78 -45 117t-144 48l-164 15q-297 24 -297 258q0 129 96.5 204.5t280.5 75.5t324 -104l-70 -70q-116 84 -258 84q-270 0 -270 -190q0 -77 48 -116t153 -50l159 -14q218 -23 253.5 -105.5
t35.5 -152.5q0 -135 -106 -214t-289 -79q-253 0 -400 141l72 72q115 -121 324 -121z" />
    <glyph glyph-name="Tcommaaccent" unicode="&#x162;" horiz-adv-x="1103" 
d="M348 -451l148 308h112l-131 -308h-129zM61 1360v98h981v-98h-436v-1360h-110v1360h-435z" />
    <glyph glyph-name="tcommaaccent" unicode="&#x163;" horiz-adv-x="665" 
d="M193 -451l147 308h113l-131 -308h-129zM88 909v78h135v316h105v-316h223v-78h-223v-653q0 -164 151 -164h72v-92h-90q-114 0 -176 71t-62 187v651h-135z" />
    <glyph glyph-name="Tcaron" unicode="&#x164;" horiz-adv-x="1103" 
d="M244 1898h116l191 -223l190 223h117l-252 -301h-110zM61 1360v98h981v-98h-436v-1360h-110v1360h-435z" />
    <glyph glyph-name="tcaron" unicode="&#x165;" horiz-adv-x="665" 
d="M457 1155l82 303h112l-98 -303h-96zM88 909v78h135v316h105v-316h223v-78h-223v-653q0 -164 151 -164h72v-92h-90q-114 0 -176 71t-62 187v651h-135z" />
    <glyph glyph-name="Tbar" unicode="&#x166;" horiz-adv-x="1103" 
d="M61 1360v98h981v-98h-436v-582h264v-86h-264v-692h-110v692h-267v86h267v582h-435z" />
    <glyph glyph-name="tbar" unicode="&#x167;" horiz-adv-x="665" 
d="M88 502v78h135v329h-135v78h135v316h105v-316h223v-78h-223v-329h223v-78h-223v-246q0 -164 151 -164h72v-92h-90q-114 0 -176 71t-62 187v244h-135z" />
    <glyph glyph-name="Utilde" unicode="&#x168;" horiz-adv-x="1409" 
d="M515.5 1802.5q37.5 7.5 82.5 7.5t117 -46t109 -46t62 12.5t68 55.5l62 -60q-83 -83 -120.5 -90.5t-78.5 -7.5t-119 46t-114 46q-35 0 -59.5 -12t-67.5 -55l-62 59q83 83 120.5 90.5zM205 473v985h110v-971q0 -182 106.5 -291.5t283.5 -109.5t283 109.5t106 291.5v971h110
v-985q0 -214 -139.5 -349.5t-359.5 -135.5t-360 135.5t-140 349.5z" />
    <glyph glyph-name="utilde" unicode="&#x169;" horiz-adv-x="1144" 
d="M376 1413.5q37 7.5 81 7.5t117 -46q74 -46 110 -46t62 12.5t69 55.5l62 -60q-82 -82 -120 -90t-79 -8q-42 0 -120 46t-114 46t-60 -12t-67 -55l-61 59q83 83 120 90.5zM186 356v631h105v-612q0 -143 69.5 -219t202.5 -76t206 77t73 218v612h104v-987h-104v117
q-111 -129 -283 -129q-173 0 -273 97t-100 271z" />
    <glyph glyph-name="Umacron" unicode="&#x16a;" horiz-adv-x="1409" 
d="M401 1638v95h607v-95h-607zM205 473v985h110v-971q0 -182 106.5 -291.5t283.5 -109.5t283 109.5t106 291.5v971h110v-985q0 -214 -139.5 -349.5t-359.5 -135.5t-360 135.5t-140 349.5z" />
    <glyph glyph-name="umacron" unicode="&#x16b;" horiz-adv-x="1144" 
d="M268 1249v94h606v-94h-606zM186 356v631h105v-612q0 -143 69.5 -219t202.5 -76t206 77t73 218v612h104v-987h-104v117q-111 -129 -283 -129q-173 0 -273 97t-100 271z" />
    <glyph glyph-name="Ubreve" unicode="&#x16c;" horiz-adv-x="1409" 
d="M705 1714q105 0 169 48.5t76 135.5h92q-29 -276 -337.5 -276t-337.5 276h92q12 -87 76.5 -135.5t169.5 -48.5zM205 473v985h110v-971q0 -182 106.5 -291.5t283.5 -109.5t283 109.5t106 291.5v971h110v-985q0 -214 -139.5 -349.5t-359.5 -135.5t-360 135.5t-140 349.5z
" />
    <glyph glyph-name="ubreve" unicode="&#x16d;" horiz-adv-x="1144" 
d="M563 1294q105 0 169.5 49t76.5 136h92q-29 -277 -338 -277t-338 277h92q12 -87 76.5 -136t169.5 -49zM186 356v631h105v-612q0 -143 69.5 -219t202.5 -76t206 77t73 218v612h104v-987h-104v117q-111 -129 -283 -129q-173 0 -273 97t-100 271z" />
    <glyph glyph-name="Uring" unicode="&#x16e;" horiz-adv-x="1409" 
d="M555 1776q0 -62 44.5 -106t105.5 -44t105 44t44 106t-43.5 104.5t-105.5 42.5t-106 -42.5t-44 -104.5zM471 1776q0 97 68.5 165t165.5 68t165 -68t68 -165t-69 -166.5t-165 -69.5t-164.5 69.5t-68.5 166.5zM205 473v985h110v-971q0 -182 106.5 -291.5t283.5 -109.5
t283 109.5t106 291.5v971h110v-985q0 -214 -139.5 -349.5t-359.5 -135.5t-360 135.5t-140 349.5z" />
    <glyph glyph-name="uring" unicode="&#x16f;" horiz-adv-x="1144" 
d="M422 1386q0 -62 44 -105.5t106 -43.5t105.5 44t43.5 105t-44 104.5t-106 43.5t-105.5 -43t-43.5 -105zM338 1386q0 97 68 165.5t165 68.5t165.5 -68.5t68.5 -165.5t-68.5 -166t-165.5 -69t-165 69t-68 166zM186 356v631h105v-612q0 -143 69.5 -219t202.5 -76t206 77
t73 218v612h104v-987h-104v117q-111 -129 -283 -129q-173 0 -273 97t-100 271z" />
    <glyph glyph-name="Uhungarumlaut" unicode="&#x170;" horiz-adv-x="1409" 
d="M760 1597l198 301h138l-219 -301h-117zM459 1597l198 301h138l-217 -301h-119zM205 473v985h110v-971q0 -182 106.5 -291.5t283.5 -109.5t283 109.5t106 291.5v971h110v-985q0 -214 -139.5 -349.5t-359.5 -135.5t-360 135.5t-140 349.5z" />
    <glyph glyph-name="uhungarumlaut" unicode="&#x171;" horiz-adv-x="1144" 
d="M627 1208l198 301h138l-220 -301h-116zM326 1208l198 301h138l-218 -301h-118zM186 356v631h105v-612q0 -143 69.5 -219t202.5 -76t206 77t73 218v612h104v-987h-104v117q-111 -129 -283 -129q-173 0 -273 97t-100 271z" />
    <glyph glyph-name="Uogonek" unicode="&#x172;" horiz-adv-x="1409" 
d="M731 -451l148 308h112l-131 -308h-129zM205 473v985h110v-971q0 -182 106.5 -291.5t283.5 -109.5t283 109.5t106 291.5v971h110v-985q0 -214 -139.5 -349.5t-359.5 -135.5t-360 135.5t-140 349.5z" />
    <glyph glyph-name="uogonek" unicode="&#x173;" horiz-adv-x="1144" 
d="M694 -451l148 308h112l-131 -308h-129zM186 356v631h105v-612q0 -143 69.5 -219t202.5 -76t206 77t73 218v612h104v-987h-104v117q-111 -129 -283 -129q-173 0 -273 97t-100 271z" />
    <glyph glyph-name="Wcircumflex" unicode="&#x174;" horiz-adv-x="1724" 
d="M555 1597l252 301h111l251 -301h-116l-191 224l-190 -224h-117zM41 1458h117l307 -1268l340 1268h115l340 -1268l307 1268h116l-364 -1458h-113l-344 1270l-344 -1270h-112z" />
    <glyph glyph-name="wcircumflex" unicode="&#x175;" horiz-adv-x="1458" 
d="M422 1208l252 301h110l252 -301h-116l-191 224l-190 -224h-117zM29 987h114l252 -864l283 864h102l283 -864l252 864h115l-316 -987h-106l-279 823l-278 -823h-107z" />
    <glyph glyph-name="Ycircumflex" unicode="&#x176;" horiz-adv-x="1011" 
d="M203 1597l252 301h110l252 -301h-117l-190 224l-191 -224h-116zM561 0h-110v604l-431 854h119l371 -737l362 737h119l-430 -854v-604z" />
    <glyph glyph-name="ycircumflex" unicode="&#x177;" horiz-adv-x="880" 
d="M133 1208l252 301h111l252 -301h-117l-191 224l-190 -224h-117zM139 -446h-49v92h39q103 0 132 41t48 94l80 219l-360 987h114l297 -864l297 864h115l-459 -1255q-28 -82 -67 -115q-66 -63 -187 -63z" />
    <glyph glyph-name="Ydieresis" unicode="&#x178;" horiz-adv-x="1011" 
d="M659 1618v158h119v-158h-119zM233 1618v158h119v-158h-119zM561 0h-110v604l-431 854h119l371 -737l362 737h119l-430 -854v-604z" />
    <glyph glyph-name="Zacute" unicode="&#x179;" horiz-adv-x="1144" 
d="M475 1597l199 301h137l-217 -301h-119zM129 0v117l768 1243h-737v98h856v-98l-774 -1262h774v-98h-887z" />
    <glyph glyph-name="zacute" unicode="&#x17a;" horiz-adv-x="925" 
d="M367 1208l198 301h137l-217 -301h-118zM111 0v98l594 797h-562v92h672v-98l-596 -797h596v-92h-704z" />
    <glyph glyph-name="Zdotaccent" unicode="&#x17b;" horiz-adv-x="1144" 
d="M508 1638v129h127v-129h-127zM129 0v117l768 1243h-737v98h856v-98l-774 -1262h774v-98h-887z" />
    <glyph glyph-name="zdotaccent" unicode="&#x17c;" horiz-adv-x="925" 
d="M399 1249v129h127v-129h-127zM111 0v98l594 797h-562v92h672v-98l-596 -797h596v-92h-704z" />
    <glyph glyph-name="Zcaron" unicode="&#x17d;" horiz-adv-x="1144" 
d="M281 1898h116l191 -223l190 223h117l-252 -301h-111zM129 0v117l768 1243h-737v98h856v-98l-774 -1262h774v-98h-887z" />
    <glyph glyph-name="zcaron" unicode="&#x17e;" horiz-adv-x="925" 
d="M172 1509h117l190 -223l191 223h116l-251 -301h-111zM111 0v98l594 797h-562v92h672v-98l-596 -797h596v-92h-704z" />
    <glyph glyph-name="longs" unicode="&#x17f;" horiz-adv-x="501" 
d="M199 0v1200q0 116 61.5 187t175.5 71h90v-92h-71q-152 0 -152 -164v-1202h-104z" />
    <glyph glyph-name="uni018F" unicode="&#x18f;" horiz-adv-x="1333" 
d="M274 516q0 -177 88 -289q56 -68 136 -104.5t168 -36.5q163 0 276 113q68 68 89.5 160.5t23.5 287.5h-781v-131zM164 508v237h891q0 237 -20 339.5t-93 175.5q-112 112 -268 112t-259.5 -88t-135.5 -240h-111q32 192 169.5 309t340.5 117t342 -139q115 -115 130 -254
t15 -303t-4.5 -286.5t-35.5 -204.5t-105 -156q-139 -139 -354 -139q-110 0 -211 44.5t-169 119.5t-95 157.5t-27 198.5z" />
    <glyph glyph-name="florin" unicode="&#x192;" horiz-adv-x="806" 
d="M61 700v78h238l74 422q21 116 94.5 187t187.5 71h90v-92h-88q-152 0 -180 -164l-74 -424h224v-78h-238l-207 -1171h-104l207 1171h-224z" />
    <glyph glyph-name="uni01B5" unicode="&#x1b5;" horiz-adv-x="1144" 
d="M129 0v117l354 575h-231v86h285l360 582h-737v98h856v-98l-357 -582h234v-86h-287l-364 -594h774v-98h-887z" />
    <glyph glyph-name="uni01B6" unicode="&#x1b6;" horiz-adv-x="925" 
d="M111 0v98l266 359h-172v73h227l273 365h-562v92h672v-98l-268 -359h172v-73h-227l-273 -365h596v-92h-704z" />
    <glyph glyph-name="uni01C4" unicode="&#x1c4;" horiz-adv-x="2533" 
d="M1669 1898h117l190 -223l191 223h117l-252 -301h-111zM1518 0v117l768 1243h-738v98h856v-98l-774 -1262h774v-98h-886zM336 98h352q278 0 341.5 140t71 235t8.5 136.5t1 119.5t-2 171t-25 188.5t-82 158.5q-108 113 -313 113h-352v-1262zM225 0v1458h490q231 0 363 -132
t137.5 -322.5t5.5 -274.5t-3 -190t-33.5 -218.5t-105.5 -187.5q-133 -133 -364 -133h-490z" />
    <glyph glyph-name="uni01C5" unicode="&#x1c5;" horiz-adv-x="2314" 
d="M1561 1509h116l191 -223l190 223h117l-252 -301h-111zM1499 0v98l594 797h-561v92h672v-98l-596 -797h596v-92h-705zM336 98h352q278 0 341.5 140t71 235t8.5 136.5t1 119.5t-2 171t-25 188.5t-82 158.5q-108 113 -313 113h-352v-1262zM225 0v1458h490q231 0 363 -132
t137.5 -322.5t5.5 -274.5t-3 -190t-33.5 -218.5t-105.5 -187.5q-133 -133 -364 -133h-490z" />
    <glyph glyph-name="uni01C6" unicode="&#x1c6;" horiz-adv-x="2031" 
d="M1278 1509h117l190 -223l191 223h116l-252 -301h-110zM1217 0v98l593 797h-561v92h672v-98l-596 -797h596v-92h-704zM246 494q0 -69 5.5 -122.5t23 -111t47 -95t81 -61.5t121.5 -24t121.5 24t81.5 62t47.5 94.5t23 110.5t5.5 123t-5.5 122.5t-23 110.5t-47.5 94.5
t-81.5 61.5t-121.5 24t-121.5 -24t-81 -61.5t-47 -94.5t-23 -110.5t-5.5 -122.5zM141 494q0 397 146.5 451t231.5 54t153.5 -29t130.5 -110v598h104v-1458h-104v127q-62 -81 -130.5 -110t-153.5 -29t-231.5 54.5t-146.5 451.5z" />
    <glyph glyph-name="uni01C7" unicode="&#x1c7;" horiz-adv-x="2191" 
d="M1552 86q158 0 241 94.5t83 272.5v1005h111v-1028q0 -200 -118.5 -321t-314.5 -121t-321 125l76 75q50 -50 102.5 -76t140.5 -26zM225 0v1458h111v-1360h774v-98h-885z" />
    <glyph glyph-name="uni01C8" unicode="&#x1c8;" horiz-adv-x="1673" 
d="M1358 1329v129h129v-129h-129zM1147 -379h72q85 0 118 39t33 127v1200h105v-1202q0 -120 -60 -188t-178 -68h-90v92zM225 0v1458h111v-1360h774v-98h-885z" />
    <glyph glyph-name="uni01C9" unicode="&#x1c9;" horiz-adv-x="1089" 
d="M774 1329v129h129v-129h-129zM563 -379h72q85 0 118 39t33 127v1200h105v-1202q0 -120 -60 -188t-178 -68h-90v92zM195 256v1202h104v-1200q0 -88 33.5 -127t118.5 -39h71v-92h-90q-118 0 -177.5 67.5t-59.5 188.5z" />
    <glyph glyph-name="uni01CA" unicode="&#x1ca;" horiz-adv-x="2533" 
d="M1894 86q158 0 241 94.5t83 272.5v1005h111v-1028q0 -200 -118.5 -321t-314.5 -121t-321 125l76 75q50 -50 102.5 -76t140.5 -26zM225 0v1458h111l842 -1263v1263h110v-1458h-110l-842 1268v-1268h-111z" />
    <glyph glyph-name="uni01CB" unicode="&#x1cb;" horiz-adv-x="2015" 
d="M1700 1329v129h129v-129h-129zM1489 -379h72q85 0 118 39t33 127v1200h105v-1202q0 -120 -60 -188t-178 -68h-90v92zM225 0v1458h111l842 -1263v1263h110v-1458h-110l-842 1268v-1268h-111z" />
    <glyph glyph-name="uni01CC" unicode="&#x1cc;" horiz-adv-x="1646" 
d="M1331 1329v129h129v-129h-129zM1120 -379h72q85 0 118 39t33 127v1200h105v-1202q0 -120 -60 -188t-178 -68h-90v92zM199 0v987h104v-117q111 129 283 129q172 -1 272 -97t100 -271v-631h-104v612q0 143 -69.5 219t-202.5 76t-206 -77t-73 -218v-612h-104z" />
    <glyph glyph-name="uni01F1" unicode="&#x1f1;" horiz-adv-x="2533" 
d="M1518 0v117l768 1243h-738v98h856v-98l-774 -1262h774v-98h-886zM336 98h352q278 0 341.5 140t71 235t8.5 136.5t1 119.5t-2 171t-25 188.5t-82 158.5q-108 113 -313 113h-352v-1262zM225 0v1458h490q231 0 363 -132t137.5 -322.5t5.5 -274.5t-3 -190t-33.5 -218.5
t-105.5 -187.5q-133 -133 -364 -133h-490z" />
    <glyph glyph-name="uni01F2" unicode="&#x1f2;" horiz-adv-x="2314" 
d="M1499 0v98l594 797h-561v92h672v-98l-596 -797h596v-92h-705zM336 98h352q278 0 341.5 140t71 235t8.5 136.5t1 119.5t-2 171t-25 188.5t-82 158.5q-108 113 -313 113h-352v-1262zM225 0v1458h490q231 0 363 -132t137.5 -322.5t5.5 -274.5t-3 -190t-33.5 -218.5
t-105.5 -187.5q-133 -133 -364 -133h-490z" />
    <glyph glyph-name="uni01F3" unicode="&#x1f3;" horiz-adv-x="2031" 
d="M1217 0v98l593 797h-561v92h672v-98l-596 -797h596v-92h-704zM246 494q0 -69 5.5 -122.5t23 -111t47 -95t81 -61.5t121.5 -24t121.5 24t81.5 62t47.5 94.5t23 110.5t5.5 123t-5.5 122.5t-23 110.5t-47.5 94.5t-81.5 61.5t-121.5 24t-121.5 -24t-81 -61.5t-47 -94.5
t-23 -110.5t-5.5 -122.5zM141 494q0 397 146.5 451t231.5 54t153.5 -29t130.5 -110v598h104v-1458h-104v127q-62 -81 -130.5 -110t-153.5 -29t-231.5 54.5t-146.5 451.5z" />
    <glyph glyph-name="Aringacute" unicode="&#x1fa;" horiz-adv-x="1232" 
d="M520 2017l199 301h137l-217 -301h-119zM467 1763q0 -61 43.5 -105t105.5 -44t106 44t44 105t-44 104.5t-106 43.5t-105.5 -43.5t-43.5 -104.5zM383 1763q0 97 68 165.5t165 68.5t165.5 -68.5t68.5 -165.5t-68.5 -166t-165.5 -69t-165 69t-68 166zM311 453h611l-306 858z
M31 0l536 1458h99l536 -1458h-119l-127 354h-680l-126 -354h-119z" />
    <glyph glyph-name="aringacute" unicode="&#x1fb;" horiz-adv-x="1073" 
d="M414 1640l198 302h138l-218 -302h-118zM360 1386q0 -61 44 -105t106 -44t105.5 43.5t43.5 105.5t-43.5 105t-105.5 43t-106 -43.5t-44 -104.5zM276 1386q0 97 68.5 165.5t165.5 68.5t165 -68.5t68 -165.5t-68 -166t-165 -69t-165.5 69t-68.5 166zM219 272
q-1 -192 231 -192q108 0 166 15t110 64t52 185v127h-307q-252 0 -252 -199zM778 666q0 241 -256 241q-126 0 -186.5 -28.5t-108.5 -96.5l-75 66q61 85 141.5 118t206.5 33q383 0 383 -323v-676h-105v98q-62 -62 -129 -86t-175 -24t-174.5 20.5t-113.5 69.5q-71 71 -71 199
t91 203t253 75h319v111z" />
    <glyph glyph-name="AEacute" unicode="&#x1fc;" horiz-adv-x="1845" 
d="M834 1597l198 301h137l-217 -301h-118zM848 453v907l-475 -907h475zM1731 1458v-98h-775v-582h660v-98h-660v-582h775v-98h-883v354h-522l-185 -354h-121l773 1458h938z" />
    <glyph glyph-name="aeacute" unicode="&#x1fd;" horiz-adv-x="1708" 
d="M1174 907q-88 0 -171.5 -53t-99 -139t-20.5 -160h581q-9 129 -37 197q-29 67 -97 111t-156 44zM778 1208l199 301h137l-217 -301h-119zM219 272q-1 -192 231 -192q108 0 166 15t110 64t52 185v127h-307q-252 0 -252 -199zM778 666q0 241 -256 241q-126 0 -186.5 -28.5
t-108.5 -96.5l-75 66q61 85 141.5 118t206.5 33q278 0 354 -174q103 174 320 174q186 0 290.5 -127t104.5 -354v-47h-686q0 -190 81.5 -289.5t239.5 -99.5q86 0 147.5 27.5t125.5 91.5l77 -62q-79 -79 -159.5 -115t-198.5 -36q-250 0 -352 184q-61 -100 -145.5 -142
t-208.5 -42t-190.5 20.5t-113.5 69.5q-71 71 -71 199t91 203t253 75h319v111z" />
    <glyph glyph-name="Oslashacute" unicode="&#x1fe;" horiz-adv-x="1335" 
d="M571 1597l199 301h137l-217 -301h-119zM668 86q163 0 276 113q74 74 93.5 178t19.5 344t-16.5 342.5t-75.5 173.5l-519 -1083q100 -68 222 -68zM279 736q0 -242 15.5 -344t76.5 -171l518 1084q-98 67 -221 67q-165 0 -277 -112q-74 -74 -93 -178t-19 -346zM168 728
q0 120 4.5 242.5t35.5 204.5t105 156q139 139 355 139q149 0 266 -71l72 149h108l-100 -209q76 -74 106.5 -150.5t38.5 -171.5t8 -251t-4.5 -278.5t-35.5 -204.5t-105 -156q-139 -139 -354 -139q-147 0 -267 71l-71 -149h-109l101 209q-81 79 -114 163.5t-36.5 205
t-3.5 240.5z" />
    <glyph glyph-name="oslashacute" unicode="&#x1ff;" horiz-adv-x="1077" 
d="M442 1208l199 301h137l-217 -301h-119zM552 80q108 0 191 84q55 55 71.5 136.5t16.5 171.5t-5 170.5t-60 154.5l-393 -666q71 -51 179 -51zM246 516q0 -90 5 -171t60 -155l394 666q-71 51 -179 51t-192 -84q-55 -55 -71.5 -136t-16.5 -171zM141 497q-1 271 115 387
t283 115q124 0 215 -61l82 139h98l-115 -192q117 -124 117 -395q0 -270 -116 -386t-281 -116q-120 0 -215 59l-82 -137h-99l115 192q-117 124 -117 395z" />
    <glyph glyph-name="Scommaaccent" unicode="&#x218;" horiz-adv-x="1202" 
d="M395 -451l148 308h112l-131 -308h-129zM616 86q154 0 254.5 79t100.5 219t-80 208q-38 33 -80 48.5t-131 29.5l-170 26q-167 24 -260 105q-115 95 -115 275t121.5 287t331.5 107q132 0 228 -36.5t192 -120.5l-72 -72q-71 67 -152 101t-221 34t-229.5 -80.5t-89.5 -215.5
q0 -134 75 -198t207 -83l170 -27q100 -15 154.5 -36t105.5 -64q125 -110 125 -288t-131.5 -287t-359.5 -109q-159 0 -272 45.5t-214 146.5l78 78q97 -97 188.5 -134.5t245.5 -37.5z" />
    <glyph glyph-name="scommaaccent" unicode="&#x219;" horiz-adv-x="1011" 
d="M307 -451l148 308h112l-131 -308h-129zM498 80q297 0 297 201q0 78 -45 117t-144 48l-164 15q-297 24 -297 258q0 129 96.5 204.5t280.5 75.5t324 -104l-70 -70q-116 84 -258 84q-270 0 -270 -190q0 -77 48 -116t153 -50l159 -14q218 -23 253.5 -105.5t35.5 -152.5
q0 -135 -106 -214t-289 -79q-253 0 -400 141l72 72q115 -121 324 -121z" />
    <glyph glyph-name="uni021A" unicode="&#x21a;" horiz-adv-x="1103" 
d="M348 -451l148 308h112l-131 -308h-129zM61 1360v98h981v-98h-436v-1360h-110v1360h-435z" />
    <glyph glyph-name="uni021B" unicode="&#x21b;" horiz-adv-x="665" 
d="M193 -451l147 308h113l-131 -308h-129zM88 909v78h135v316h105v-316h223v-78h-223v-653q0 -164 151 -164h72v-92h-90q-114 0 -176 71t-62 187v651h-135z" />
    <glyph glyph-name="uni0237" unicode="&#x237;" horiz-adv-x="501" 
d="M-25 -379h72q85 0 118.5 39t33.5 127v1200h104v-1202q0 -121 -59.5 -188.5t-177.5 -67.5h-91v92z" />
    <glyph glyph-name="uni0259" unicode="&#x259;" horiz-adv-x="1071" 
d="M534 80q86 0 178 61t100.5 146t12.5 145h-581q5 -79 10.5 -112t24.5 -74q32 -78 100.5 -122t154.5 -44zM139 469v47h686q0 190 -81.5 289.5t-239.5 99.5q-86 0 -147.5 -27.5t-125.5 -91.5l-77 62q79 79 158.5 115t197.5 36q204 0 312 -129t108 -372t-104.5 -376.5
t-290.5 -133.5t-291 127t-105 354z" />
    <glyph glyph-name="uni02BB" unicode="&#x2bb;" horiz-adv-x="532" 
d="M195 1315v143l143 144v-287h-143z" />
    <glyph glyph-name="afii57929" unicode="&#x2bc;" horiz-adv-x="532" 
d="M195 1458h143v-143l-143 -144v287z" />
    <glyph glyph-name="circumflex" unicode="&#x2c6;" horiz-adv-x="1024" 
d="M205 1208l252 301h110l252 -301h-117l-190 224l-190 -224h-117z" />
    <glyph glyph-name="caron" unicode="&#x2c7;" horiz-adv-x="1024" 
d="M205 1509h117l190 -223l190 223h117l-252 -301h-110z" />
    <glyph glyph-name="breve" unicode="&#x2d8;" horiz-adv-x="1024" 
d="M512 1294q105 0 169.5 49t76.5 136h92q-29 -277 -338 -277t-338 277h92q12 -87 76.5 -136t169.5 -49z" />
    <glyph glyph-name="dotaccent" unicode="&#x2d9;" horiz-adv-x="1024" 
d="M449 1249v129h126v-129h-126z" />
    <glyph glyph-name="ring" unicode="&#x2da;" horiz-adv-x="1024" 
d="M362 1386q0 -61 44 -105t106 -44t106 44t44 105t-44 104.5t-106 43.5t-106 -43.5t-44 -104.5zM279 1386q0 97 68 165.5t165 68.5t165 -68.5t68 -165.5t-68 -166t-165 -69t-165 69t-68 166z" />
    <glyph glyph-name="ogonek" unicode="&#x2db;" horiz-adv-x="1024" 
d="M467 -451l147 308h113l-131 -308h-129z" />
    <glyph glyph-name="tilde" unicode="&#x2dc;" horiz-adv-x="1024" 
d="M317 1413.5q37 7.5 82 7.5t117 -46t109 -46t62.5 12.5t68.5 55.5l61 -60q-83 -83 -120.5 -90.5t-77.5 -7.5t-119 46q-78 46 -114 46t-60.5 -12t-67.5 -55l-61 59q83 83 120 90.5z" />
    <glyph glyph-name="hungarumlaut" unicode="&#x2dd;" horiz-adv-x="1024" 
d="M567 1208l199 301h137l-219 -301h-117zM266 1208l199 301h137l-217 -301h-119z" />
    <glyph glyph-name="uni037E" unicode="&#x37e;" horiz-adv-x="598" 
d="M256 139h139v-278l-139 -140v418zM252 639v152h151v-152h-151z" />
    <glyph glyph-name="tonos" unicode="&#x384;" horiz-adv-x="518" 
d="M207 1458h119v-198l-119 -68v266z" />
    <glyph glyph-name="dieresistonos" unicode="&#x385;" horiz-adv-x="1024" 
d="M666 1229v157h118v-157h-118zM453 1458h118v-198l-118 -68v266zM240 1229v157h118v-157h-118z" />
    <glyph glyph-name="Alphatonos" unicode="&#x386;" horiz-adv-x="1232" 
d="M311 453h611l-306 858zM31 0l536 1458h99l536 -1458h-119l-127 354h-680l-126 -354h-119zM20 1458h119v-198l-119 -68v266z" />
    <glyph glyph-name="anoteleia" unicode="&#x387;" horiz-adv-x="540" 
d="M195 465v151h151v-151h-151z" />
    <glyph glyph-name="Epsilontonos" unicode="&#x388;" horiz-adv-x="1224" 
d="M225 0v1458h885v-98h-774v-576h659v-98h-659v-588h774v-98h-885zM-102 1458h118v-198l-118 -68v266z" />
    <glyph glyph-name="Etatonos" unicode="&#x389;" horiz-adv-x="1431" 
d="M225 0v1458h111v-674h760v674h110v-1458h-110v686h-760v-686h-111zM-102 1458h118v-198l-118 -68v266z" />
    <glyph glyph-name="Iotatonos" unicode="&#x38a;" horiz-adv-x="561" 
d="M225 0v1458h111v-1458h-111zM-102 1458h118v-198l-118 -68v266z" />
    <glyph glyph-name="Omicrontonos" unicode="&#x38c;" horiz-adv-x="1335" 
d="M279 729q0 -249 19 -352.5t93 -177.5q113 -113 277 -113t276 113q74 74 93.5 178t19.5 352t-19.5 352.5t-93.5 178.5q-112 112 -276 112t-277 -112q-74 -74 -93 -178t-19 -353zM668 1470q216 0 354 -139q115 -115 130 -254t15 -303t-4.5 -286.5t-35.5 -204.5t-105 -156
q-138 -139 -354 -139t-355 139q-115 115 -130 254t-15 303t4.5 286.5t35.5 204.5t105 156q139 139 355 139zM-61 1458h118v-198l-118 -68v266z" />
    <glyph glyph-name="Upsilontonos" unicode="&#x38e;" horiz-adv-x="1011" 
d="M561 0h-110v604l-431 854h119l371 -737l362 737h119l-430 -854v-604zM-143 1458h118v-198l-118 -68v266z" />
    <glyph glyph-name="Omegatonos" unicode="&#x38f;" horiz-adv-x="1335" 
d="M168 0v96h186q-84 68 -125 142t-51 179t-10 268t4.5 285.5t35.5 204.5t105 156q139 139 355 139t354 -139q115 -115 130 -254t15 -347t-10 -313t-51 -179t-125 -142h186v-96h-381v96q76 37 127 77.5t87 100.5t46.5 163t10.5 321t-19.5 323t-93.5 179q-112 112 -276 112
t-277 -112q-74 -74 -93 -178t-19 -324t10.5 -322t46.5 -162t86.5 -100.5t126.5 -77.5v-96h-381zM-61 1458h118v-198l-118 -68v266z" />
    <glyph glyph-name="iotadieresistonos" unicode="&#x390;" horiz-adv-x="587" 
d="M399 1229v157h119v-157h-119zM195 256v731h104v-729q0 -88 33.5 -127t118.5 -39h71v-92h-90q-118 0 -177.5 67.5t-59.5 188.5zM186 1458h119v-198l-119 -68v266zM-27 1229v157h119v-157h-119z" />
    <glyph glyph-name="Alpha" unicode="&#x391;" horiz-adv-x="1232" 
d="M311 453h611l-306 858zM31 0l536 1458h99l536 -1458h-119l-127 354h-680l-126 -354h-119z" />
    <glyph glyph-name="Beta" unicode="&#x392;" horiz-adv-x="1374" 
d="M336 795h414q195 0 259 92.5t64 189.5q0 143 -90.5 213t-232.5 70h-414v-565zM336 98h430q151 0 240.5 79.5t89.5 219.5t-89.5 219.5t-240.5 79.5h-430v-598zM225 0v1458h537q186 0 304 -102.5t118 -278.5q0 -116 -61 -204t-167 -123q119 -41 184.5 -133.5t65.5 -219.5
q0 -191 -115.5 -294t-312.5 -103h-553z" />
    <glyph glyph-name="Gamma" unicode="&#x393;" horiz-adv-x="1134" 
d="M242 0v1458h843v-98h-733v-1360h-110z" />
    <glyph glyph-name="uni0394" unicode="&#x394;" horiz-adv-x="1210" 
d="M164 98h883l-443 1213zM20 0l537 1458h96l537 -1458h-1170z" />
    <glyph glyph-name="Epsilon" unicode="&#x395;" horiz-adv-x="1224" 
d="M225 0v1458h885v-98h-774v-576h659v-98h-659v-588h774v-98h-885z" />
    <glyph glyph-name="Zeta" unicode="&#x396;" horiz-adv-x="1144" 
d="M129 0v117l768 1243h-737v98h856v-98l-774 -1262h774v-98h-887z" />
    <glyph glyph-name="Eta" unicode="&#x397;" horiz-adv-x="1431" 
d="M225 0v1458h111v-674h760v674h110v-1458h-110v686h-760v-686h-111z" />
    <glyph glyph-name="Theta" unicode="&#x398;" horiz-adv-x="1335" 
d="M279 784h778q-2 213 -22.5 309.5t-90.5 166.5q-112 112 -276 112t-277 -112q-70 -70 -91 -167.5t-21 -308.5zM279 686q0 -220 20.5 -318.5t91.5 -168.5q113 -113 277 -113t276 113q70 70 90.5 169t22.5 318h-778zM668 1470q216 0 354 -139q115 -115 130 -254t15 -303
t-4.5 -286.5t-35.5 -204.5t-105 -156q-138 -139 -354 -139t-355 139q-115 115 -130 254t-15 303t4.5 286.5t35.5 204.5t105 156q139 139 355 139z" />
    <glyph glyph-name="Iota" unicode="&#x399;" horiz-adv-x="561" 
d="M225 0v1458h111v-1458h-111z" />
    <glyph glyph-name="Kappa" unicode="&#x39a;" horiz-adv-x="1320" 
d="M225 0v1458h111v-911l739 911h133l-450 -557l526 -901h-131l-469 817l-348 -422v-395h-111z" />
    <glyph glyph-name="Lambda" unicode="&#x39b;" horiz-adv-x="1167" 
d="M51 0l479 1458h107l479 -1458h-117l-415 1311l-416 -1311h-117z" />
    <glyph glyph-name="Mu" unicode="&#x39c;" horiz-adv-x="1675" 
d="M225 0v1458h111l508 -1124l495 1124h111v-1458h-111v1202l-442 -997h-111l-450 997v-1202h-111z" />
    <glyph glyph-name="Nu" unicode="&#x39d;" horiz-adv-x="1513" 
d="M225 0v1458h111l842 -1263v1263h110v-1458h-110l-842 1268v-1268h-111z" />
    <glyph glyph-name="Xi" unicode="&#x39e;" horiz-adv-x="1155" 
d="M115 0v98h407v588h-293v98h293v576h-407v98h925v-98h-407v-576h293v-98h-293v-588h407v-98h-925z" />
    <glyph glyph-name="Omicron" unicode="&#x39f;" horiz-adv-x="1335" 
d="M279 729q0 -249 19 -352.5t93 -177.5q113 -113 277 -113t276 113q74 74 93.5 178t19.5 352t-19.5 352.5t-93.5 178.5q-112 112 -276 112t-277 -112q-74 -74 -93 -178t-19 -353zM668 1470q216 0 354 -139q115 -115 130 -254t15 -303t-4.5 -286.5t-35.5 -204.5t-105 -156
q-138 -139 -354 -139t-355 139q-115 115 -130 254t-15 303t4.5 286.5t35.5 204.5t105 156q139 139 355 139z" />
    <glyph glyph-name="Pi" unicode="&#x3a0;" horiz-adv-x="1392" 
d="M225 0v1458h940v-1458h-110v1360h-719v-1360h-111z" />
    <glyph glyph-name="Rho" unicode="&#x3a1;" horiz-adv-x="1292" 
d="M336 717h412q158 0 250 81t92 240t-92 240.5t-250 81.5h-412v-643zM225 0v1458h535q194 0 317 -112.5t123 -307.5t-123 -307.5t-317 -112.5h-424v-618h-111z" />
    <glyph glyph-name="Sigma" unicode="&#x3a3;" horiz-adv-x="1130" 
d="M129 0v117l408 663l-377 580v98h856v-98h-735l378 -578l-417 -684h774v-98h-887z" />
    <glyph glyph-name="Tau" unicode="&#x3a4;" horiz-adv-x="1103" 
d="M61 1360v98h981v-98h-436v-1360h-110v1360h-435z" />
    <glyph glyph-name="Upsilon" unicode="&#x3a5;" horiz-adv-x="1011" 
d="M561 0h-110v604l-431 854h119l371 -737l362 737h119l-430 -854v-604z" />
    <glyph glyph-name="Phi" unicode="&#x3a6;" horiz-adv-x="1464" 
d="M788 229q204 -1 310 105q87 87 104 187.5t17 217.5t-17 217.5t-86 169.5t-147 96t-181 27v-1020zM248 739q0 -114 16 -215.5t85 -170.5q70 -70 148 -97t181 -27v1020q-204 1 -310 -105q-52 -52 -74.5 -98t-34 -119.5t-11.5 -187.5zM678 1348v110h110v-110
q129 0 228.5 -36t185.5 -122t106.5 -199t20.5 -252.5t-20 -251t-107 -198.5q-86 -86 -185.5 -122t-228.5 -36v-131h-110v131q-129 0 -228.5 36t-185.5 122t-106.5 198t-20.5 251.5t20 252t107 199.5q86 86 185.5 122t228.5 36z" />
    <glyph glyph-name="Chi" unicode="&#x3a7;" horiz-adv-x="1089" 
d="M37 0l446 748l-417 710h129l348 -612l350 612h127l-418 -710l451 -748h-129l-381 649l-381 -649h-125z" />
    <glyph glyph-name="Psi" unicode="&#x3a8;" horiz-adv-x="1339" 
d="M111 770v688h110v-688q0 -89 28 -148t85 -116q113 -113 276 -113h4v1065h111v-1065h4q164 0 277 113q56 56 84 115.5t28 148.5v688h111v-688q0 -108 -31.5 -181t-103.5 -145q-148 -148 -365 -149h-4v-295h-111v295h-4q-215 0 -364 149q-71 71 -103 144.5t-32 181.5z" />
    <glyph glyph-name="uni03A9" unicode="&#x3a9;" horiz-adv-x="1335" 
d="M168 0v96h186q-84 68 -125 142t-51 179t-10 268t4.5 285.5t35.5 204.5t105 156q139 139 355 139t354 -139q115 -115 130 -254t15 -347t-10 -313t-51 -179t-125 -142h186v-96h-381v96q76 37 127 77.5t87 100.5t46.5 163t10.5 321t-19.5 323t-93.5 179q-112 112 -276 112
t-277 -112q-74 -74 -93 -178t-19 -324t10.5 -322t46.5 -162t86.5 -100.5t126.5 -77.5v-96h-381z" />
    <glyph glyph-name="Iotadieresis" unicode="&#x3aa;" horiz-adv-x="561" 
d="M434 1618v158h119v-158h-119zM225 0v1458h111v-1458h-111zM8 1618v158h119v-158h-119z" />
    <glyph glyph-name="Upsilondieresis" unicode="&#x3ab;" horiz-adv-x="1011" 
d="M659 1618v158h119v-158h-119zM233 1618v158h119v-158h-119zM561 0h-110v604l-431 854h119l371 -737l362 737h119l-430 -854v-604z" />
    <glyph glyph-name="alphatonos" unicode="&#x3ac;" horiz-adv-x="1105" 
d="M477 1458h119v-198l-119 -68v266zM246 494q0 -69 5.5 -122.5t23 -111t47 -95t81 -61.5t121.5 -24t121.5 24t81.5 62t47.5 94.5t23 110.5t5.5 123t-5.5 122.5t-23 110.5t-47.5 94.5t-81.5 61.5t-121.5 24t-121.5 -24t-81 -61.5t-47 -94.5t-23 -110.5t-5.5 -122.5zM141 494
q0 397 146.5 451t231.5 54t153.5 -29t130.5 -110v127h104v-987h-104v127q-62 -81 -130.5 -110t-153.5 -29t-231.5 54.5t-146.5 451.5z" />
    <glyph glyph-name="epsilontonos" unicode="&#x3ad;" horiz-adv-x="1007" 
d="M477 1458h119v-198l-119 -68v266zM139 266q0 91 40 145.5t128 90.5q-147 58 -147 221q0 125 101 200.5t243 75.5q252 0 389 -151l-70 -68q-122 129 -317 129q-87 0 -160.5 -52t-73.5 -136q0 -172 197 -172h168v-90h-168q-217 0 -217 -193q0 -87 69.5 -137.5t165.5 -50.5
q154 0 224 41t112 84l72 -64q-88 -88 -183.5 -119.5t-234.5 -31.5t-238.5 73t-99.5 205z" />
    <glyph glyph-name="etatonos" unicode="&#x3ae;" horiz-adv-x="1144" 
d="M518 1458h119v-198l-119 -68v266zM199 0v987h104v-117q111 129 283 129q172 -1 272 -97t100 -271v-631h-104v612q0 143 -69.5 219t-202.5 76t-206 -77t-73 -218v-612h-104z" />
    <glyph glyph-name="iotatonos" unicode="&#x3af;" horiz-adv-x="587" 
d="M195 1458h118v-198l-118 -68v266zM195 256v731h104v-729q0 -88 33.5 -127t118.5 -39h71v-92h-90q-118 0 -177.5 67.5t-59.5 188.5z" />
    <glyph glyph-name="upsilondieresistonos" unicode="&#x3b0;" horiz-adv-x="1046" 
d="M670 1229v157h118v-157h-118zM457 1458h118v-198l-118 -68v266zM244 1229v157h118v-157h-118zM248 383q0 -303 204.5 -303t275.5 76.5t71 226.5v604h104v-631q0 -172 -101 -270q-102 -98 -280 -98t-278 97t-101 271v631h105v-604z" />
    <glyph glyph-name="alpha" unicode="&#x3b1;" horiz-adv-x="1105" 
d="M246 494q0 -69 5.5 -122.5t23 -111t47 -95t81 -61.5t121.5 -24t121.5 24t81.5 62t47.5 94.5t23 110.5t5.5 123t-5.5 122.5t-23 110.5t-47.5 94.5t-81.5 61.5t-121.5 24t-121.5 -24t-81 -61.5t-47 -94.5t-23 -110.5t-5.5 -122.5zM141 494q0 397 146.5 451t231.5 54
t153.5 -29t130.5 -110v127h104v-987h-104v127q-62 -81 -130.5 -110t-153.5 -29t-231.5 54.5t-146.5 451.5z" />
    <glyph glyph-name="beta" unicode="&#x3b2;" horiz-adv-x="1105" 
d="M303 410q0 -132 71 -233t227 -101t230 102.5t74 231.5q0 230 -116 277.5t-238 47.5h-125v78h129q276 0 276 287q0 140 -73 207t-197 67t-191 -85.5t-67 -225.5v-653zM199 0v1102q0 154 102 255t266 101t263.5 -87t99.5 -249q0 -108 -45 -213t-168 -129
q141 -17 215 -113.5t74 -264.5t-106 -291t-254 -123t-216 32.5t-129 108.5v-129h-102z" />
    <glyph glyph-name="gamma" unicode="&#x3b3;" horiz-adv-x="880" 
d="M494 -471h-105v471l-360 987h114l297 -864l297 864h115l-358 -987v-471z" />
    <glyph glyph-name="delta" unicode="&#x3b4;" horiz-adv-x="1077" 
d="M246 494q0 -112 16.5 -193.5t71.5 -136.5q84 -84 204 -84t205 84q55 55 71.5 136.5t16.5 193.5t-16.5 193t-71.5 136q-85 84 -205 84t-204 -84q-55 -55 -71.5 -136t-16.5 -193zM936 494q0 -274 -116 -390t-282 -116t-282 116t-115 390q-1 274 115 390t283 115
q93 0 149 -34l-436 413v80h584v-80h-469l366 -352q151 -146 177 -279.5t26 -252.5z" />
    <glyph glyph-name="epsilon" unicode="&#x3b5;" horiz-adv-x="1007" 
d="M139 266q0 91 40 145.5t128 90.5q-147 58 -147 221q0 125 101 200.5t243 75.5q252 0 389 -151l-70 -68q-122 129 -317 129q-87 0 -160.5 -52t-73.5 -136q0 -172 197 -172h168v-90h-168q-217 0 -217 -193q0 -87 69.5 -137.5t165.5 -50.5q154 0 224 41t112 84l72 -64
q-88 -88 -183.5 -119.5t-234.5 -31.5t-238.5 73t-99.5 205z" />
    <glyph glyph-name="zeta" unicode="&#x3b6;" horiz-adv-x="937" 
d="M113 231q0 90 37.5 152t134.5 141l448 371h-561v92h672v-98q-10 -12 -374 -331l-122 -107q-84 -73 -105.5 -113t-21.5 -115t72 -103t217 -28h68q200 0 234 -75.5t34 -122.5q0 -207 -256 -207v80q166 0 166 114q0 63 -40.5 91t-131.5 28h-74q-212 0 -304.5 49t-92.5 182z
" />
    <glyph glyph-name="eta" unicode="&#x3b7;" horiz-adv-x="1144" 
d="M199 0v987h104v-117q111 129 283 129q172 -1 272 -97t100 -271v-631h-104v612q0 143 -69.5 219t-202.5 76t-206 -77t-73 -218v-612h-104z" />
    <glyph glyph-name="theta" unicode="&#x3b8;" horiz-adv-x="1093" 
d="M248 815h598q0 270 -35 357t-70 122q-85 84 -195 84t-187 -77t-94 -212t-17 -274zM248 723q0 -348 34 -435.5t70 -123.5q84 -84 194 -84t189 78q78 78 94.5 220.5t16.5 344.5h-598zM143 729q0 93 4 298t124 325q64 64 127.5 91t185 27t231.5 -110q127 -127 131 -332
t4 -299t-4 -299t-123 -324q-64 -64 -127.5 -91t-185 -27t-231.5 110q-128 128 -132 333t-4 298z" />
    <glyph glyph-name="iota" unicode="&#x3b9;" horiz-adv-x="587" 
d="M195 256v731h104v-729q0 -88 33.5 -127t118.5 -39h71v-92h-90q-118 0 -177.5 67.5t-59.5 188.5z" />
    <glyph glyph-name="kappa" unicode="&#x3ba;" horiz-adv-x="1079" 
d="M199 0v987h104v-557l490 557h133l-326 -369l397 -618h-129l-340 543l-225 -260v-283h-104z" />
    <glyph glyph-name="lambda" unicode="&#x3bb;" horiz-adv-x="952" 
d="M172 1366h-18v92h30q103 0 156.5 -34.5t83.5 -125.5l360 -1071q25 -74 58 -104.5t90 -30.5h37v-92h-49q-87 0 -156 63q-42 42 -64 115l-223 684l-325 -862h-115l391 985l-90 264q-25 75 -54 96t-112 21z" />
    <glyph glyph-name="uni03BC" unicode="&#x3bc;" horiz-adv-x="1138" 
d="M180 -471v1458h105v-612q0 -143 69.5 -219t202.5 -76t206 77t73 218v612h104v-987h-104v117q-111 -129 -281 -129t-270 92v-551h-105z" />
    <glyph glyph-name="nu" unicode="&#x3bd;" horiz-adv-x="880" 
d="M29 987h114l297 -864l297 864h115l-360 -987h-103z" />
    <glyph glyph-name="xi" unicode="&#x3be;" horiz-adv-x="972" 
d="M139 378q0 158 72.5 252t181.5 128q-89 23 -144.5 106t-55.5 185q0 160 107.5 260t277.5 100q216 0 354 -152l-70 -67q-120 127 -284 127q-126 0 -199.5 -70.5t-73.5 -196.5t70 -187.5t198 -61.5h248v-92h-243q-150 0 -241 -86.5t-91 -224.5t88.5 -222t222.5 -84h88
q268 0 268 -198q0 -207 -256 -207v80q166 0 166 114q0 63 -40.5 91t-131.5 28h-94q-179 0 -298.5 110t-119.5 268z" />
    <glyph glyph-name="omicron" unicode="&#x3bf;" horiz-adv-x="1077" 
d="M246 494q0 -112 16.5 -193.5t71.5 -136.5q84 -84 204 -84t205 84q55 55 71.5 136.5t16.5 193.5t-16.5 193t-71.5 136q-85 84 -205 84t-204 -84q-55 -55 -71.5 -136t-16.5 -193zM141 494q-1 274 115 390t282 115q166 1 282 -115t116 -390t-116 -390t-282 -116t-282 116
t-115 390z" />
    <glyph glyph-name="pi" unicode="&#x3c0;" horiz-adv-x="1144" 
d="M199 0v987h759v-987h-104v895h-551v-895h-104z" />
    <glyph glyph-name="rho" unicode="&#x3c1;" horiz-adv-x="1050" 
d="M246 501q0 -66 5.5 -120.5t23 -113.5t47 -98t81 -64t121.5 -25t121.5 24t81.5 62t47.5 94.5t23 110.5t5.5 123t-5 122t-22 110t-46 94t-80.5 61t-121.5 24t-122 -24t-82 -61.5t-48 -93t-24 -107.5t-6 -118zM141 -471v1065q0 152 65 242.5t141 126.5t175 36
q387 0 387 -505q0 -291 -129 -420q-86 -86 -241 -86q-94 0 -162.5 29t-130.5 110v-598h-105z" />
    <glyph glyph-name="sigma1" unicode="&#x3c2;" horiz-adv-x="1009" 
d="M141 494q0 235 116 370t318 135q104 0 177 -32.5t149 -118.5l-72 -66q-63 70 -119 97.5t-135 27.5q-174 0 -262 -131q-37 -54 -52 -118t-15 -206.5t67 -240.5q48 -72 113.5 -95.5t138.5 -23.5t138.5 -7t123.5 -51t58 -140q0 -207 -258 -207v80q166 0 166 113t-81 116.5
t-120 3.5q-228 0 -339.5 129.5t-111.5 364.5z" />
    <glyph glyph-name="sigma" unicode="&#x3c3;" horiz-adv-x="1097" 
d="M250 476q0 -94 16.5 -175.5t71.5 -136.5q84 -84 205 -84t205 84q55 55 71.5 136.5t16.5 189.5t-18.5 186.5t-74.5 134.5q-85 84 -205 84t-204 -84q-38 -38 -58 -96.5t-23 -101.5t-3 -137zM145 494q0 126 24 220t95 165q108 108 275 108h428v-92h-189q81 -62 121.5 -167.5
t40.5 -233.5q0 -274 -116 -390t-282 -116t-282 116t-115 390z" />
    <glyph glyph-name="tau" unicode="&#x3c4;" horiz-adv-x="714" 
d="M57 895v92h600v-92h-247v-895h-105v895h-248z" />
    <glyph glyph-name="upsilon" unicode="&#x3c5;" horiz-adv-x="1046" 
d="M248 383q0 -303 204.5 -303t275.5 76.5t71 226.5v604h104v-631q0 -172 -101 -270q-102 -98 -280 -98t-278 97t-101 271v631h105v-604z" />
    <glyph glyph-name="phi" unicode="&#x3c6;" horiz-adv-x="1323" 
d="M1077 514q0 65 -12.5 157t-92.5 159t-261 67v-817q208 6 272.5 84t76.5 142.5t14.5 103.5t2.5 104zM141 498q0 344 238 489l29 -86q-162 -119 -162 -409q0 -236 89.5 -322t270.5 -90v907h142q229 0 331.5 -119t102.5 -370t-100 -380.5t-371 -129.5v-459h-105v459
q-311 0 -388 162.5t-77 347.5z" />
    <glyph glyph-name="chi" unicode="&#x3c7;" horiz-adv-x="942" 
d="M82 0l334 504l-320 483h127l250 -397l246 397h127l-320 -483l334 -504h-127l-260 416l-264 -416h-127z" />
    <glyph glyph-name="psi" unicode="&#x3c8;" horiz-adv-x="1257" 
d="M135 494v493h103v-493q0 -216 67.5 -309t261.5 -103v905h105v-905q196 10 262.5 104.5t66.5 307.5v493h105v-493q0 -256 -99.5 -375t-334.5 -129v-461h-105v461q-235 10 -333.5 128.5t-98.5 375.5z" />
    <glyph glyph-name="omega" unicode="&#x3c9;" horiz-adv-x="1441" 
d="M469 -12q-328 0 -328 489q0 103 27.5 210t69.5 163q104 136 225 149v-92q-46 -8 -91.5 -48t-73.5 -91t-41 -112.5t-13 -149.5t1.5 -126.5t14.5 -100t38 -103.5t69.5 -69t92.5 -27t79.5 14.5t52 36.5t48.5 86.5t28 237.5v262h106v-262q0 -126 19 -204.5t62 -124.5t109 -46
q177 0 205.5 137.5t28.5 256.5t-13 181t-41 113t-73.5 91t-91.5 48v92q121 -13 225 -149q42 -56 69 -163t27 -210q0 -489 -327 -489q-88 0 -158 60.5t-94 148.5q-24 -88 -94 -148.5t-158 -60.5z" />
    <glyph glyph-name="iotadieresis" unicode="&#x3ca;" horiz-adv-x="587" 
d="M406 1229v157h118v-157h-118zM195 256v731h104v-729q0 -88 33.5 -127t118.5 -39h71v-92h-90q-118 0 -177.5 67.5t-59.5 188.5zM-20 1229v157h118v-157h-118z" />
    <glyph glyph-name="upsilondieresis" unicode="&#x3cb;" horiz-adv-x="1046" 
d="M678 1229v157h119v-157h-119zM252 1229v157h119v-157h-119zM248 383q0 -303 204.5 -303t275.5 76.5t71 226.5v604h104v-631q0 -172 -101 -270q-102 -98 -280 -98t-278 97t-101 271v631h105v-604z" />
    <glyph glyph-name="omicrontonos" unicode="&#x3cc;" horiz-adv-x="1077" 
d="M477 1458h119v-198l-119 -68v266zM246 494q0 -112 16.5 -193.5t71.5 -136.5q84 -84 204 -84t205 84q55 55 71.5 136.5t16.5 193.5t-16.5 193t-71.5 136q-85 84 -205 84t-204 -84q-55 -55 -71.5 -136t-16.5 -193zM141 494q-1 274 115 390t282 115q166 1 282 -115t116 -390
t-116 -390t-282 -116t-282 116t-115 390z" />
    <glyph glyph-name="upsilontonos" unicode="&#x3cd;" horiz-adv-x="1046" 
d="M457 1458h118v-198l-118 -68v266zM248 383q0 -303 204.5 -303t275.5 76.5t71 226.5v604h104v-631q0 -172 -101 -270q-102 -98 -280 -98t-278 97t-101 271v631h105v-604z" />
    <glyph glyph-name="omegatonos" unicode="&#x3ce;" horiz-adv-x="1441" 
d="M651 1458h119v-198l-119 -68v266zM469 -12q-328 0 -328 489q0 103 27.5 210t69.5 163q104 136 225 149v-92q-46 -8 -91.5 -48t-73.5 -91t-41 -112.5t-13 -149.5t1.5 -126.5t14.5 -100t38 -103.5t69.5 -69t92.5 -27t79.5 14.5t52 36.5t48.5 86.5t28 237.5v262h106v-262
q0 -126 19 -204.5t62 -124.5t109 -46q177 0 205.5 137.5t28.5 256.5t-13 181t-41 113t-73.5 91t-91.5 48v92q121 -13 225 -149q42 -56 69 -163t27 -210q0 -489 -327 -489q-88 0 -158 60.5t-94 148.5q-24 -88 -94 -148.5t-158 -60.5z" />
    <glyph glyph-name="uni03D0" unicode="&#x3d0;" horiz-adv-x="1105" 
d="M303 410q0 -132 71 -233t227 -101t230 102.5t74 231.5q0 230 -116 277.5t-238 47.5h-125v78h129q276 0 276 287q0 140 -73 207t-197 67t-191 -85.5t-67 -225.5v-653zM199 -471v1573q0 154 102 255t266 101t263.5 -87t99.5 -249q0 -108 -45 -213t-168 -129
q141 -17 215 -113.5t74 -264.5t-106 -291t-272 -123t-226 45t-99 94v-598h-104z" />
    <glyph glyph-name="uni0400" unicode="&#x400;" horiz-adv-x="1224" 
d="M403 1898h138l198 -301h-118zM225 0v1458h885v-98h-774v-576h659v-98h-659v-588h774v-98h-885z" />
    <glyph glyph-name="afii10023" unicode="&#x401;" horiz-adv-x="1224" 
d="M797 1618v158h118v-158h-118zM371 1618v158h118v-158h-118zM225 0v1458h885v-98h-774v-576h659v-98h-659v-588h774v-98h-885z" />
    <glyph glyph-name="afii10051" unicode="&#x402;" horiz-adv-x="1521" 
d="M51 1360v98h981v-98h-497v-479h348q202 0 321 -115.5t119 -323.5t-119 -325t-321 -117h-82v98h69q165 0 253.5 85.5t88.5 256.5t-88.5 256.5t-253.5 85.5h-335v-782h-111v1360h-373z" />
    <glyph glyph-name="afii10052" unicode="&#x403;" horiz-adv-x="1155" 
d="M532 1597l199 301h137l-217 -301h-119zM242 0v1458h864v-98h-754v-1360h-110z" />
    <glyph glyph-name="afii10053" unicode="&#x404;" horiz-adv-x="1318" 
d="M658 1470q206 0 337 -114t168 -312h-112q-32 153 -134 240.5t-258 87.5t-268 -112q-70 -70 -91 -167.5t-21 -308.5h585v-98h-585q0 -220 20.5 -318.5t91.5 -168.5q113 -113 269 -113t259.5 88t135.5 240h108q-37 -197 -170 -311.5t-337 -114.5t-343 139
q-115 115 -130 254t-15 303t4.5 286.5t35.5 204.5t105 156q139 139 345 139z" />
    <glyph glyph-name="afii10054" unicode="&#x405;" horiz-adv-x="1202" 
d="M616 86q154 0 254.5 79t100.5 219t-80 208q-38 33 -80 48.5t-131 29.5l-170 26q-167 24 -260 105q-115 95 -115 275t121.5 287t331.5 107q132 0 228 -36.5t192 -120.5l-72 -72q-71 67 -152 101t-221 34t-229.5 -80.5t-89.5 -215.5q0 -134 75 -198t207 -83l170 -27
q100 -15 154.5 -36t105.5 -64q125 -110 125 -288t-131.5 -287t-359.5 -109q-159 0 -272 45.5t-214 146.5l78 78q97 -97 188.5 -134.5t245.5 -37.5z" />
    <glyph glyph-name="afii10055" unicode="&#x406;" horiz-adv-x="561" 
d="M225 0v1458h111v-1458h-111z" />
    <glyph glyph-name="afii10056" unicode="&#x407;" horiz-adv-x="561" 
d="M434 1618v158h119v-158h-119zM225 0v1458h111v-1458h-111zM8 1618v158h119v-158h-119z" />
    <glyph glyph-name="afii10057" unicode="&#x408;" horiz-adv-x="1019" 
d="M381 86q156 0 240 96t84 271v1005h110v-1028q0 -200 -118.5 -321t-314.5 -121t-321 125l76 75q50 -50 103 -76t141 -26z" />
    <glyph glyph-name="afii10058" unicode="&#x409;" horiz-adv-x="2123" 
d="M1167 98h416q163 0 252.5 84t89.5 238t-89.5 237.5t-252.5 83.5h-416v-643zM10 0v98h37q167 0 249.5 172t82.5 621v567h788v-618h428q200 0 320.5 -115t120.5 -305t-120.5 -305t-320.5 -115h-538v1360h-570v-526q0 -590 -139 -712t-278 -122h-60z" />
    <glyph glyph-name="afii10059" unicode="&#x40a;" horiz-adv-x="2162" 
d="M1206 98h416q163 0 252.5 84t89.5 238t-89.5 237.5t-252.5 83.5h-416v-643zM225 0v1458h111v-618h760v618h110v-618h428q200 0 320.5 -115t120.5 -305t-120.5 -305t-320.5 -115h-538v741h-760v-741h-111z" />
    <glyph glyph-name="afii10060" unicode="&#x40b;" horiz-adv-x="1521" 
d="M51 1360v98h981v-98h-497v-479h348q200 0 320 -115t120 -305v-461h-111v461q0 154 -89.5 237.5t-252.5 83.5h-335v-782h-111v1360h-373z" />
    <glyph glyph-name="afii10061" unicode="&#x40c;" horiz-adv-x="1228" 
d="M543 1597l198 301h138l-217 -301h-119zM348 760l678 698h148l-693 -696l748 -762h-156zM236 0v1458h110v-1458h-110z" />
    <glyph glyph-name="uni040D" unicode="&#x40d;" horiz-adv-x="1474" 
d="M467 1898h137l199 -301h-119zM225 0v1458h111v-1274l803 1274h110v-1458h-110v1278l-803 -1278h-111z" />
    <glyph glyph-name="afii10062" unicode="&#x40e;" horiz-adv-x="1093" 
d="M547 1556q-267 0 -287 246h105q16 -164 182 -164t182 164h105q-20 -246 -287 -246zM154 0v98h86q79 0 123.5 37t82.5 127l64 152l-485 1044h118l424 -919l383 919h119l-530 -1237q-92 -221 -275 -221h-110z" />
    <glyph glyph-name="afii10145" unicode="&#x40f;" horiz-adv-x="1431" 
d="M225 0v1458h111v-1360h760v1360h110v-1458h-434v-369h-110v369h-437z" />
    <glyph glyph-name="afii10017" unicode="&#x410;" horiz-adv-x="1232" 
d="M311 453h611l-306 858zM31 0l536 1458h99l536 -1458h-119l-127 354h-680l-126 -354h-119z" />
    <glyph glyph-name="afii10018" unicode="&#x411;" horiz-adv-x="1345" 
d="M336 98h416q163 0 252.5 84t89.5 238t-89.5 237.5t-252.5 83.5h-416v-643zM225 0v1458h889v-98h-778v-520h428q200 0 320 -115t120 -305t-120 -305t-320 -115h-539z" />
    <glyph glyph-name="afii10019" unicode="&#x412;" horiz-adv-x="1374" 
d="M336 795h414q154 0 238.5 73.5t84.5 207.5t-85.5 209t-237.5 75h-414v-565zM336 98h430q152 0 241 80t89 218t-89 219t-241 81h-430v-598zM225 0v1458h537q189 0 305.5 -104t116.5 -268t-111 -269q-41 -36 -117 -67q91 -38 136 -78q114 -104 114 -284t-113.5 -284
t-314.5 -104h-553z" />
    <glyph glyph-name="afii10020" unicode="&#x413;" horiz-adv-x="1155" 
d="M242 0v1458h864v-98h-754v-1360h-110z" />
    <glyph glyph-name="afii10021" unicode="&#x414;" horiz-adv-x="1392" 
d="M1026 98v1262h-559v-533q0 -446 -170 -729h729zM41 98h133q101 160 144.5 355t43.5 473v532h775v-1360h174v-467h-111v369h-1048v-369h-111v467z" />
    <glyph glyph-name="afii10022" unicode="&#x415;" horiz-adv-x="1224" 
d="M225 0v1458h885v-98h-774v-576h659v-98h-659v-588h774v-98h-885z" />
    <glyph glyph-name="afii10024" unicode="&#x416;" horiz-adv-x="1814" 
d="M965 760l647 698h147l-661 -696l717 -762h-156zM852 0v1458h111v-1458h-111zM0 0l717 762l-662 696h148l647 -698l-694 -760h-156z" />
    <glyph glyph-name="afii10025" unicode="&#x417;" horiz-adv-x="1269" 
d="M642 86q150 0 249.5 84t99.5 230t-83.5 221t-239.5 75h-183v99h189q140 0 216.5 75.5t76.5 213.5t-88.5 213t-236.5 75t-250 -88t-134 -240h-113q35 198 168 312t327 114t315.5 -104t121.5 -276q0 -246 -219 -338q244 -83 244 -359q0 -122 -63 -215t-170.5 -141.5
t-241.5 -48.5q-186 0 -317.5 114.5t-166.5 311.5h109q32 -151 136 -239.5t254 -88.5z" />
    <glyph glyph-name="afii10026" unicode="&#x418;" horiz-adv-x="1474" 
d="M225 0v1458h111v-1274l803 1274h110v-1458h-110v1278l-803 -1278h-111z" />
    <glyph glyph-name="afii10027" unicode="&#x419;" horiz-adv-x="1474" 
d="M738 1556q-266 0 -287 246h104q16 -164 182.5 -164t182.5 164h104q-20 -246 -286 -246zM225 0v1458h111v-1274l803 1274h110v-1458h-110v1278l-803 -1278h-111z" />
    <glyph glyph-name="afii10028" unicode="&#x41a;" horiz-adv-x="1228" 
d="M348 760l678 698h148l-693 -696l748 -762h-156zM236 0v1458h110v-1458h-110z" />
    <glyph glyph-name="afii10029" unicode="&#x41b;" horiz-adv-x="1392" 
d="M10 0v98h37q167 0 249.5 172t82.5 621v567h788v-1458h-110v1360h-570v-526q0 -590 -139 -712t-278 -122h-60z" />
    <glyph glyph-name="afii10030" unicode="&#x41c;" horiz-adv-x="1675" 
d="M225 0v1458h111l508 -1124l495 1124h111v-1458h-111v1202l-442 -997h-111l-450 997v-1202h-111z" />
    <glyph glyph-name="afii10031" unicode="&#x41d;" horiz-adv-x="1431" 
d="M225 0v1458h111v-674h760v674h110v-1458h-110v686h-760v-686h-111z" />
    <glyph glyph-name="afii10032" unicode="&#x41e;" horiz-adv-x="1335" 
d="M279 729q0 -249 19 -352.5t93 -177.5q113 -113 277 -113t276 113q74 74 93.5 178t19.5 352t-19.5 352.5t-93.5 178.5q-112 112 -276 112t-277 -112q-74 -74 -93 -178t-19 -353zM668 1470q216 0 354 -139q115 -115 130 -254t15 -303t-4.5 -286.5t-35.5 -204.5t-105 -156
q-138 -139 -354 -139t-355 139q-115 115 -130 254t-15 303t4.5 286.5t35.5 204.5t105 156q139 139 355 139z" />
    <glyph glyph-name="afii10033" unicode="&#x41f;" horiz-adv-x="1431" 
d="M225 0v1458h981v-1458h-110v1360h-760v-1360h-111z" />
    <glyph glyph-name="afii10034" unicode="&#x420;" horiz-adv-x="1292" 
d="M336 717h412q158 0 250 81t92 240t-92 240.5t-250 81.5h-412v-643zM225 0v1458h535q194 0 317 -112.5t123 -307.5t-123 -307.5t-317 -112.5h-424v-618h-111z" />
    <glyph glyph-name="afii10035" unicode="&#x421;" horiz-adv-x="1318" 
d="M658 1470q206 0 337 -114t168 -312h-112q-32 153 -134 240.5t-258 87.5t-268 -112q-74 -74 -93 -178t-19 -353t19 -352.5t93 -177.5q113 -113 269 -113t259.5 88t135.5 240h108q-37 -197 -170 -311.5t-337 -114.5t-343 139q-115 115 -130 254t-15 303t4.5 286.5
t35.5 204.5t105 156q139 139 345 139z" />
    <glyph glyph-name="afii10036" unicode="&#x422;" horiz-adv-x="1103" 
d="M61 1360v98h981v-98h-436v-1360h-110v1360h-435z" />
    <glyph glyph-name="afii10037" unicode="&#x423;" horiz-adv-x="1093" 
d="M154 0v98h86q79 0 123.5 37t82.5 127l64 152l-485 1044h118l424 -919l383 919h119l-530 -1237q-92 -221 -275 -221h-110z" />
    <glyph glyph-name="afii10038" unicode="&#x424;" horiz-adv-x="1556" 
d="M1223.5 1142q-107.5 130 -389.5 134v-995q282 4 389.5 134t107.5 363.5t-107.5 363.5zM333.5 414.5q108.5 -129.5 389.5 -133.5v995q-281 -4 -389.5 -133.5t-108.5 -364t108.5 -364zM115 778q0 292 145 438.5t463 155.5v133h111v-133q318 -9 463 -155.5t145 -438.5
t-145 -438.5t-463 -155.5v-190h-111v190q-318 9 -463 155.5t-145 438.5z" />
    <glyph glyph-name="afii10039" unicode="&#x425;" horiz-adv-x="1089" 
d="M37 0l446 748l-417 710h129l348 -612l350 612h127l-418 -710l451 -748h-129l-381 649l-381 -649h-125z" />
    <glyph glyph-name="afii10040" unicode="&#x426;" horiz-adv-x="1462" 
d="M225 0v1458h111v-1360h760v1360h110v-1360h174v-467h-110v369h-1045z" />
    <glyph glyph-name="afii10041" unicode="&#x427;" horiz-adv-x="1318" 
d="M164 920v538h110v-524q0 -195 100.5 -239t203.5 -44t405 58v749h111v-1458h-111v614q-293 -61 -391 -61t-187 17t-165 101.5t-76 248.5z" />
    <glyph glyph-name="afii10042" unicode="&#x428;" horiz-adv-x="2048" 
d="M225 0v1458h111v-1360h633v1360h110v-1360h633v1360h111v-1458h-1598z" />
    <glyph glyph-name="afii10043" unicode="&#x429;" horiz-adv-x="2078" 
d="M225 0v1458h111v-1360h633v1360h110v-1360h633v1360h111v-1360h174v-467h-111v369h-1661z" />
    <glyph glyph-name="afii10044" unicode="&#x42a;" horiz-adv-x="1490" 
d="M535 98h415q163 0 252.5 84t89.5 238t-89.5 237.5t-252.5 83.5h-415v-643zM61 1360v98h474v-618h428q200 0 320 -115t120 -305t-120 -305t-320 -115h-539v1360h-363z" />
    <glyph glyph-name="afii10045" unicode="&#x42b;" horiz-adv-x="1748" 
d="M1413 0v1458h111v-1458h-111zM336 98h416q163 0 252.5 84t89.5 238t-89.5 237.5t-252.5 83.5h-416v-643zM225 0v1458h111v-618h428q200 0 320 -115t120 -305t-120 -305t-320 -115h-539z" />
    <glyph glyph-name="afii10046" unicode="&#x42c;" horiz-adv-x="1292" 
d="M336 98h416q163 0 252.5 84t89.5 238t-89.5 237.5t-252.5 83.5h-416v-643zM225 0v1458h111v-618h428q200 0 320 -115t120 -305t-120 -305t-320 -115h-539z" />
    <glyph glyph-name="afii10047" unicode="&#x42d;" horiz-adv-x="1318" 
d="M659 86q156 0 269 113q71 70 91.5 168.5t20.5 318.5h-585v98h585q0 211 -21 308.5t-91 167.5q-112 112 -268 112t-258 -87.5t-134 -240.5h-112q37 198 168.5 312t337.5 114t344 -139q115 -115 130 -254t15 -303t-4.5 -286.5t-35.5 -204.5t-105 -156q-140 -139 -344 -139
t-336.5 114.5t-169.5 311.5h108q32 -152 135.5 -240t259.5 -88z" />
    <glyph glyph-name="afii10048" unicode="&#x42e;" horiz-adv-x="1843" 
d="M786 729q0 -248 19.5 -352t93.5 -178q113 -113 277 -113t276 113q74 74 93.5 178t19.5 352t-19.5 352.5t-93.5 178.5q-112 112 -276 112t-277 -112q-74 -74 -93.5 -178.5t-19.5 -352.5zM225 0v1458h111v-674h340q0 243 26 348.5t119 198.5q139 139 355 139t354 -139
q115 -115 130 -254t15 -303t-4.5 -286.5t-35.5 -204.5t-105 -156q-138 -139 -354 -139t-355 139q-93 93 -119 201t-26 358h-340v-686h-111z" />
    <glyph glyph-name="afii10049" unicode="&#x42f;" horiz-adv-x="1345" 
d="M256 1038q0 -154 89.5 -237.5t252.5 -83.5h412v643h-412q-163 0 -252.5 -84t-89.5 -238zM145 1052q0 176 120.5 291t320.5 115h534v-1458h-110v618h-410l-340 -618h-129l348 629q-155 29 -244.5 138t-89.5 285z" />
    <glyph glyph-name="afii10065" unicode="&#x430;" horiz-adv-x="1073" 
d="M219 272q0 -99 62.5 -145.5t169.5 -46.5t165 15t110 64t52 185v127h-307q-252 0 -252 -199zM778 666q0 241 -256 241q-126 0 -187.5 -28.5t-107.5 -96.5l-75 66q61 85 142 118t206 33q192 0 287.5 -82.5t95.5 -240.5v-676h-105v98q-62 -62 -128.5 -86t-174.5 -24
t-175 20.5t-114 69.5q-71 74 -71 200t91 201.5t253 75.5h319v111z" />
    <glyph glyph-name="afii10066" unicode="&#x431;" horiz-adv-x="1081" 
d="M258 487q0 -126 22.5 -200t71.5 -125q82 -82 202 -82t200 82q47 47 66.5 120.5t19.5 205.5q0 249 -83 333t-203 84q-120 1 -208 -89t-88 -329zM559 997q385 0 385 -503q0 -148 -28.5 -242t-92.5 -158q-103 -106 -260 -106t-257.5 81.5t-131.5 221.5q-20 89 -20 252v269
q0 268 27 350t48 109t49 55t77 52.5t95.5 38.5t113 24t109 13.5t109 7.5t90.5 6v-100q-24 -2 -117 -6t-267.5 -32t-204 -178t-29.5 -312q33 68 122.5 112.5t182.5 44.5z" />
    <glyph glyph-name="afii10067" unicode="&#x432;" horiz-adv-x="1095" 
d="M303 553h322q96 0 149 46.5t53 128.5t-52.5 126.5t-149.5 44.5h-322v-346zM303 88h332q98 0 153.5 50.5t55.5 137.5t-56 139t-153 52h-332v-379zM764 512q184 -58 184 -261q0 -108 -77.5 -179.5t-213.5 -71.5h-458v987h448q128 0 206.5 -69.5t78.5 -167.5
q0 -184 -168 -238z" />
    <glyph glyph-name="afii10068" unicode="&#x433;" horiz-adv-x="841" 
d="M207 0v987h614v-92h-510v-895h-104z" />
    <glyph glyph-name="afii10069" unicode="&#x434;" horiz-adv-x="1128" 
d="M797 92v803h-381v-221q0 -408 -125 -582h506zM51 92h121q45 64 72.5 126.5t49 186.5t21.5 295v287h586v-895h154v-399h-105v307h-794v-307h-105v399z" />
    <glyph glyph-name="afii10070" unicode="&#x435;" horiz-adv-x="1071" 
d="M538 907q-86 0 -153 -44.5t-95 -103.5t-33.5 -92t-10.5 -112h581q-9 129 -37 197q-29 67 -97.5 111t-154.5 44zM141 490q0 243 105 376t291 133t290.5 -127t104.5 -354v-47h-686q0 -190 81.5 -289.5t239.5 -99.5q86 0 147.5 27.5t125.5 91.5l78 -62q-79 -79 -159 -115
t-198 -36q-204 0 -312 129.5t-108 372.5z" />
    <glyph glyph-name="afii10072" unicode="&#x436;" horiz-adv-x="1431" 
d="M770 510l461 477h135l-461 -469l508 -518h-143zM664 0v987h104v-987h-104zM18 0l508 518l-460 469h135l461 -477l-500 -510h-144z" />
    <glyph glyph-name="afii10073" unicode="&#x437;" horiz-adv-x="976" 
d="M434 82q84 0 147 22t105.5 67t42.5 103q0 91 -62 140t-165 49h-142v88h146q92 0 148.5 47t56.5 132t-66 131t-178 46q-160 0 -285 -86l-61 74q149 104 323 104t271.5 -71t97.5 -195q0 -79 -43 -139t-123 -84q84 -23 133 -87t49 -151q0 -128 -108.5 -205t-246.5 -77
t-225 31.5t-173 109.5l71 72q70 -68 136.5 -94.5t150.5 -26.5z" />
    <glyph glyph-name="afii10074" unicode="&#x438;" horiz-adv-x="1173" 
d="M199 0v987h104v-835l567 835h105v-987h-105v836l-567 -836h-104z" />
    <glyph glyph-name="afii10075" unicode="&#x439;" horiz-adv-x="1173" 
d="M588 1264q167 0 182 163h104q-20 -245 -286 -245t-287 245h105q15 -163 182 -163zM199 0v987h104v-835l567 835h105v-987h-105v836l-567 -836h-104z" />
    <glyph glyph-name="afii10076" unicode="&#x43a;" horiz-adv-x="993" 
d="M315 510l478 477h135l-477 -469l524 -518h-144zM209 0v987h104v-987h-104z" />
    <glyph glyph-name="afii10077" unicode="&#x43b;" horiz-adv-x="1091" 
d="M41 0v88h31q33 0 58.5 6.5t96 64.5t70.5 396v432h596v-987h-105v899h-389v-383q0 -435 -129.5 -475.5t-183.5 -40.5h-45z" />
    <glyph glyph-name="afii10078" unicode="&#x43c;" horiz-adv-x="1327" 
d="M199 0v987h104l365 -743l356 743h104v-987h-104v774l-309 -635h-99l-313 635v-774h-104z" />
    <glyph glyph-name="afii10079" unicode="&#x43d;" horiz-adv-x="1144" 
d="M199 0v987h104v-430h539v430h104v-987h-104v465h-539v-465h-104z" />
    <glyph glyph-name="afii10080" unicode="&#x43e;" horiz-adv-x="1077" 
d="M246 494q0 -112 16.5 -193.5t71.5 -136.5q84 -84 204 -84t205 84q55 55 71.5 136.5t16.5 193.5t-16.5 193t-71.5 136q-85 84 -205 84t-204 -84q-55 -55 -71.5 -136t-16.5 -193zM141 494q-1 274 115 390t282 115q166 1 282 -115t116 -390t-116 -390t-282 -116t-282 116
t-115 390z" />
    <glyph glyph-name="afii10081" unicode="&#x43f;" horiz-adv-x="1132" 
d="M199 0v987h747v-987h-104v895h-539v-895h-104z" />
    <glyph glyph-name="afii10082" unicode="&#x440;" horiz-adv-x="1105" 
d="M303 494q0 -69 5.5 -123t23 -110.5t47.5 -94.5t81.5 -62t121.5 -24t121.5 24t81 61.5t47 95t23 111t5.5 122.5t-5.5 122.5t-23 110.5t-47 94.5t-81 61.5t-121.5 24t-121.5 -24t-81.5 -61.5t-47.5 -94.5t-23 -110.5t-5.5 -122.5zM199 -471v1458h104v-127q62 81 130.5 110
t153.5 29q165 0 251 -86q127 -127 127 -419q0 -397 -146.5 -451.5t-231.5 -54.5t-153.5 29t-130.5 110v-598h-104z" />
    <glyph glyph-name="afii10083" unicode="&#x441;" horiz-adv-x="1009" 
d="M141 494q0 235 116 370t318 135q104 0 177 -32.5t149 -118.5l-72 -66q-63 70 -119 97.5t-135 27.5q-174 0 -262 -131q-37 -54 -52 -118t-15 -206.5t67 -240.5q88 -131 262 -131q78 0 134.5 28t119.5 97l72 -66q-76 -86 -149 -118.5t-177 -32.5q-202 0 -318 135.5
t-116 370.5z" />
    <glyph glyph-name="afii10084" unicode="&#x442;" horiz-adv-x="837" 
d="M20 895v92h797v-92h-336v-895h-104v895h-357z" />
    <glyph glyph-name="afii10085" unicode="&#x443;" horiz-adv-x="880" 
d="M139 -446h-49v92h39q103 0 132 41t48 94l80 219l-360 987h114l297 -864l297 864h115l-459 -1255q-28 -82 -67 -115q-66 -63 -187 -63z" />
    <glyph glyph-name="afii10086" unicode="&#x444;" horiz-adv-x="1366" 
d="M1139 494q0 185 -103.5 296t-300.5 117v-827q197 6 300.5 117.5t103.5 296.5zM227 494q0 -185 103.5 -296.5t300.5 -117.5v827q-197 -6 -300.5 -117t-103.5 -296zM123 494q0 239 131.5 366.5t376.5 138.5v459h104v-459q245 -11 376.5 -138.5t131.5 -366.5t-131.5 -367
t-376.5 -139v-459h-104v459q-245 11 -376.5 139t-131.5 367z" />
    <glyph glyph-name="afii10087" unicode="&#x445;" horiz-adv-x="942" 
d="M82 0l334 504l-320 483h127l250 -397l246 397h127l-320 -483l334 -504h-127l-260 416l-264 -416h-127z" />
    <glyph glyph-name="afii10088" unicode="&#x446;" horiz-adv-x="1173" 
d="M199 0v987h104v-899h539v899h104v-899h154v-395h-105v307h-796z" />
    <glyph glyph-name="afii10089" unicode="&#x447;" horiz-adv-x="1085" 
d="M162 643v344h104v-334q0 -107 54 -152.5t168 -45.5t294 37v495h105v-987h-105v399q-210 -43 -327 -43q-293 0 -293 287z" />
    <glyph glyph-name="afii10090" unicode="&#x448;" horiz-adv-x="1624" 
d="M199 0v987h104v-895h457v895h104v-895h457v895h104v-987h-1226z" />
    <glyph glyph-name="afii10091" unicode="&#x449;" horiz-adv-x="1652" 
d="M199 0v987h104v-895h457v895h104v-895h457v895h104v-895h154v-399h-104v307h-1276z" />
    <glyph glyph-name="afii10092" unicode="&#x44a;" horiz-adv-x="1112" 
d="M395 92h314q217 0 217 198t-217 199h-314v-397zM20 899v88h375v-405h330q138 0 221.5 -79.5t83.5 -211.5t-83.5 -211.5t-221.5 -79.5h-434v899h-271z" />
    <glyph glyph-name="afii10093" unicode="&#x44b;" horiz-adv-x="1390" 
d="M1087 0v987h105v-987h-105zM303 92h293q217 0 217 198t-217 199h-293v-397zM199 0v987h104v-405h309q138 0 222 -79.5t84 -211.5t-84 -211.5t-222 -79.5h-413z" />
    <glyph glyph-name="afii10094" unicode="&#x44c;" horiz-adv-x="1019" 
d="M303 92h313q218 0 218 198t-218 199h-313v-397zM199 0v987h104v-405h330q138 0 221.5 -79.5t83.5 -211.5t-83.5 -211.5t-221.5 -79.5h-434z" />
    <glyph glyph-name="afii10095" unicode="&#x44d;" horiz-adv-x="1009" 
d="M435 80q172 0 250.5 112.5t78.5 278.5h-469v84h467q-8 158 -92 255t-240 97q-80 0 -134.5 -30t-115.5 -95l-71 66q80 83 147 117t172 34q206 0 323 -134.5t117 -370.5t-117.5 -371t-322.5 -135q-105 0 -173 34t-146 117l71 66q62 -67 116.5 -96t138.5 -29z" />
    <glyph glyph-name="afii10096" unicode="&#x44e;" horiz-adv-x="1458" 
d="M627 494q0 -112 16.5 -193.5t71.5 -136.5q85 -84 205 -84t204 84q55 55 71.5 136.5t16.5 193.5t-16.5 193t-71.5 136q-84 84 -204 84t-205 -84q-55 -55 -71.5 -136t-16.5 -193zM199 0v987h104v-436h219q11 228 121 338q111 110 277 110q166 1 282 -115t115 -390
q1 -274 -115 -390t-282 -116t-280 112t-118 363h-219v-463h-104z" />
    <glyph glyph-name="afii10097" unicode="&#x44f;" horiz-adv-x="1073" 
d="M238 694q0 -98 56.5 -151.5t162.5 -53.5h313v410h-313q-106 0 -162.5 -53.5t-56.5 -151.5zM131 704q0 124 83.5 203.5t221.5 79.5h438v-987h-104v401h-276l-234 -401h-123l242 406q-114 17 -181 95.5t-67 202.5z" />
    <glyph glyph-name="uni0450" unicode="&#x450;" horiz-adv-x="1071" 
d="M301 1509h137l199 -301h-119zM538 907q-86 0 -153 -44.5t-95 -103.5t-33.5 -92t-10.5 -112h581q-9 129 -37 197q-29 67 -97.5 111t-154.5 44zM141 490q0 243 105 376t291 133t290.5 -127t104.5 -354v-47h-686q0 -190 81.5 -289.5t239.5 -99.5q86 0 147.5 27.5t125.5 91.5
l78 -62q-79 -79 -159 -115t-198 -36q-204 0 -312 129.5t-108 372.5z" />
    <glyph glyph-name="afii10071" unicode="&#x451;" horiz-adv-x="1071" 
d="M694 1229v157h119v-157h-119zM268 1229v157h119v-157h-119zM538 907q-86 0 -153 -44.5t-95 -103.5t-33.5 -92t-10.5 -112h581q-9 129 -37 197q-29 67 -97.5 111t-154.5 44zM141 490q0 243 105 376t291 133t290.5 -127t104.5 -354v-47h-686q0 -190 81.5 -289.5
t239.5 -99.5q86 0 147.5 27.5t125.5 91.5l78 -62q-79 -79 -159 -115t-198 -36q-204 0 -312 129.5t-108 372.5z" />
    <glyph glyph-name="afii10099" unicode="&#x452;" horiz-adv-x="1144" 
d="M854 612q0 295 -262 295q-133 0 -211 -78.5t-78 -216.5v-612h-104v1155h-125v78h125v225h104v-225h520v-78h-520v-285q65 68 136.5 98.5t166.5 30.5q166 0 259 -98.5t93 -269.5v-805q0 -129 -71.5 -213t-206.5 -84h-90v92h72q89 0 140.5 58t51.5 149v784z" />
    <glyph glyph-name="afii10100" unicode="&#x453;" horiz-adv-x="841" 
d="M377 1208l198 301h138l-217 -301h-119zM207 0v987h614v-92h-510v-895h-104z" />
    <glyph glyph-name="afii10101" unicode="&#x454;" horiz-adv-x="1009" 
d="M141 494q0 236 117.5 370.5t323.5 134.5q105 0 172 -34t147 -117l-72 -66q-61 66 -115 95.5t-134 29.5q-156 0 -240 -97t-92 -255h467v-84h-469q0 -166 78.5 -278.5t253.5 -112.5q81 0 135 29t116 96l72 -66q-78 -83 -146 -117t-173 -34q-206 0 -323.5 135t-117.5 371z
" />
    <glyph glyph-name="afii10102" unicode="&#x455;" horiz-adv-x="1011" 
d="M498 80q297 0 297 201q0 78 -45 117t-144 48l-164 15q-297 24 -297 258q0 129 96.5 204.5t280.5 75.5t324 -104l-70 -70q-116 84 -258 84q-270 0 -270 -190q0 -77 48 -116t153 -50l159 -14q218 -23 253.5 -105.5t35.5 -152.5q0 -135 -106 -214t-289 -79q-253 0 -400 141
l72 72q115 -121 324 -121z" />
    <glyph glyph-name="afii10103" unicode="&#x456;" horiz-adv-x="501" 
d="M199 0v987h104v-987h-104zM186 1329v129h129v-129h-129z" />
    <glyph glyph-name="afii10104" unicode="&#x457;" horiz-adv-x="501" 
d="M406 1229v157h118v-157h-118zM199 0v987h104v-987h-104zM-20 1229v157h118v-157h-118z" />
    <glyph glyph-name="afii10105" unicode="&#x458;" horiz-adv-x="501" 
d="M186 1329v129h129v-129h-129zM-25 -379h72q85 0 118.5 39t33.5 127v1200h104v-1202q0 -121 -59.5 -188.5t-177.5 -67.5h-91v92z" />
    <glyph glyph-name="afii10106" unicode="&#x459;" horiz-adv-x="1632" 
d="M915 88h314q106 0 161.5 52t55.5 150t-56 151t-161 53h-314v-406zM41 0v88h31q33 0 58.5 6.5t96 64.5t70.5 396v432h618v-405h330q138 0 221.5 -79.5t83.5 -211.5t-83.5 -211.5t-221.5 -79.5h-434v899h-412v-383q0 -435 -129.5 -475.5t-183.5 -40.5h-45z" />
    <glyph glyph-name="afii10107" unicode="&#x45a;" horiz-adv-x="1662" 
d="M946 88h314q106 0 161.5 52t55.5 150t-56 151t-161 53h-314v-406zM199 0v987h104v-405h539v405h104v-405h330q138 0 221.5 -79.5t83.5 -211.5t-83.5 -211.5t-221.5 -79.5h-434v494h-539v-494h-104z" />
    <glyph glyph-name="afii10108" unicode="&#x45b;" horiz-adv-x="1144" 
d="M74 1155v78h125v225h104v-225h520v-78h-520v-285q66 69 132.5 99t160.5 30q167 0 264.5 -99t97.5 -269v-631h-104v612q0 143 -70 219t-202 76t-205.5 -77.5t-73.5 -217.5v-612h-104v1155h-125z" />
    <glyph glyph-name="afii10109" unicode="&#x45c;" horiz-adv-x="993" 
d="M430 1208l199 301h137l-217 -301h-119zM315 510l478 477h135l-477 -469l524 -518h-144zM209 0v987h104v-987h-104z" />
    <glyph glyph-name="uni045D" unicode="&#x45d;" horiz-adv-x="1173" 
d="M313 1509h138l198 -301h-119zM199 0v987h104v-835l567 835h105v-987h-105v836l-567 -836h-104z" />
    <glyph glyph-name="afii10110" unicode="&#x45e;" horiz-adv-x="880" 
d="M440 1264q167 0 183 163h104q-21 -245 -287 -245t-286 245h104q15 -163 182 -163zM139 -446h-49v92h39q103 0 132 41t48 94l80 219l-360 987h114l297 -864l297 864h115l-459 -1255q-28 -82 -67 -115q-66 -63 -187 -63z" />
    <glyph glyph-name="afii10193" unicode="&#x45f;" horiz-adv-x="1144" 
d="M199 0v987h104v-899h539v899h104v-987h-321v-307h-105v307h-321z" />
    <glyph glyph-name="afii10146" unicode="&#x462;" horiz-adv-x="1314" 
d="M358 98h416q163 0 252.5 84t89.5 238t-89.5 237.5t-252.5 83.5h-416v-643zM82 1145v86h166v227h110v-227h365v-86h-365v-305h428q200 0 320.5 -115t120.5 -305t-120.5 -305t-320.5 -115h-538v1145h-166z" />
    <glyph glyph-name="afii10194" unicode="&#x463;" horiz-adv-x="1019" 
d="M303 88h313q106 0 162 52t56 150t-56.5 151t-161.5 53h-313v-406zM66 799v73h133v115h104v-115h279v-73h-279v-217h330q138 0 221.5 -79.5t83.5 -211.5t-83.5 -211.5t-221.5 -79.5h-434v799h-133z" />
    <glyph glyph-name="afii10147" unicode="&#x472;" horiz-adv-x="1335" 
d="M279 784h778q-2 213 -22.5 309.5t-90.5 166.5q-112 112 -276 112t-277 -112q-70 -70 -91 -167.5t-21 -308.5zM279 686q0 -220 20.5 -318.5t91.5 -168.5q113 -113 277 -113t276 113q70 70 90.5 169t22.5 318h-778zM668 1470q216 0 354 -139q115 -115 130 -254t15 -303
t-4.5 -286.5t-35.5 -204.5t-105 -156q-138 -139 -354 -139t-355 139q-115 115 -130 254t-15 303t4.5 286.5t35.5 204.5t105 156q139 139 355 139z" />
    <glyph glyph-name="afii10195" unicode="&#x473;" horiz-adv-x="1077" 
d="M538 907q-120 0 -202 -82t-90 -270h583q-4 186 -87 269q-84 83 -204 83zM246 471q0 -102 17.5 -179t70.5 -128q84 -84 204 -84t205 84q51 51 68.5 127t19.5 180h-585zM141 494q-1 274 115 390t282 115q166 1 282 -115t116 -390t-116 -390t-282 -116t-282 116t-115 390z
" />
    <glyph glyph-name="afii10148" unicode="&#x474;" horiz-adv-x="1093" 
d="M1159 1458h111v-98h-76q-81 0 -130 -40t-77 -124l-393 -1196h-94l-480 1458h117l410 -1263l338 1042q33 102 103.5 161.5t170.5 59.5z" />
    <glyph glyph-name="afii10196" unicode="&#x475;" horiz-adv-x="880" 
d="M930 987h49v-88h-39q-74 0 -107 -27t-63 -108l-278 -764h-103l-360 987h114l297 -864l236 686q26 77 67 115q69 63 187 63z" />
    <glyph glyph-name="afii10050" unicode="&#x490;" horiz-adv-x="1155" 
d="M242 0v1458h753v348h111v-446h-754v-1360h-110z" />
    <glyph glyph-name="afii10098" unicode="&#x491;" horiz-adv-x="841" 
d="M207 0v987h510v328h104v-416h-510v-899h-104z" />
    <glyph glyph-name="uni0492" unicode="&#x492;" horiz-adv-x="1142" 
d="M63 692v86h166v680h865v-98h-754v-582h365v-86h-365v-692h-111v692h-166z" />
    <glyph glyph-name="uni0493" unicode="&#x493;" horiz-adv-x="813" 
d="M45 504v74h133v409h615v-88h-510v-321h278v-74h-278v-504h-105v504h-133z" />
    <glyph glyph-name="uni0496" unicode="&#x496;" horiz-adv-x="1814" 
d="M1815 98v-467h-111v369h-45l-694 760l647 698h147l-661 -696l624 -664h93zM852 0v1458h111v-1458h-111zM0 0l717 762l-662 696h148l647 -698l-694 -760h-156z" />
    <glyph glyph-name="uni0497" unicode="&#x497;" horiz-adv-x="1431" 
d="M1413 92v-399h-104v307h-39l-500 510l461 477h135l-461 -469l418 -426h90zM664 0v987h104v-987h-104zM18 0l508 518l-460 469h135l461 -477l-500 -510h-144z" />
    <glyph glyph-name="uni049A" unicode="&#x49a;" horiz-adv-x="1228" 
d="M1229 98v-467h-111v369h-45l-725 760l678 698h148l-693 -696l652 -664h96zM236 0v1458h110v-1458h-110z" />
    <glyph glyph-name="uni049B" unicode="&#x49b;" horiz-adv-x="993" 
d="M975 92v-399h-105v307h-39l-516 510l478 477h135l-477 -469l430 -426h94zM209 0v987h104v-987h-104z" />
    <glyph glyph-name="uni049C" unicode="&#x49c;" horiz-adv-x="1314" 
d="M236 0v1458h110v-653h86v330h109v-330h55l516 653h148l-570 -696l625 -762h-156l-557 707h-61v-330h-109v330h-86v-707h-110z" />
    <glyph glyph-name="uni049D" unicode="&#x49d;" horiz-adv-x="1085" 
d="M209 0v987h104v-432h82v274h103v-274h51l336 432h135l-375 -469l422 -518h-143l-377 467h-49v-274h-103v274h-82v-467h-104z" />
    <glyph glyph-name="uni04A2" unicode="&#x4a2;" horiz-adv-x="1431" 
d="M225 0v1458h111v-674h760v674h110v-1360h56v-467h-111v369h-55v686h-760v-686h-111z" />
    <glyph glyph-name="uni04A3" unicode="&#x4a3;" horiz-adv-x="1144" 
d="M199 0v987h104v-430h539v430h104v-895h51v-399h-104v307h-51v465h-539v-465h-104z" />
    <glyph glyph-name="uni04AE" unicode="&#x4ae;" horiz-adv-x="1011" 
d="M561 0h-110v604l-431 854h119l371 -737l362 737h119l-430 -854v-604z" />
    <glyph glyph-name="uni04AF" unicode="&#x4af;" horiz-adv-x="880" 
d="M494 -471h-105v471l-360 987h114l297 -864l297 864h115l-358 -987v-471z" />
    <glyph glyph-name="uni04B0" unicode="&#x4b0;" horiz-adv-x="1011" 
d="M825 604v-86h-264v-518h-110v518h-265v86h265l-431 854h119l371 -737l362 737h119l-430 -854h264z" />
    <glyph glyph-name="uni04B1" unicode="&#x4b1;" horiz-adv-x="880" 
d="M688 0v-74h-194v-397h-105v397h-194v74h194l-360 987h114l297 -864l297 864h115l-358 -987h194z" />
    <glyph glyph-name="uni04B2" unicode="&#x4b2;" horiz-adv-x="1089" 
d="M1053 98v-467h-111v369h-18l-381 649l-381 -649h-125l446 748l-417 710h129l348 -612l350 612h127l-418 -710l391 -650h60z" />
    <glyph glyph-name="uni04B3" unicode="&#x4b3;" horiz-adv-x="942" 
d="M860 92v-399h-104v307h-23l-260 416l-264 -416h-127l334 504l-320 483h127l250 -397l246 397h127l-320 -483l273 -412h61z" />
    <glyph glyph-name="uni04B6" unicode="&#x4b6;" horiz-adv-x="1318" 
d="M164 920v538h110v-524q0 -195 100.5 -239t203.5 -44t405 58v749h111v-1360h55v-467h-111v369h-55v614q-293 -61 -391 -61t-187 17t-165 101.5t-76 248.5z" />
    <glyph glyph-name="uni04B7" unicode="&#x4b7;" horiz-adv-x="1085" 
d="M162 643v344h104v-334q0 -107 54 -152.5t168 -45.5t294 37v495h105v-895h51v-399h-104v307h-52v399q-210 -43 -327 -43q-293 0 -293 287z" />
    <glyph glyph-name="uni04B8" unicode="&#x4b8;" horiz-adv-x="1318" 
d="M164 920v538h110v-524q0 -195 100.5 -239t200.5 -44v332h109v-326q46 5 299 52v749h111v-1458h-111v614q-188 -39 -299 -53v-342h-109v334h-18q-298 0 -345.5 142t-47.5 225z" />
    <glyph glyph-name="uni04B9" unicode="&#x4b9;" horiz-adv-x="1085" 
d="M162 643v344h104v-334q0 -107 53.5 -152.5t153.5 -45.5v270h102v-266q86 7 207 33v495h105v-987h-105v399q-96 -23 -207 -34v-279h-102v270h-18q-293 0 -293 287z" />
    <glyph glyph-name="uni04BA" unicode="&#x4ba;" horiz-adv-x="1318" 
d="M225 0v1458h111v-614q294 61 392 61t187 -17t164.5 -101t75.5 -248v-539h-111v524q0 195 -100.5 239t-206.5 44q-105 0 -401 -57v-750h-111z" />
    <glyph glyph-name="uni04BB" unicode="&#x4bb;" horiz-adv-x="1085" 
d="M199 0v987h104v-399q210 43 328 43q293 0 293 -287v-344h-105v334q0 107 -53.5 152.5t-169.5 45.5t-293 -36v-496h-104z" />
    <glyph glyph-name="uni04C0" unicode="&#x4c0;" horiz-adv-x="561" 
d="M225 0v1458h111v-1458h-111z" />
    <glyph glyph-name="uni04CF" unicode="&#x4cf;" horiz-adv-x="493" 
d="M195 0v1458h104v-1458h-104z" />
    <glyph glyph-name="uni04D8" unicode="&#x4d8;" horiz-adv-x="1333" 
d="M274 516q0 -177 88 -289q56 -68 136 -104.5t168 -36.5q163 0 276 113q68 68 89.5 160.5t23.5 287.5h-781v-131zM164 508v237h891q0 237 -20 339.5t-93 175.5q-112 112 -268 112t-259.5 -88t-135.5 -240h-111q32 192 169.5 309t340.5 117t342 -139q115 -115 130 -254
t15 -303t-4.5 -286.5t-35.5 -204.5t-105 -156q-139 -139 -354 -139q-110 0 -211 44.5t-169 119.5t-95 157.5t-27 198.5z" />
    <glyph glyph-name="afii10846" unicode="&#x4d9;" horiz-adv-x="1071" 
d="M535 80q87 0 172.5 55t99 138.5t18.5 158.5h-581q5 -79 10.5 -112t24.5 -74q32 -78 100.5 -122t155.5 -44zM139 469v47h686q0 190 -81.5 289.5t-239.5 99.5q-86 0 -147.5 -27.5t-125.5 -91.5l-77 62q79 79 158.5 115t197.5 36q204 0 312 -129t108 -372t-104.5 -376.5
t-290.5 -133.5t-291 127t-105 354z" />
    <glyph glyph-name="uni04E2" unicode="&#x4e2;" horiz-adv-x="1474" 
d="M434 1638v95h606v-95h-606zM225 0v1458h111v-1274l803 1274h110v-1458h-110v1278l-803 -1278h-111z" />
    <glyph glyph-name="uni04E3" unicode="&#x4e3;" horiz-adv-x="1173" 
d="M283 1249v94h606v-94h-606zM199 0v987h104v-835l567 835h105v-987h-105v836l-567 -836h-104z" />
    <glyph glyph-name="uni04E8" unicode="&#x4e8;" horiz-adv-x="1335" 
d="M279 784h778q-2 213 -22.5 309.5t-90.5 166.5q-112 112 -276 112t-277 -112q-70 -70 -91 -167.5t-21 -308.5zM279 686q0 -220 20.5 -318.5t91.5 -168.5q113 -113 277 -113t276 113q70 70 90.5 169t22.5 318h-778zM668 1470q216 0 354 -139q115 -115 130 -254t15 -303
t-4.5 -286.5t-35.5 -204.5t-105 -156q-138 -139 -354 -139t-355 139q-115 115 -130 254t-15 303t4.5 286.5t35.5 204.5t105 156q139 139 355 139z" />
    <glyph glyph-name="uni04E9" unicode="&#x4e9;" horiz-adv-x="1077" 
d="M538 907q-120 0 -202 -82t-90 -270h583q-4 186 -87 269q-84 83 -204 83zM246 471q0 -102 17.5 -179t70.5 -128q84 -84 204 -84t205 84q51 51 68.5 127t19.5 180h-585zM141 494q-1 274 115 390t282 115q166 1 282 -115t116 -390t-116 -390t-282 -116t-282 116t-115 390z
" />
    <glyph glyph-name="uni04EE" unicode="&#x4ee;" horiz-adv-x="1093" 
d="M264 1638v95h606v-95h-606zM154 0v98h86q79 0 123.5 37t82.5 127l64 152l-485 1044h118l424 -919l383 919h119l-530 -1237q-92 -221 -275 -221h-110z" />
    <glyph glyph-name="uni04EF" unicode="&#x4ef;" horiz-adv-x="880" 
d="M137 1249v94h606v-94h-606zM139 -446h-49v92h39q103 0 132 41t48 94l80 219l-360 987h114l297 -864l297 864h115l-459 -1255q-28 -82 -67 -115q-66 -63 -187 -63z" />
    <glyph glyph-name="Wgrave" unicode="&#x1e80;" horiz-adv-x="1724" 
d="M580 1898h137l198 -301h-118zM41 1458h117l307 -1268l340 1268h115l340 -1268l307 1268h116l-364 -1458h-113l-344 1270l-344 -1270h-112z" />
    <glyph glyph-name="wgrave" unicode="&#x1e81;" horiz-adv-x="1458" 
d="M457 1509h137l199 -301h-119zM29 987h114l252 -864l283 864h102l283 -864l252 864h115l-316 -987h-106l-279 823l-278 -823h-107z" />
    <glyph glyph-name="Wacute" unicode="&#x1e82;" horiz-adv-x="1724" 
d="M807 1597l199 301h137l-217 -301h-119zM41 1458h117l307 -1268l340 1268h115l340 -1268l307 1268h116l-364 -1458h-113l-344 1270l-344 -1270h-112z" />
    <glyph glyph-name="wacute" unicode="&#x1e83;" horiz-adv-x="1458" 
d="M668 1208l198 301h138l-218 -301h-118zM29 987h114l252 -864l283 864h102l283 -864l252 864h115l-316 -987h-106l-279 823l-278 -823h-107z" />
    <glyph glyph-name="Wdieresis" unicode="&#x1e84;" horiz-adv-x="1724" 
d="M1014 1618v158h119v-158h-119zM588 1618v158h119v-158h-119zM41 1458h117l307 -1268l340 1268h115l340 -1268l307 1268h116l-364 -1458h-113l-344 1270l-344 -1270h-112z" />
    <glyph glyph-name="wdieresis" unicode="&#x1e85;" horiz-adv-x="1458" 
d="M883 1229v157h118v-157h-118zM457 1229v157h118v-157h-118zM29 987h114l252 -864l283 864h102l283 -864l252 864h115l-316 -987h-106l-279 823l-278 -823h-107z" />
    <glyph glyph-name="uni1E8A" unicode="&#x1e8a;" horiz-adv-x="1089" 
d="M479 1638v129h127v-129h-127zM37 0l446 748l-417 710h129l348 -612l350 612h127l-418 -710l451 -748h-129l-381 649l-381 -649h-125z" />
    <glyph glyph-name="uni1E8B" unicode="&#x1e8b;" horiz-adv-x="942" 
d="M410 1249v129h127v-129h-127zM82 0l334 504l-320 483h127l250 -397l246 397h127l-320 -483l334 -504h-127l-260 416l-264 -416h-127z" />
    <glyph glyph-name="Ygrave" unicode="&#x1ef2;" horiz-adv-x="1011" 
d="M244 1898h137l199 -301h-119zM561 0h-110v604l-431 854h119l371 -737l362 737h119l-430 -854v-604z" />
    <glyph glyph-name="ygrave" unicode="&#x1ef3;" horiz-adv-x="880" 
d="M150 1509h137l198 -301h-118zM139 -446h-49v92h39q103 0 132 41t48 94l80 219l-360 987h114l297 -864l297 864h115l-459 -1255q-28 -82 -67 -115q-66 -63 -187 -63z" />
    <glyph glyph-name="uni2000" unicode="&#x2000;" horiz-adv-x="1159" 
 />
    <glyph glyph-name="uni2001" unicode="&#x2001;" horiz-adv-x="2318" 
 />
    <glyph glyph-name="uni2002" unicode="&#x2002;" horiz-adv-x="1159" 
 />
    <glyph glyph-name="uni2003" unicode="&#x2003;" horiz-adv-x="2318" 
 />
    <glyph glyph-name="uni2004" unicode="&#x2004;" horiz-adv-x="772" 
 />
    <glyph glyph-name="uni2005" unicode="&#x2005;" horiz-adv-x="579" 
 />
    <glyph glyph-name="uni2006" unicode="&#x2006;" horiz-adv-x="386" 
 />
    <glyph glyph-name="uni2007" unicode="&#x2007;" 
 />
    <glyph glyph-name="uni2008" unicode="&#x2008;" horiz-adv-x="540" 
 />
    <glyph glyph-name="uni2009" unicode="&#x2009;" horiz-adv-x="463" 
 />
    <glyph glyph-name="uni200A" unicode="&#x200a;" horiz-adv-x="128" 
 />
    <glyph glyph-name="uni200B" unicode="&#x200b;" horiz-adv-x="0" 
 />
    <glyph glyph-name="uni2010" unicode="&#x2010;" horiz-adv-x="872" 
d="M168 492v96h537v-96h-537z" />
    <glyph glyph-name="uni2011" unicode="&#x2011;" horiz-adv-x="872" 
d="M168 492v96h537v-96h-537z" />
    <glyph glyph-name="figuredash" unicode="&#x2012;" horiz-adv-x="872" 
d="M168 492v96h537v-96h-537z" />
    <glyph glyph-name="endash" unicode="&#x2013;" 
d="M109 492v96h835v-96h-835z" />
    <glyph glyph-name="emdash" unicode="&#x2014;" horiz-adv-x="1787" 
d="M168 492v96h1452v-96h-1452z" />
    <glyph glyph-name="afii00208" unicode="&#x2015;" horiz-adv-x="1787" 
d="M168 492v96h1452v-96h-1452z" />
    <glyph glyph-name="quoteleft" unicode="&#x2018;" horiz-adv-x="532" 
d="M195 1315v143l143 144v-287h-143z" />
    <glyph glyph-name="quoteright" unicode="&#x2019;" horiz-adv-x="532" 
d="M195 1458h143v-143l-143 -144v287z" />
    <glyph glyph-name="quotesinglbase" unicode="&#x201a;" horiz-adv-x="532" 
d="M195 143h143v-143l-143 -143v286z" />
    <glyph glyph-name="quotedblleft" unicode="&#x201c;" horiz-adv-x="851" 
d="M514 1315v143l143 144v-287h-143zM195 1315v143l143 144v-287h-143z" />
    <glyph glyph-name="quotedblright" unicode="&#x201d;" horiz-adv-x="851" 
d="M514 1458h143v-143l-143 -144v287zM195 1458h143v-143l-143 -144v287z" />
    <glyph glyph-name="quotedblbase" unicode="&#x201e;" horiz-adv-x="851" 
d="M514 143h143v-143l-143 -143v286zM195 143h143v-143l-143 -143v286z" />
    <glyph glyph-name="dagger" unicode="&#x2020;" horiz-adv-x="1257" 
d="M164 936v92h409v430h105v-430h416v-92h-416v-936h-105v936h-409z" />
    <glyph glyph-name="daggerdbl" unicode="&#x2021;" horiz-adv-x="1257" 
d="M164 -41v92h409v885h-409v92h409v430h105v-430h416v-92h-416v-885h416v-92h-416v-430h-105v430h-409z" />
    <glyph glyph-name="bullet" unicode="&#x2022;" horiz-adv-x="1118" 
d="M225 684q0 138 98 236t236 98t236 -98t98 -236t-98 -236t-236 -98t-236 98t-98 236z" />
    <glyph glyph-name="ellipsis" unicode="&#x2026;" horiz-adv-x="1482" 
d="M1137 0v152h151v-152h-151zM666 0v152h151v-152h-151zM195 0v152h151v-152h-151z" />
    <glyph glyph-name="uni202F" unicode="&#x202f;" horiz-adv-x="463" 
 />
    <glyph glyph-name="perthousand" unicode="&#x2030;" horiz-adv-x="2392" 
d="M1802 262q0 -199 180 -199t179 199v211q1 201 -179 201t-180 -201v-211zM1712 258v219q0 123 75 199t195 76t194.5 -76t74.5 -199v-219q0 -123 -74.5 -197.5t-194.5 -74.5t-195 75t-75 197zM1106 262q0 -199 179 -199t179 199v211q0 201 -179 201t-179 -201v-211z
M1016 258v219q0 123 75 199t195 76t194 -76t74 -199v-219q0 -123 -74 -197.5t-194 -74.5t-195 75t-75 197zM463 0l680 1458h92l-680 -1458h-92zM231 983q-1 -199 179 -199t180 199v211q0 201 -180 201t-179 -201v-211zM141 979v219q0 123 75.5 199t195.5 76t194 -76t74 -199
v-219q0 -123 -74 -197.5t-194 -74.5t-195.5 75t-75.5 197z" />
    <glyph glyph-name="guilsinglleft" unicode="&#x2039;" horiz-adv-x="655" 
d="M86 543l401 401v-135l-266 -266l266 -267v-135z" />
    <glyph glyph-name="guilsinglright" unicode="&#x203a;" horiz-adv-x="655" 
d="M168 141v135l266 267l-266 266v135l401 -401z" />
    <glyph glyph-name="fraction" unicode="&#x2044;" horiz-adv-x="362" 
d="M-205 0l680 1458h92l-680 -1458h-92z" />
    <glyph glyph-name="uni205F" unicode="&#x205f;" horiz-adv-x="579" 
 />
    <glyph glyph-name="uni2070" unicode="&#x2070;" horiz-adv-x="641" 
d="M172 821q0 -74 40 -119t110 -45t109.5 45.5t39.5 118.5v400q0 73 -39.5 119t-109.5 46t-110 -45.5t-40 -119.5v-400zM82 817v408q0 107 68 174t172 67t171.5 -66.5t67.5 -174.5v-408q0 -108 -67.5 -175t-171.5 -67t-172 67t-68 175z" />
    <glyph glyph-name="uni2074" unicode="&#x2074;" horiz-adv-x="641" 
d="M49 721v82l316 655h96l-314 -655h250v246h90v-246h107v-82h-107v-137h-90v137h-348z" />
    <glyph glyph-name="uni2075" unicode="&#x2075;" horiz-adv-x="641" 
d="M324 657q155 0 155 198q0 105 -29.5 166.5t-117.5 61.5q-56 0 -94 -23t-50 -63h-82v461h443v-82h-361v-272q51 57 156 57q225 0 225 -289q0 -78 -13.5 -133.5t-55.5 -97.5q-66 -66 -178 -66t-171 58q-58 58 -65 158h90q16 -134 148 -134z" />
    <glyph glyph-name="uni2076" unicode="&#x2076;" horiz-adv-x="641" 
d="M170 832q0 -80 41.5 -127.5t110.5 -47.5t111 47.5t42 125.5t-40.5 128t-110.5 50t-112 -48t-42 -128zM80 814q0 100 53 210l215 434h94l-194 -391q36 16 90 16q101 0 164 -69.5t63 -181.5t-65.5 -184.5t-176.5 -72.5t-177 69.5t-66 169.5z" />
    <glyph glyph-name="uni2077" unicode="&#x2077;" horiz-adv-x="641" 
d="M92 1231v227h488v-80l-304 -794h-90l303 792h-309v-145h-88z" />
    <glyph glyph-name="uni2078" unicode="&#x2078;" horiz-adv-x="641" 
d="M170 1231q0 -68 42.5 -112t109.5 -44t109 44t42 112t-41.5 110.5t-109.5 42.5t-110 -42.5t-42 -110.5zM154 825q0 -72 48 -120t120 -48t119.5 48t47.5 120t-47.5 121t-119.5 49t-120 -49t-48 -121zM63 825q0 140 132 213q-115 64 -115 193q0 101 69 168t173 67t172.5 -67
t68.5 -168q0 -131 -114 -193q131 -73 131 -213q0 -111 -74 -180.5t-184 -69.5t-184.5 69.5t-74.5 180.5z" />
    <glyph glyph-name="uni2079" unicode="&#x2079;" horiz-adv-x="641" 
d="M166 1212q0 -78 40.5 -128t111.5 -50t113 48t42 128t-42 127t-112 47t-111.5 -47t-41.5 -125zM76 1209q0 111 66 184t178 73t177.5 -70t65.5 -168t-55 -208l-215 -436h-94l196 391q-46 -17 -92 -17q-102 0 -164.5 70t-62.5 181z" />
    <glyph glyph-name="uni2080" unicode="&#x2080;" horiz-adv-x="641" 
d="M172 -70q0 -74 40 -118.5t110 -44.5t109.5 45t39.5 118v400q0 73 -39.5 119.5t-109.5 46.5t-110 -46t-40 -120v-400zM82 -74v408q0 107 68 174t172 67t171.5 -66.5t67.5 -174.5v-408q0 -108 -67.5 -174.5t-171.5 -66.5t-172 67t-68 174z" />
    <glyph glyph-name="uni2081" unicode="&#x2081;" horiz-adv-x="641" 
d="M401 567v-874h-90v774l-164 -145v104l164 141h90z" />
    <glyph glyph-name="uni2082" unicode="&#x2082;" horiz-adv-x="641" 
d="M481 342q0 69 -39.5 110.5t-107.5 41.5t-111 -37.5t-43 -118.5h-90q0 105 66 171t176 66t175.5 -64t65.5 -173q0 -52 -15.5 -90.5t-53.5 -87.5l-305 -385h374v-82h-483v82l344 436q47 62 47 131z" />
    <glyph glyph-name="uni2083" unicode="&#x2083;" horiz-adv-x="641" 
d="M333 -233q70 0 117.5 45.5t47.5 123.5t-43 121t-129 43h-17v80h17q75 0 115 41.5t40 114.5t-43.5 115.5t-109.5 42.5t-107 -38.5t-47 -105.5h-90q7 104 75.5 164.5t174.5 60.5t171.5 -64.5t65.5 -172.5q0 -141 -116 -193q133 -50 133 -211q0 -118 -72 -183.5t-183 -65.5
t-184 60t-77 173h92q4 -77 51.5 -114t117.5 -37z" />
    <glyph glyph-name="uni2084" unicode="&#x2084;" horiz-adv-x="641" 
d="M397 -88v246h90v-246h107v-82h-107v-137h-90v137h-348v82l316 655h96l-314 -655h250z" />
    <glyph glyph-name="uni2085" unicode="&#x2085;" horiz-adv-x="641" 
d="M344 270q225 0 225 -288q0 -79 -13.5 -134.5t-55.5 -97.5q-64 -65 -178 -65q-114 -1 -172 57t-64 158h90q15 -133 148 -133q70 0 104 34t42.5 76.5t8.5 95.5q0 97 -29.5 158.5t-117.5 61.5q-56 0 -94 -23.5t-50 -63.5h-82v461h443v-82h-361v-272q51 57 156 57z" />
    <glyph glyph-name="uni2086" unicode="&#x2086;" horiz-adv-x="641" 
d="M170 -58q0 -80 41.5 -127.5t110.5 -47.5t111 47.5t42 125.5t-40.5 127.5t-110.5 49.5t-112 -47.5t-42 -127.5zM80 -77q0 99 53 210l215 434h94l-194 -391q38 17 90 17q101 0 164 -69.5t63 -181.5t-64.5 -184.5t-176.5 -72.5t-178 69.5t-66 168.5z" />
    <glyph glyph-name="uni2087" unicode="&#x2087;" horiz-adv-x="641" 
d="M92 340v227h488v-80l-304 -794h-90l303 792h-309v-145h-88z" />
    <glyph glyph-name="uni2088" unicode="&#x2088;" horiz-adv-x="641" 
d="M170 340q0 -68 42.5 -112t109.5 -44t109 44t42 112t-41.5 111t-109.5 43t-110 -43t-42 -111zM154 -66q0 -72 48 -119.5t120 -47.5t119.5 47.5t47.5 119.5t-47.5 121t-119.5 49t-120 -49t-48 -121zM63 -66q0 140 132 213q-115 64 -115 193q0 101 69 168t173 67t172.5 -67
t68.5 -168q0 -131 -114 -193q131 -73 131 -213q0 -111 -73.5 -180t-184.5 -69t-185 69t-74 180z" />
    <glyph glyph-name="uni2089" unicode="&#x2089;" horiz-adv-x="641" 
d="M166 321q0 -78 40.5 -128t111.5 -50t113 47.5t42 127.5t-42 128t-112 48t-111.5 -47.5t-41.5 -125.5zM76 318q0 111 66 184t178 73t177.5 -69t65.5 -168t-55 -209l-215 -436h-94l196 391q-43 -16 -92 -16q-102 0 -164.5 69.5t-62.5 180.5z" />
    <glyph glyph-name="Euro" unicode="&#x20ac;" horiz-adv-x="1384" 
d="M102 549v78h131v217h-131v78h134q5 158 34.5 244t108.5 165q139 139 344 139t337 -114t169 -312h-113q-32 153 -134 240.5t-258 87.5t-267 -112q-58 -58 -81.5 -132t-29.5 -206h500v-78h-502v-217h502v-78h-500q5 -139 28 -215.5t83 -134.5q113 -113 269 -113t259 88
t135 240h109q-37 -197 -170 -311.5t-337 -114.5t-343 139q-81 81 -109.5 168t-33.5 254h-134z" />
    <glyph glyph-name="uni20B4" unicode="&#x20b4;" horiz-adv-x="1333" 
d="M102 549v78h177q67 77 136 103.5t169 41.5l170 27q88 13 147 45h-799v78h895q39 56 39 153q0 140 -89.5 220.5t-229.5 80.5t-221 -34t-152 -101l-72 72q96 84 192 120.5t228 36.5q210 0 331.5 -107.5t121.5 -291.5q0 -76 -27 -149h113v-78h-158q-18 -25 -43 -43
q-93 -81 -260 -105l-170 -26q-117 -18 -164 -43h795v-78h-881q-41 -61 -41 -162q0 -142 100.5 -221.5t254.5 -79.5t245.5 37.5t188.5 134.5l78 -78q-101 -101 -214 -146.5t-272 -45.5q-228 0 -359.5 109t-131.5 294q0 87 30 158h-127z" />
    <glyph glyph-name="afii61352" unicode="&#x2116;" horiz-adv-x="1925" 
d="M1360 1110q0 -168 50 -218t124 -50t124 50t50 218t-50 218t-124 50t-124 -50t-50 -218zM1264 1110q0 200 78 278t192 78t192 -78t78 -278t-78 -278t-192 -78t-192 78t-78 278zM1264 584v90h536v-90h-536zM174 0v1458h105l739 -1257v1257h104v-1458h-104l-739 1262v-1262
h-105z" />
    <glyph glyph-name="trademark" unicode="&#x2122;" horiz-adv-x="1656" 
d="M817 584v874h90l273 -553l272 553h90v-874h-90v671l-225 -446h-94l-226 446v-671h-90zM66 1374v84h589v-84h-249v-790h-91v790h-249z" />
    <glyph glyph-name="Omega" unicode="&#x2126;" horiz-adv-x="1335" 
d="M168 0v96h186q-84 68 -125 142t-51 179t-10 268t4.5 285.5t35.5 204.5t105 156q139 139 355 139t354 -139q115 -115 130 -254t15 -347t-10 -313t-51 -179t-125 -142h186v-96h-381v96q76 37 127 77.5t87 100.5t46.5 163t10.5 321t-19.5 323t-93.5 179q-112 112 -276 112
t-277 -112q-74 -74 -93 -178t-19 -324t10.5 -322t46.5 -162t86.5 -100.5t126.5 -77.5v-96h-381z" />
    <glyph glyph-name="uni2150" unicode="&#x2150;" horiz-adv-x="1644" 
d="M1096 647v227h487v-79l-303 -795h-90l303 793h-309v-146h-88zM436 0l680 1458h92l-680 -1458h-92zM401 1458v-874h-90v774l-164 -146v105l164 141h90z" />
    <glyph glyph-name="uni2151" unicode="&#x2151;" horiz-adv-x="1644" 
d="M1169 630q0 -78 41 -128.5t112 -50.5t113 47.5t42 127.5t-42 127.5t-112 47.5t-112 -46.5t-42 -124.5zM1079 626q0 111 66.5 184t178.5 73t177.5 -69.5t65.5 -167.5t-56 -210l-215 -436h-94l197 391q-43 -16 -92 -16q-102 0 -165 70t-63 181zM436 0l680 1458h92
l-680 -1458h-92zM401 1458v-874h-90v774l-164 -146v105l164 141h90z" />
    <glyph glyph-name="uni2152" unicode="&#x2152;" horiz-adv-x="2285" 
d="M1817 238q0 -74 39.5 -119t109.5 -45t110 45.5t40 118.5v399q0 73 -40 119.5t-110 46.5t-109.5 -46t-39.5 -120v-399zM1726 233v408q0 108 68 175t172 67t172 -67t68 -175v-408q0 -107 -68 -174t-172 -67t-172 67t-68 174zM1405 874v-874h-90v774l-164 -145v104l164 141
h90zM436 0l680 1458h92l-680 -1458h-92zM401 1458v-874h-90v774l-164 -146v105l164 141h90z" />
    <glyph glyph-name="onethird" unicode="&#x2153;" horiz-adv-x="1644" 
d="M1326 74q70 0 117.5 46t47.5 124t-43 121t-129 43h-16v79h16q75 0 115.5 41.5t40.5 114.5t-44.5 115.5t-110.5 42.5t-106.5 -38.5t-46.5 -105.5h-90q7 104 75 165t174 61t172.5 -65t66.5 -173q0 -139 -117 -192q133 -50 133 -211q0 -118 -72.5 -184t-182.5 -66t-183.5 60
t-77.5 173h92q4 -77 51.5 -114t117.5 -37zM436 0l680 1458h92l-680 -1458h-92zM401 1458v-874h-90v774l-164 -146v105l164 141h90z" />
    <glyph glyph-name="twothirds" unicode="&#x2154;" horiz-adv-x="1644" 
d="M1326 74q70 0 117.5 46t47.5 124t-43 121t-129 43h-16v79h16q75 0 115.5 41.5t40.5 114.5t-44.5 115.5t-110.5 42.5t-106.5 -38.5t-46.5 -105.5h-90q7 104 75 165t174 61t172.5 -65t66.5 -173q0 -139 -117 -192q133 -50 133 -211q0 -118 -72.5 -184t-182.5 -66t-183.5 60
t-77.5 173h92q4 -77 51.5 -114t117.5 -37zM436 0l680 1458h92l-680 -1458h-92zM90 584v82l344 436q47 62 47 131t-39 110t-108 41t-111.5 -37t-42.5 -118h-90q0 105 66 171t176 66t175.5 -64t65.5 -173q0 -52 -15.5 -90.5t-53.5 -87.5l-305 -385h374v-82h-483z" />
    <glyph glyph-name="uni2155" unicode="&#x2155;" horiz-adv-x="1644" 
d="M1344 578q228 0 229 -289q0 -78 -14 -134t-56 -98q-65 -65 -178 -65t-171 58t-64 157h90q15 -133 147 -133q110 0 133 68.5t23 146.5q0 211 -148 211q-56 0 -93.5 -23t-49.5 -63h-82v460h442v-81h-360v-273q52 58 152 58zM436 0l680 1458h92l-680 -1458h-92zM401 1458
v-874h-90v774l-164 -146v105l164 141h90z" />
    <glyph glyph-name="uni2156" unicode="&#x2156;" horiz-adv-x="1644" 
d="M1344 578q228 0 229 -289q0 -78 -14 -134t-56 -98q-65 -65 -178 -65t-171 58t-64 157h90q15 -133 147 -133q110 0 133 68.5t23 146.5q0 211 -148 211q-56 0 -93.5 -23t-49.5 -63h-82v460h442v-81h-360v-273q52 58 152 58zM436 0l680 1458h92l-680 -1458h-92zM90 584v82
l344 436q47 62 47 131t-39 110t-108 41t-111.5 -37t-42.5 -118h-90q0 105 66 171t176 66t175.5 -64t65.5 -173q0 -52 -15.5 -90.5t-53.5 -87.5l-305 -385h374v-82h-483z" />
    <glyph glyph-name="uni2157" unicode="&#x2157;" horiz-adv-x="1644" 
d="M1344 578q228 0 229 -289q0 -78 -14 -134t-56 -98q-65 -65 -178 -65t-171 58t-64 157h90q15 -133 147 -133q110 0 133 68.5t23 146.5q0 211 -148 211q-56 0 -93.5 -23t-49.5 -63h-82v460h442v-81h-360v-273q52 58 152 58zM436 0l680 1458h92l-680 -1458h-92zM323 657
q70 0 117 45.5t47 123.5t-43 121.5t-129 43.5h-16v80h16q75 0 115.5 41.5t40.5 114.5t-44.5 115t-110.5 42t-106 -38t-46 -105h-90q7 104 74.5 164.5t173.5 60.5t172.5 -64.5t66.5 -172.5q0 -141 -117 -193q134 -50 134 -211q0 -118 -73 -184t-183 -66t-183.5 60.5
t-77.5 173.5h93q4 -77 51.5 -114.5t117.5 -37.5z" />
    <glyph glyph-name="uni2158" unicode="&#x2158;" horiz-adv-x="1644" 
d="M1344 578q228 0 229 -289q0 -78 -14 -134t-56 -98q-65 -65 -178 -65t-171 58t-64 157h90q15 -133 147 -133q110 0 133 68.5t23 146.5q0 211 -148 211q-56 0 -93.5 -23t-49.5 -63h-82v460h442v-81h-360v-273q52 58 152 58zM436 0l680 1458h92l-680 -1458h-92zM49 721v82
l316 655h96l-314 -655h250v246h90v-246h107v-82h-107v-137h-90v137h-348z" />
    <glyph glyph-name="uni2159" unicode="&#x2159;" horiz-adv-x="1644" 
d="M1174 248q0 -80 41 -127t110 -47t111.5 47.5t42.5 124.5t-41.5 127.5t-111.5 50.5t-111 -48t-41 -128zM1083 228q0 98 54 212l215 434h94l-195 -391q38 17 90 17q101 0 164.5 -70t63.5 -182t-65.5 -184t-177.5 -72t-177.5 69t-65.5 167zM436 0l680 1458h92l-680 -1458
h-92zM401 1458v-874h-90v774l-164 -146v105l164 141h90z" />
    <glyph glyph-name="uni215A" unicode="&#x215a;" horiz-adv-x="1644" 
d="M1174 248q0 -80 41 -127t110 -47t111.5 47.5t42.5 124.5t-41.5 127.5t-111.5 50.5t-111 -48t-41 -128zM1083 228q0 98 54 212l215 434h94l-195 -391q38 17 90 17q101 0 164.5 -70t63.5 -182t-65.5 -184t-177.5 -72t-177.5 69t-65.5 167zM436 0l680 1458h92l-680 -1458
h-92zM324 657q155 0 155 198q0 105 -29.5 166.5t-117.5 61.5q-56 0 -94 -23t-50 -63h-82v461h443v-82h-361v-272q51 57 156 57q225 0 225 -289q0 -78 -13.5 -133.5t-55.5 -97.5q-66 -66 -178 -66t-171 58q-58 58 -65 158h90q16 -134 148 -134z" />
    <glyph glyph-name="oneeighth" unicode="&#x215b;" horiz-adv-x="1644" 
d="M1174 647q0 -68 42 -111.5t109 -43.5t109.5 43.5t42.5 111.5t-42 111t-110 43t-109.5 -43t-41.5 -111zM1157 242q0 -72 48 -120t120 -48t120 48t48 120t-48 121t-120 49t-120 -49t-48 -121zM1067 242q0 140 131 213q-115 64 -115 192q0 101 69 168.5t173 67.5t173 -67.5
t69 -168.5q0 -130 -115 -192q131 -73 131 -213q0 -111 -73.5 -180.5t-184.5 -69.5t-184.5 69.5t-73.5 180.5zM436 0l680 1458h92l-680 -1458h-92zM401 1458v-874h-90v774l-164 -146v105l164 141h90z" />
    <glyph glyph-name="threeeighths" unicode="&#x215c;" horiz-adv-x="1644" 
d="M1174 647q0 -68 42 -111.5t109 -43.5t109.5 43.5t42.5 111.5t-42 111t-110 43t-109.5 -43t-41.5 -111zM1157 242q0 -72 48 -120t120 -48t120 48t48 120t-48 121t-120 49t-120 -49t-48 -121zM1067 242q0 140 131 213q-115 64 -115 192q0 101 69 168.5t173 67.5t173 -67.5
t69 -168.5q0 -130 -115 -192q131 -73 131 -213q0 -111 -73.5 -180.5t-184.5 -69.5t-184.5 69.5t-73.5 180.5zM436 0l680 1458h92l-680 -1458h-92zM323 657q70 0 117 45.5t47 123.5t-43 121.5t-129 43.5h-16v80h16q75 0 115.5 41.5t40.5 114.5t-44.5 115t-110.5 42t-106 -38
t-46 -105h-90q7 104 74.5 164.5t173.5 60.5t172.5 -64.5t66.5 -172.5q0 -141 -117 -193q134 -50 134 -211q0 -118 -73 -184t-183 -66t-183.5 60.5t-77.5 173.5h93q4 -77 51.5 -114.5t117.5 -37.5z" />
    <glyph glyph-name="fiveeighths" unicode="&#x215d;" horiz-adv-x="1644" 
d="M1174 647q0 -68 42 -111.5t109 -43.5t109.5 43.5t42.5 111.5t-42 111t-110 43t-109.5 -43t-41.5 -111zM1157 242q0 -72 48 -120t120 -48t120 48t48 120t-48 121t-120 49t-120 -49t-48 -121zM1067 242q0 140 131 213q-115 64 -115 192q0 101 69 168.5t173 67.5t173 -67.5
t69 -168.5q0 -130 -115 -192q131 -73 131 -213q0 -111 -73.5 -180.5t-184.5 -69.5t-184.5 69.5t-73.5 180.5zM436 0l680 1458h92l-680 -1458h-92zM324 657q155 0 155 198q0 105 -29.5 166.5t-117.5 61.5q-56 0 -94 -23t-50 -63h-82v461h443v-82h-361v-272q51 57 156 57
q225 0 225 -289q0 -78 -13.5 -133.5t-55.5 -97.5q-66 -66 -178 -66t-171 58q-58 58 -65 158h90q16 -134 148 -134z" />
    <glyph glyph-name="seveneighths" unicode="&#x215e;" horiz-adv-x="1644" 
d="M1174 647q0 -68 42 -111.5t109 -43.5t109.5 43.5t42.5 111.5t-42 111t-110 43t-109.5 -43t-41.5 -111zM1157 242q0 -72 48 -120t120 -48t120 48t48 120t-48 121t-120 49t-120 -49t-48 -121zM1067 242q0 140 131 213q-115 64 -115 192q0 101 69 168.5t173 67.5t173 -67.5
t69 -168.5q0 -130 -115 -192q131 -73 131 -213q0 -111 -73.5 -180.5t-184.5 -69.5t-184.5 69.5t-73.5 180.5zM436 0l680 1458h92l-680 -1458h-92zM92 1231v227h488v-80l-304 -794h-90l303 792h-309v-145h-88z" />
    <glyph glyph-name="uni215F" unicode="&#x215f;" horiz-adv-x="1003" 
d="M436 0l680 1458h92l-680 -1458h-92zM401 1458v-874h-90v774l-164 -146v105l164 141h90z" />
    <glyph glyph-name="uni2189" unicode="&#x2189;" horiz-adv-x="1644" 
d="M1326 74q70 0 117.5 46t47.5 124t-43 121t-129 43h-16v79h16q75 0 115.5 41.5t40.5 114.5t-44.5 115.5t-110.5 42.5t-106.5 -38.5t-46.5 -105.5h-90q7 104 75 165t174 61t172.5 -65t66.5 -173q0 -139 -117 -192q133 -50 133 -211q0 -118 -72.5 -184t-182.5 -66t-183.5 60
t-77.5 173h92q4 -77 51.5 -114t117.5 -37zM436 0l680 1458h92l-680 -1458h-92zM172 821q0 -74 40 -119t110 -45t109.5 45.5t39.5 118.5v400q0 73 -39.5 119t-109.5 46t-110 -45.5t-40 -119.5v-400zM82 817v408q0 107 68 174t172 67t171.5 -66.5t67.5 -174.5v-408
q0 -108 -67.5 -175t-171.5 -67t-172 67t-68 175z" />
    <glyph glyph-name="arrowleft" unicode="&#x2190;" horiz-adv-x="2103" 
d="M1989 590v-103h-1678l776 -776h-141l-827 828l827 827h141l-776 -776h1678z" />
    <glyph glyph-name="arrowup" unicode="&#x2191;" horiz-adv-x="2103" 
d="M1104 -395h-103v1677l-776 -776v141l828 828l827 -828v-141l-776 776v-1677z" />
    <glyph glyph-name="arrowright" unicode="&#x2192;" horiz-adv-x="2103" 
d="M119 487v103h1677l-776 776h141l828 -827l-828 -828h-141l776 776h-1677z" />
    <glyph glyph-name="arrowdown" unicode="&#x2193;" horiz-adv-x="2103" 
d="M1001 1475h103v-1678l776 776v-141l-827 -827l-828 827v141l776 -776v1678z" />
    <glyph glyph-name="uni2196" unicode="&#x2196;" horiz-adv-x="2103" 
d="M391 1200h1170l100 -100h-1098l1186 -1186l-72 -72l-1188 1186v-1098l-98 99v1171z" />
    <glyph glyph-name="uni2197" unicode="&#x2197;" horiz-adv-x="2103" 
d="M1712 1200v-1171l-98 -99v1098l-1188 -1186l-72 72l1186 1186h-1098l101 100h1169z" />
    <glyph glyph-name="uni2198" unicode="&#x2198;" horiz-adv-x="2103" 
d="M1712 -158h-1169l-101 99h1098l-1186 1185l72 74l1188 -1186v1098l98 -100v-1170z" />
    <glyph glyph-name="uni2199" unicode="&#x2199;" horiz-adv-x="2103" 
d="M391 -158v1170l98 100v-1098l1188 1186l72 -74l-1186 -1185h1098l-100 -99h-1170z" />
    <glyph glyph-name="partialdiff" unicode="&#x2202;" horiz-adv-x="1105" 
d="M246 494q0 -112 16 -193.5t68 -136.5q80 -84 194 -84t195 84q52 55 68 136.5t16 193.5t-16 193t-68 136q-81 84 -195 84t-194 -84q-52 -55 -68 -136t-16 -193zM252 888q110 110 258 111q93 0 163 -29.5t130 -109.5v176q0 154 -75 248t-224 94q-87 0 -138.5 -24.5
t-117.5 -83.5l-68 67q83 73 151 103t173 30q190 0 296.5 -117t106.5 -311v-548q0 -274 -112 -390t-271 -116t-271 116t-112 395q1 279 111 389z" />
    <glyph glyph-name="Delta" unicode="&#x2206;" horiz-adv-x="1210" 
d="M164 98h883l-443 1213zM20 0l537 1458h96l537 -1458h-1170z" />
    <glyph glyph-name="product" unicode="&#x220f;" horiz-adv-x="1431" 
d="M225 -471v2027h981v-2027h-110v1929h-760v-1929h-111z" />
    <glyph glyph-name="summation" unicode="&#x2211;" horiz-adv-x="1128" 
d="M129 1556h885v-98h-760l399 -837v-99l-399 -895h760v-98h-885v98l424 944l-424 887v98z" />
    <glyph glyph-name="minus" unicode="&#x2212;" 
d="M109 492v96h835v-96h-835z" />
    <glyph glyph-name="uni2219" unicode="&#x2219;" 
d="M193 684q0 138 97.5 236t235.5 98t236 -98t98 -236t-98 -236t-236 -98t-235.5 98t-97.5 236z" />
    <glyph glyph-name="radical" unicode="&#x221a;" horiz-adv-x="1126" 
d="M1065 1458v-98h-180l-445 -1360h-94l-326 987h115l258 -792l408 1263h264z" />
    <glyph glyph-name="infinity" unicode="&#x221e;" horiz-adv-x="1622" 
d="M1174 324q86 0 144 57t58 151t-58.5 152.5t-145.5 58.5t-151 -54t-149 -157q91 -111 153.5 -159.5t148.5 -48.5zM246 532q0 -94 58 -151t144 -57t148.5 48.5t153.5 159.5q-95 116 -156.5 166t-145.5 50t-143 -61t-59 -155zM147 532q0 131 86.5 219.5t200.5 88.5
t197 -52.5t180 -173.5q99 123 179 174.5t198 51.5t202.5 -88t84.5 -220t-84.5 -217.5t-202.5 -85.5t-199 50.5t-178 171.5q-97 -121 -178 -172.5t-197 -51.5t-202.5 87t-86.5 218z" />
    <glyph glyph-name="integral" unicode="&#x222b;" horiz-adv-x="673" 
d="M541 1366q-152 0 -152 -164v-1415q0 -116 -61.5 -187t-175.5 -71h-91v92h72q152 0 152 164v1415q0 116 61.5 187t175.5 71h90v-92h-71z" />
    <glyph glyph-name="approxequal" unicode="&#x2248;" 
d="M321 813q39 0 53 -1.5t31 -6t27.5 -7.5t31.5 -11t28.5 -11t31.5 -13.5t30 -12.5t21.5 -9t20.5 -9t19 -8t37.5 -14t63.5 -8t73 17t92 76l63 -64q-80 -80 -126.5 -103.5t-86.5 -23.5t-59 3t-32 6t-41 13.5t-37 14.5l-64 27q-108 47 -155 47t-79.5 -16.5t-91.5 -75.5l-63 63
q80 80 126.5 103.5t85.5 23.5zM321 485q39 0 53 -1.5t31 -6t27.5 -7.5t36 -12.5t100.5 -42t102 -36.5q26 -4 56 -4t62.5 16.5t91.5 75.5l63 -64q-80 -80 -126.5 -103.5t-86.5 -23.5t-59 3t-32 6t-41 13.5t-37 14.5l-64 27q-108 47 -155 47t-79.5 -16.5t-91.5 -75.5l-63 63
q80 80 126.5 103.5t85.5 23.5z" />
    <glyph glyph-name="notequal" unicode="&#x2260;" 
d="M109 334v96h241l217 217h-458v96h555l213 213l67 -67l-145 -146h145v-96h-242l-217 -217h459v-96h-555l-213 -213l-67 67l145 146h-145z" />
    <glyph glyph-name="lessequal" unicode="&#x2264;" 
d="M215 573v99l623 329v-112l-521 -266l521 -267v-112zM215 317v113l623 -330v-112z" />
    <glyph glyph-name="greaterequal" unicode="&#x2265;" 
d="M215 244v112l520 267l-520 266v112l623 -329v-99zM215 -12v112l623 330v-113z" />
    <glyph glyph-name="dotmath" unicode="&#x22c5;" 
d="M451 465v151h151v-151h-151z" />
    <glyph glyph-name="lozenge" unicode="&#x25ca;" horiz-adv-x="1339" 
d="M264 729l406 -588l405 588l-405 584zM147 729l523 744l522 -744l-522 -743z" />
    <glyph glyph-name="uni25FC" unicode="&#x25fc;" horiz-adv-x="983" 
d="M0 0v983h983v-983h-983z" />
    <glyph glyph-name="fi" unicode="&#xfb01;" horiz-adv-x="1120" 
d="M817 0v987h105v-987h-105zM805 1329v129h129v-129h-129zM94 909v78h135v213q0 116 62 187t176 71h90v-92h-72q-151 0 -151 -164v-215h223v-78h-223v-909h-105v909h-135z" />
    <glyph glyph-name="fl" unicode="&#xfb02;" horiz-adv-x="1200" 
d="M807 256v1202h104v-1200q0 -88 33.5 -127t118.5 -39h72v-92h-91q-118 0 -177.5 67.5t-59.5 188.5zM94 909v78h135v213q0 116 62 187t176 71h90v-92h-72q-151 0 -151 -164v-215h223v-78h-223v-909h-105v909h-135z" />
    <glyph glyph-name="uniFEFF" unicode="&#xfeff;" horiz-adv-x="0" 
 />
    <glyph glyph-name="i.latn_TRK" horiz-adv-x="501" 
d="M199 0v987h104v-987h-104zM186 1329v129h129v-129h-129z" />
    <glyph glyph-name="Ldot.latn_CAT" horiz-adv-x="1171" 
d="M813 670v129h127v-129h-127zM225 0v1458h111v-1360h774v-98h-885z" />
    <glyph glyph-name="ldot.latn_CAT" horiz-adv-x="600" 
d="M483 475v129h127v-129h-127zM195 256v1202h104v-1200q0 -88 33.5 -127t118.5 -39h71v-92h-90q-118 0 -177.5 67.5t-59.5 188.5z" />
    <glyph glyph-name="zero.numr" horiz-adv-x="641" 
d="M172 821q0 -74 40 -119t110 -45t109.5 45.5t39.5 118.5v400q0 73 -39.5 119t-109.5 46t-110 -45.5t-40 -119.5v-400zM82 817v408q0 107 68 174t172 67t171.5 -66.5t67.5 -174.5v-408q0 -108 -67.5 -175t-171.5 -67t-172 67t-68 175z" />
    <glyph glyph-name="one.numr" horiz-adv-x="641" 
d="M401 1458v-874h-90v774l-164 -146v105l164 141h90z" />
    <glyph glyph-name="two.numr" horiz-adv-x="641" 
d="M90 584v82l344 436q47 62 47 131t-39 110t-108 41t-111.5 -37t-42.5 -118h-90q0 105 66 171t176 66t175.5 -64t65.5 -173q0 -52 -15.5 -90.5t-53.5 -87.5l-305 -385h374v-82h-483z" />
    <glyph glyph-name="three.numr" horiz-adv-x="641" 
d="M323 657q70 0 117 45.5t47 123.5t-43 121.5t-129 43.5h-16v80h16q75 0 115.5 41.5t40.5 114.5t-44.5 115t-110.5 42t-106 -38t-46 -105h-90q7 104 74.5 164.5t173.5 60.5t172.5 -64.5t66.5 -172.5q0 -141 -117 -193q134 -50 134 -211q0 -118 -73 -184t-183 -66
t-183.5 60.5t-77.5 173.5h93q4 -77 51.5 -114.5t117.5 -37.5z" />
    <glyph glyph-name="four.numr" horiz-adv-x="641" 
d="M49 721v82l316 655h96l-314 -655h250v246h90v-246h107v-82h-107v-137h-90v137h-348z" />
    <glyph glyph-name="five.numr" horiz-adv-x="641" 
d="M324 657q155 0 155 198q0 105 -29.5 166.5t-117.5 61.5q-56 0 -94 -23t-50 -63h-82v461h443v-82h-361v-272q51 57 156 57q225 0 225 -289q0 -78 -13.5 -133.5t-55.5 -97.5q-66 -66 -178 -66t-171 58q-58 58 -65 158h90q16 -134 148 -134z" />
    <glyph glyph-name="six.numr" horiz-adv-x="641" 
d="M170 832q0 -80 41.5 -127.5t110.5 -47.5t111 47.5t42 125.5t-40.5 128t-110.5 50t-112 -48t-42 -128zM80 814q0 100 53 210l215 434h94l-194 -391q36 16 90 16q101 0 164 -69.5t63 -181.5t-65.5 -184.5t-176.5 -72.5t-177 69.5t-66 169.5z" />
    <glyph glyph-name="seven.numr" horiz-adv-x="641" 
d="M92 1231v227h488v-80l-304 -794h-90l303 792h-309v-145h-88z" />
    <glyph glyph-name="eight.numr" horiz-adv-x="641" 
d="M170 1231q0 -68 42.5 -112t109.5 -44t109 44t42 112t-41.5 110.5t-109.5 42.5t-110 -42.5t-42 -110.5zM154 825q0 -72 48 -120t120 -48t119.5 48t47.5 120t-47.5 121t-119.5 49t-120 -49t-48 -121zM63 825q0 140 132 213q-115 64 -115 193q0 101 69 168t173 67t172.5 -67
t68.5 -168q0 -131 -114 -193q131 -73 131 -213q0 -111 -74 -180.5t-184 -69.5t-184.5 69.5t-74.5 180.5z" />
    <glyph glyph-name="nine.numr" horiz-adv-x="641" 
d="M166 1212q0 -78 40.5 -128t111.5 -50t113 48t42 128t-42 127t-112 47t-111.5 -47t-41.5 -125zM76 1209q0 111 66 184t178 73t177.5 -70t65.5 -168t-55 -208l-215 -436h-94l196 391q-46 -17 -92 -17q-102 0 -164.5 70t-62.5 181z" />
    <glyph glyph-name="zero.dnom" horiz-adv-x="641" 
d="M172 238q0 -74 40 -119t110 -45t109.5 45.5t39.5 118.5v399q0 73 -39.5 119.5t-109.5 46.5t-110 -46t-40 -120v-399zM82 233v408q0 108 68 175t172 67t171.5 -67t67.5 -175v-408q0 -108 -67.5 -174.5t-171.5 -66.5t-172 67t-68 174z" />
    <glyph glyph-name="one.dnom" horiz-adv-x="641" 
d="M401 874v-874h-90v774l-164 -145v104l164 141h90z" />
    <glyph glyph-name="two.dnom" horiz-adv-x="641" 
d="M90 0v82l344 436q47 62 47 131t-39.5 110.5t-107.5 41.5t-111 -37.5t-43 -118.5h-90q0 105 66.5 171.5t175.5 66.5t175 -64t66 -174q0 -52 -15.5 -90.5t-53.5 -87.5l-305 -385h374v-82h-483z" />
    <glyph glyph-name="three.dnom" horiz-adv-x="641" 
d="M323 74q70 0 117 46t47 124t-43 121t-129 43h-16v79h16q75 0 115.5 41.5t40.5 114.5t-44.5 115.5t-110.5 42.5t-106 -38.5t-46 -105.5h-90q7 104 74.5 165t173.5 61t172.5 -65t66.5 -173q0 -139 -117 -192q134 -50 134 -211q0 -118 -73 -184t-183 -66t-183.5 60
t-77.5 173h93q4 -77 51.5 -114t117.5 -37z" />
    <glyph glyph-name="four.dnom" horiz-adv-x="641" 
d="M49 137v82l316 655h96l-314 -655h250v246h90v-246h107v-82h-107v-137h-90v137h-348z" />
    <glyph glyph-name="five.dnom" horiz-adv-x="641" 
d="M324 74q155 0 155 198q0 105 -29.5 166.5t-117.5 61.5q-56 0 -94 -23t-50 -63h-82v460h443v-81h-361v-273q52 58 156 58q225 0 225 -289q0 -79 -13.5 -134.5t-55.5 -97.5q-64 -65 -178 -65t-172 58t-64 157h90q15 -133 148 -133z" />
    <glyph glyph-name="six.dnom" horiz-adv-x="641" 
d="M170 249q0 -80 41.5 -127.5t110.5 -47.5t111 47t42 125t-40.5 128t-110.5 50t-112 -47.5t-42 -127.5zM80 230q0 99 53 210l215 434h94l-194 -391q38 17 90 17q101 0 164 -70t63 -182t-64.5 -184t-176.5 -72t-178 69.5t-66 168.5z" />
    <glyph glyph-name="seven.dnom" horiz-adv-x="641" 
d="M92 647v227h488v-79l-304 -795h-90l303 793h-309v-146h-88z" />
    <glyph glyph-name="eight.dnom" horiz-adv-x="641" 
d="M170 647q0 -68 42.5 -111.5t109.5 -43.5t109 43.5t42 111.5t-41.5 111t-109.5 43t-110 -43t-42 -111zM154 242q0 -72 48 -120t120 -48t119.5 48t47.5 120t-47.5 121t-119.5 49t-120 -49t-48 -121zM63 242q0 140 132 213q-115 64 -115 192q0 101 69 168.5t173 67.5
t172.5 -67.5t68.5 -168.5q0 -130 -114 -192q131 -73 131 -213q0 -111 -74 -180.5t-184 -69.5t-184.5 69.5t-74.5 180.5z" />
    <glyph glyph-name="nine.dnom" horiz-adv-x="641" 
d="M166 629q0 -78 40.5 -128t111.5 -50t113 47.5t42 127.5t-42 127.5t-112 47.5t-111.5 -47t-41.5 -125zM76 626q0 111 66 184t178 73t177.5 -69.5t65.5 -168.5t-55 -209l-215 -436h-94l196 391q-43 -16 -92 -16q-102 0 -164.5 70t-62.5 181z" />
    <glyph glyph-name="space.frac" horiz-adv-x="104" 
 />
    <glyph glyph-name="zero.osf" 
d="M248 387q0 -134 73 -220.5t205 -86.5t205.5 86.5t73.5 220.5v449q0 134 -73.5 220.5t-205.5 86.5t-205 -86.5t-73 -220.5v-449zM143 377v469q0 171 107.5 280t275.5 109t275.5 -109t107.5 -280v-469q0 -171 -107.5 -280t-275.5 -109t-275.5 109t-107.5 280z" />
    <glyph glyph-name="one.osf" horiz-adv-x="716" 
d="M471 1223v-1223h-104v1104l-265 -234v125l265 228h104z" />
    <glyph glyph-name="two.osf" horiz-adv-x="1005" 
d="M82 0v92l528 529q138 138 138 292q0 114 -80 192.5t-198 78.5t-199 -77.5t-81 -195.5h-104q0 154 109 259.5t277 105.5t274 -105t106 -258q0 -186 -164 -350l-471 -471h676v-92h-811z" />
    <glyph glyph-name="three.osf" horiz-adv-x="1042" 
d="M502 -160q130 0 217.5 84.5t87.5 227.5q0 311 -318 311h-24v92h24q144 0 216.5 75.5t72.5 216.5t-79.5 218.5t-204.5 77.5t-200 -71t-89 -195h-105q15 167 124.5 262.5t276.5 95.5t274.5 -106.5t107.5 -280.5q0 -245 -207 -332q235 -80 235 -364q0 -189 -115.5 -296.5
t-295.5 -107.5t-294 93.5t-124 275.5h104q10 -140 98 -208.5t218 -68.5z" />
    <glyph glyph-name="four.osf" horiz-adv-x="1071" 
d="M72 61v93l557 1126h108l-557 -1126h510v462h105v-462h194v-93h-194v-313h-105v313h-618z" />
    <glyph glyph-name="five.osf" horiz-adv-x="1034" 
d="M530 723q365 0 365 -481q0 -130 -21.5 -223.5t-91.5 -163.5q-105 -105 -286 -105t-275 98q-86 86 -98 238h104q31 -244 275 -244q201 0 241.5 118.5t44 164t3.5 112.5t-9 154t-70.5 163.5t-177.5 76.5q-232 0 -280 -154h-92v746h700v-93h-608v-516q93 109 276 109z" />
    <glyph glyph-name="six.osf" horiz-adv-x="1062" 
d="M217 438q0 -164 84.5 -263t228.5 -99t230 99.5t86 262.5q0 213 -107.5 289t-208.5 76q-144 0 -228.5 -100.5t-84.5 -264.5zM113 416q0 184 94 348l414 727h108l-375 -643q86 43 187 43q190 0 299.5 -125t109.5 -320t-113 -326.5t-307 -131.5t-305.5 122t-111.5 306z" />
    <glyph glyph-name="seven.osf" horiz-adv-x="989" 
d="M92 901v322h826v-93l-615 -1386h-108l614 1386h-612v-229h-105z" />
    <glyph glyph-name="eight.osf" horiz-adv-x="1077" 
d="M258 1089q0 -127 78.5 -207.5t202.5 -80.5t202 80.5t78 207.5t-78 208t-202 81t-202.5 -81t-78.5 -208zM227 394q0 -134 90 -224t222 -90t221.5 90t89.5 224t-89.5 224.5t-221.5 90.5t-222 -90.5t-90 -224.5zM123 393q0 122 61.5 214.5t169.5 150.5q-200 109 -200 332
q0 163 108 271.5t277 108.5t277 -108.5t108 -271.5q0 -224 -199 -332q108 -57 168.5 -150t60.5 -215q0 -174 -119 -289.5t-297 -115.5t-296.5 115.5t-118.5 289.5z" />
    <glyph glyph-name="nine.osf" horiz-adv-x="1062" 
d="M217 784q0 -213 107 -288.5t208 -75.5q144 0 229 100t85 264t-85 263.5t-229 99.5t-229.5 -99.5t-85.5 -263.5zM113 777q0 195 112.5 326.5t306.5 131.5t306 -122.5t112 -306.5t-94 -347l-414 -727h-108l375 643q-86 -43 -187 -43q-190 0 -299.5 125t-109.5 320z" />
    <glyph glyph-name="zero.lf" 
d="M248 387q0 -134 73 -220.5t205 -86.5t205.5 86.5t73.5 220.5v684q0 134 -73.5 220.5t-205.5 86.5t-205 -86.5t-73 -220.5v-684zM143 377v704q0 170 107.5 279.5t275.5 109.5t275.5 -109t107.5 -280v-704q0 -171 -107.5 -280t-275.5 -109t-275.5 109.5t-107.5 279.5z" />
    <glyph glyph-name="one.lf" horiz-adv-x="716" 
d="M471 1458v-1458h-104v1339l-265 -233v125l265 227h104z" />
    <glyph glyph-name="two.lf" horiz-adv-x="966" 
d="M82 0v92l586 768q82 106 82 232t-74 206t-202 80t-207 -72.5t-79 -218.5h-104q0 167 104.5 275t279.5 108t280.5 -105.5t105.5 -277.5q0 -82 -22.5 -145t-77.5 -135l-547 -715h647v-92h-772z" />
    <glyph glyph-name="three.lf" horiz-adv-x="1034" 
d="M502 78q130 0 217.5 84t87.5 227q0 311 -318 311h-24v93h24q289 0 289 292q0 138 -79.5 216.5t-204.5 78.5t-200 -70.5t-89 -195.5h-105q17 169 125 264t276 95t275 -106t107 -282q0 -242 -207 -331q235 -79 235 -365q0 -190 -115.5 -296.5t-295.5 -106.5t-293 93
t-125 275h104q11 -140 98.5 -208t217.5 -68z" />
    <glyph glyph-name="four.lf" horiz-adv-x="1030" 
d="M72 240v92l536 1126h111l-537 -1126h467v463h105v-463h194v-92h-194v-240h-105v240h-577z" />
    <glyph glyph-name="five.lf" horiz-adv-x="1034" 
d="M791 472q0 394 -257 394q-232 0 -280 -153h-92v745h700v-92h-608v-516q94 108 264 108t250 -80t103.5 -178t23.5 -226t-21.5 -221t-91.5 -163q-104 -104 -286 -104t-275 98q-86 86 -98 238h104q18 -121 83.5 -182.5t191.5 -61.5q200 0 241 118t44.5 164t3.5 112z" />
    <glyph glyph-name="six.lf" horiz-adv-x="976" 
d="M207 403q0 -148 75.5 -235.5t204.5 -87.5t206 87.5t77 230.5t-74 236t-206 93t-207.5 -88t-75.5 -236zM102 397q0 134 82 305l375 756h105l-336 -674q75 35 170 35q174 0 275 -115.5t101 -291.5q0 -251 -133 -337.5t-252 -86.5q-181 0 -284 113t-103 296z" />
    <glyph glyph-name="seven.lf" horiz-adv-x="917" 
d="M82 1137v321h764v-92l-516 -1366h-107l516 1366h-553v-229h-104z" />
    <glyph glyph-name="eight.lf" horiz-adv-x="1077" 
d="M258 1090q0 -128 78.5 -208.5t202.5 -80.5t202 80.5t78 208.5t-78 208t-202 80t-202.5 -80t-78.5 -208zM227 393q0 -134 89.5 -223.5t222.5 -89.5t222 89t89 223t-89.5 225.5t-221.5 91.5t-222 -91t-90 -225zM123 393q0 242 231 365q-200 110 -200 332q0 162 108.5 271
t276.5 109t276.5 -109t108.5 -271q0 -224 -199 -332q229 -122 229 -365q0 -174 -119 -289.5t-297 -115.5t-296.5 115.5t-118.5 289.5z" />
    <glyph glyph-name="nine.lf" horiz-adv-x="976" 
d="M207 1060q0 -143 73.5 -236t204.5 -93t208 88t77 236t-77 235.5t-206 87.5t-204.5 -87.5t-75.5 -230.5zM102 1048q0 116 44 211.5t133 153t208 57.5q181 0 284 -113t103 -296q0 -136 -81 -305l-375 -756h-105l336 674q-75 -35 -182 -35t-193 55t-129 146.5t-43 207.5z
" />
    <glyph glyph-name="zero.tosf" 
d="M248 387q0 -134 73 -220.5t205 -86.5t205.5 86.5t73.5 220.5v449q0 134 -73.5 220.5t-205.5 86.5t-205 -86.5t-73 -220.5v-449zM143 377v469q0 171 107.5 280t275.5 109t275.5 -109t107.5 -280v-469q0 -171 -107.5 -280t-275.5 -109t-275.5 109t-107.5 280z" />
    <glyph glyph-name="one.tosf" 
d="M641 1223v-1223h-104v1104l-265 -234v125l265 228h104z" />
    <glyph glyph-name="two.tosf" 
d="M131 0v92l528 529q138 138 138 292q0 114 -79.5 192.5t-197.5 78.5t-199 -77.5t-81 -195.5h-105q0 154 108.5 259.5t276.5 105.5t274.5 -105t106.5 -258q0 -186 -164 -350l-471 -471h676v-92h-811z" />
    <glyph glyph-name="three.tosf" 
d="M506 -160q130 0 217.5 84.5t87.5 227.5q0 311 -317 311h-25v92h25q144 0 216 75.5t72 216.5t-79.5 218.5t-204.5 77.5t-200 -71t-89 -195h-105q15 167 124.5 262.5t276.5 95.5t274.5 -106.5t107.5 -280.5q0 -245 -207 -332q235 -80 235 -364q0 -189 -115.5 -296.5
t-295.5 -107.5t-294 93.5t-124 275.5h104q10 -140 98 -208.5t218 -68.5z" />
    <glyph glyph-name="four.tosf" 
d="M68 61v93l557 1126h108l-557 -1126h510v462h105v-462h194v-93h-194v-313h-105v313h-618z" />
    <glyph glyph-name="five.tosf" 
d="M809 246q0 385 -256 385q-232 0 -281 -154h-92v746h701v-93h-609v-516q93 109 264 109t259 -88q69 -69 93.5 -168.5t24.5 -227.5t-21 -221t-91 -163q-105 -105 -286 -105t-271 92t-103 244h105q31 -244 274 -244q180 0 230 101.5t54.5 173t4.5 129.5z" />
    <glyph glyph-name="six.tosf" 
d="M217 438q0 -164 84.5 -263t228.5 -99t230 99.5t86 262.5q0 213 -107.5 289t-208.5 76q-144 0 -228.5 -100.5t-84.5 -264.5zM113 416q0 184 94 348l414 727h108l-375 -643q86 43 187 43q190 0 299.5 -125t109.5 -320t-113 -326.5t-307 -131.5t-305.5 122t-111.5 306z" />
    <glyph glyph-name="seven.tosf" 
d="M135 901v322h826v-93l-615 -1386h-108l614 1386h-612v-229h-105z" />
    <glyph glyph-name="eight.tosf" 
d="M246 1089q0 -127 78 -207.5t202 -80.5t202.5 80.5t78.5 207.5t-78.5 208t-202.5 81t-202 -81t-78 -208zM215 394q0 -134 89.5 -224t221.5 -90t222 90t90 224t-90 224.5t-222 90.5t-221.5 -90.5t-89.5 -224.5zM111 393q0 122 61.5 214.5t169.5 150.5q-201 109 -201 332
q0 163 108 271.5t277 108.5t277 -108.5t108 -271.5q0 -225 -198 -332q108 -57 168.5 -150t60.5 -215q0 -174 -119 -289.5t-297 -115.5t-296.5 115.5t-118.5 289.5z" />
    <glyph glyph-name="nine.tosf" 
d="M207 784q0 -213 107 -288.5t208 -75.5q144 0 229 100t85 264t-85 263.5t-229 99.5t-229.5 -99.5t-85.5 -263.5zM102 777q0 195 113 326.5t307 131.5t306 -122.5t112 -306.5t-94 -347l-414 -727h-108l374 643q-86 -43 -186 -43q-190 0 -300 125t-110 320z" />
    <glyph glyph-name="uni2007.tosf" 
 />
    <glyph glyph-name="hyphen.case" horiz-adv-x="872" 
d="M168 680v96h537v-96h-537z" />
    <glyph glyph-name="exclamdown.case" horiz-adv-x="622" 
d="M225 0l6 1065h101l6 -1065h-113zM213 1321v137h137v-137h-137z" />
    <glyph glyph-name="guillemotleft.case" horiz-adv-x="1079" 
d="M510 729l401 401v-135l-266 -266l266 -266v-135zM86 729l401 401v-135l-266 -266l266 -266v-135z" />
    <glyph glyph-name="uni00AD.case" horiz-adv-x="872" 
d="M168 680v96h537v-96h-537z" />
    <glyph glyph-name="guillemotright.case" horiz-adv-x="1079" 
d="M592 328v135l266 266l-266 266v135l401 -401zM168 328v135l266 266l-266 266v135l401 -401z" />
    <glyph glyph-name="questiondown.case" horiz-adv-x="999" 
d="M387 1321v137h137v-137h-137zM102 348q0 67 22.5 122t68.5 122l174 256q36 52 36 123v96h105v-92q0 -99 -59 -184l-173 -254q-37 -57 -53 -95.5t-16 -93.5q0 -115 74.5 -191.5t189.5 -76.5t187.5 78.5t72.5 189.5h105q0 -151 -103 -255.5t-262 -104.5t-264 103t-105 257z
" />
    <glyph glyph-name="endash.case" 
d="M109 680v96h835v-96h-835z" />
    <glyph glyph-name="emdash.case" horiz-adv-x="1787" 
d="M168 680v96h1452v-96h-1452z" />
    <glyph glyph-name="afii00208.case" horiz-adv-x="1787" 
d="M168 682v96h1452v-96h-1452z" />
    <glyph glyph-name="guilsinglleft.case" horiz-adv-x="655" 
d="M86 729l401 401v-135l-266 -266l266 -266v-135z" />
    <glyph glyph-name="guilsinglright.case" horiz-adv-x="655" 
d="M168 328v135l266 266l-266 266v135l401 -401z" />
    <glyph glyph-name="caroncomma.ss01" horiz-adv-x="1077" 
d="M1112 1458h109v-262l-109 -115v377z" />
    <glyph glyph-name="commaaccent.ss01" horiz-adv-x="528" 
d="M180 -80q91 0 148 -54t57 -138t-57 -138.5t-148 -54.5v76q51 0 86 34t35 83t-35 82.5t-86 33.5v76z" />
    <glyph glyph-name="commaturn.ss01" horiz-adv-x="528" 
d="M131 1317q0 84 57 138t148 54v-75q-51 0 -86 -34t-35 -83t35 -83t86 -34v-76q-91 0 -148 54.5t-57 138.5z" />
    <glyph glyph-name="exclam.ss01" horiz-adv-x="622" 
d="M285 1458h114l-12 -1065h-90zM260 76q0 34 24 58t58 24t58 -24t24 -58t-24 -58t-58 -24t-58 24t-24 58z" />
    <glyph glyph-name="period.ss01" horiz-adv-x="540" 
d="M176 88q0 38 28 66t66 28t66.5 -28t28.5 -66t-28.5 -66t-66.5 -28t-66 28t-28 66z" />
    <glyph glyph-name="colon.ss01" horiz-adv-x="598" 
d="M233 702q0 38 28.5 66.5t66.5 28.5t66 -28.5t28 -66.5t-28 -66t-66 -28t-66.5 28t-28.5 66zM233 88q0 38 28.5 66t66.5 28t66 -28t28 -66t-28 -66t-66 -28t-66.5 28t-28.5 66z" />
    <glyph glyph-name="semicolon.ss01" horiz-adv-x="598" 
d="M258 139h139v-278l-139 -140v418zM233 702q0 38 28.5 66.5t66.5 28.5t66 -28.5t28 -66.5t-28 -66t-66 -28t-66.5 28t-28.5 66z" />
    <glyph glyph-name="question.ss01" horiz-adv-x="999" 
d="M461 76q0 34 24 58t58 24t58 -24t24 -58t-24 -58t-58 -24t-58 24t-24 58zM164 1110q0 150 103 255t261 105t263.5 -103t105.5 -257q0 -112 -90 -244l-174 -256q-37 -53 -37 -123v-96h-104v92q0 100 59 185l172 254q36 54 53 94.5t17 93.5q0 114 -75.5 191t-189.5 77
t-187 -78.5t-73 -189.5h-104z" />
    <glyph glyph-name="at.ss01" horiz-adv-x="1929" 
d="M686 332q0 -107 54 -157t117 -50q120 0 205 85t124 286q18 103 18 161q0 107 -55 156t-147 49t-175 -83t-122 -285q-19 -108 -19 -162zM168 482q0 184 69 348t186 281.5t279 187t360 69.5t368 -90t264 -254.5t94 -376.5q0 -119 -44.5 -229t-121.5 -191t-186.5 -129.5
t-233.5 -48.5h-98l26 125q-102 -137 -244 -137t-220 73t-78 222q0 82 16 164q46 250 162 352t254 102q96 0 154 -42.5t79 -106.5l29 139h92l-162 -809q134 0 244.5 74t171 192t60.5 275t-84 300.5t-231 221.5t-317 78t-312.5 -62t-246 -167.5t-164.5 -251t-61 -306.5
q0 -224 96 -404t276 -285t413 -105h84l-19 -90h-82q-187 0 -349.5 67.5t-277 184.5t-180 281t-65.5 348z" />
    <glyph glyph-name="C.ss01" horiz-adv-x="1220" 
d="M668 1470q123 0 219.5 -46t191.5 -136l-73 -74q-83 82 -157.5 120t-180.5 38q-165 0 -277 -112q-74 -74 -93 -178t-19 -353t19 -352.5t93 -177.5q113 -113 277 -113q106 0 180.5 38t157.5 120l73 -74q-95 -90 -191.5 -136t-219.5 -46q-216 0 -355 139q-115 115 -130 254
t-15 303t4.5 286.5t35.5 204.5t105 156q139 139 355 139z" />
    <glyph glyph-name="G.ss01" horiz-adv-x="1327" 
d="M668 1470q134 0 232 -49t202 -153l-74 -74q-94 94 -170 136t-190 42q-165 0 -277 -112q-74 -74 -93 -178t-19 -353t19 -352.5t93 -177.5q113 -113 277 -113q87 0 166.5 36.5t131.5 99.5t72.5 131t20.5 163v131h-391v98h501v-237q0 -225 -118 -352q-72 -80 -172.5 -124
t-210.5 -44q-216 0 -355 139q-115 115 -130 254t-15 303t4.5 286.5t35.5 204.5t105 156q139 139 355 139z" />
    <glyph glyph-name="i.ss01" horiz-adv-x="501" 
d="M199 0v987h104v-987h-104zM174 1394q0 32 22 54t54 22t55 -22t23 -54t-22 -54.5t-54 -22.5t-55 22.5t-23 54.5z" />
    <glyph glyph-name="j.ss01" horiz-adv-x="501" 
d="M174 1394q0 32 22 54t54 22t55 -22t23 -54t-22 -54.5t-54 -22.5t-55 22.5t-23 54.5zM-25 -379h72q85 0 118.5 39.5t33.5 126.5v1200h104v-1202q0 -119 -60 -187.5t-177 -68.5h-91v92z" />
    <glyph glyph-name="exclamdown.ss01" horiz-adv-x="622" 
d="M223 -471l13 1065h90l12 -1065h-115zM199 911q0 34 24 58t58 24t57.5 -24t23.5 -58t-23.5 -58t-57.5 -24t-58 24t-24 58z" />
    <glyph glyph-name="dieresis.ss01" horiz-adv-x="1024" 
d="M647 1306q0 32 22.5 54t54.5 22t54.5 -22t22.5 -54t-22.5 -54.5t-54.5 -22.5t-54.5 22.5t-22.5 54.5zM223 1306q0 32 22.5 54t54.5 22t54.5 -22t22.5 -54t-22.5 -54.5t-54.5 -22.5t-54.5 22.5t-22.5 54.5z" />
    <glyph glyph-name="periodcentered.ss01" horiz-adv-x="540" 
d="M176 532q0 38 28 66.5t66 28.5t66.5 -28.5t28.5 -66.5t-28.5 -66t-66.5 -28t-66 28t-28 66z" />
    <glyph glyph-name="cedilla.ss01" horiz-adv-x="1024" 
d="M451 -80q91 0 147.5 -54t56.5 -138t-56.5 -138.5t-147.5 -54.5v76q51 0 85.5 33.5t34.5 83.5t-34.5 83t-85.5 33v76z" />
    <glyph glyph-name="questiondown.ss01" horiz-adv-x="999" 
d="M375 911q0 34 24 58t58 24t58 -24t24 -58t-24 -58t-58 -24t-58 24t-24 58zM102 -123q0 111 91 244l174 256q36 52 36 123v96h105v-92q0 -100 -59 -185l-173 -253q-36 -53 -52.5 -94t-16.5 -95q0 -114 75.5 -191t189.5 -77t186.5 78.5t72.5 189.5h105q0 -149 -104 -254.5
t-262 -105.5t-263 103t-105 257z" />
    <glyph glyph-name="Adieresis.ss01" horiz-adv-x="1232" 
d="M752 1694q0 32 22 55t54 23t54.5 -22t22.5 -54t-22.5 -55t-54.5 -23t-54 22t-22 54zM328 1694q0 32 22 55t54 23t54.5 -22t22.5 -54t-21.5 -55t-53.5 -23t-55 22t-23 54zM311 453h611l-306 858zM31 0l536 1458h99l536 -1458h-119l-127 354h-680l-126 -354h-119z" />
    <glyph glyph-name="Ccedilla.ss01" horiz-adv-x="1220" 
d="M571 -80q91 0 148 -54t57 -138t-57 -138.5t-148 -54.5v76q51 0 86 34t35 83t-35 82.5t-86 33.5v76zM668 1470q123 0 219.5 -46t191.5 -136l-73 -74q-83 82 -157.5 120t-180.5 38q-165 0 -277 -112q-74 -74 -93 -178t-19 -353t19 -352.5t93 -177.5q113 -113 277 -113
q106 0 180.5 38t157.5 120l73 -74q-95 -90 -191.5 -136t-219.5 -46q-216 0 -355 139q-115 115 -130 254t-15 303t4.5 286.5t35.5 204.5t105 156q139 139 355 139z" />
    <glyph glyph-name="Edieresis.ss01" horiz-adv-x="1224" 
d="M778 1694q0 32 22 55t54 23t55 -22t23 -54t-22 -55t-54 -23t-55 22t-23 54zM354 1694q0 32 22 55t54 23t55 -22t23 -54t-22 -55t-54 -23t-55 22t-23 54zM225 0v1458h885v-98h-774v-576h659v-98h-659v-588h774v-98h-885z" />
    <glyph glyph-name="Idieresis.ss01" horiz-adv-x="561" 
d="M418 1694q0 32 22 55t54 23t54.5 -22t22.5 -54t-21.5 -55t-53.5 -23t-55 22t-23 54zM225 0v1458h111v-1458h-111zM-6 1694q0 32 22 55t54 23t54.5 -22t22.5 -54t-21.5 -55t-53.5 -23t-55 22t-23 54z" />
    <glyph glyph-name="Odieresis.ss01" horiz-adv-x="1335" 
d="M803 1694q0 32 22.5 55t54.5 23t54 -22t22 -54t-22 -55t-54 -23t-54.5 22t-22.5 54zM379 1694q0 32 22.5 55t54.5 23t54 -22t22 -54t-22 -55t-54 -23t-54.5 22t-22.5 54zM279 729q0 -249 19 -352.5t93 -177.5q113 -113 277 -113t276 113q74 74 93.5 178t19.5 352
t-19.5 352.5t-93.5 178.5q-112 112 -276 112t-277 -112q-74 -74 -93 -178t-19 -353zM668 1470q216 0 354 -139q115 -115 130 -254t15 -303t-4.5 -286.5t-35.5 -204.5t-105 -156q-138 -139 -354 -139t-355 139q-115 115 -130 254t-15 303t4.5 286.5t35.5 204.5t105 156
q139 139 355 139z" />
    <glyph glyph-name="Udieresis.ss01" horiz-adv-x="1409" 
d="M840 1694q0 32 22 55t54 23t54.5 -22t22.5 -54t-21.5 -55t-53.5 -23t-55 22t-23 54zM416 1694q0 32 22 55t54 23t54.5 -22t22.5 -54t-21.5 -55t-53.5 -23t-55 22t-23 54zM205 473v985h110v-971q0 -182 106.5 -291.5t283.5 -109.5t283 109.5t106 291.5v971h110v-985
q0 -214 -139.5 -349.5t-359.5 -135.5t-360 135.5t-140 349.5z" />
    <glyph glyph-name="adieresis.ss01" horiz-adv-x="1073" 
d="M645 1306q0 32 22.5 54t54.5 22t54.5 -22t22.5 -54t-22.5 -54.5t-54.5 -22.5t-54.5 22.5t-22.5 54.5zM221 1306q0 32 22.5 54t54.5 22t54.5 -22t22.5 -54t-22.5 -54.5t-54.5 -22.5t-54.5 22.5t-22.5 54.5zM219 272q-1 -192 231 -192q108 0 166 15t110 64t52 185v127h-307
q-252 0 -252 -199zM778 666q0 241 -256 241q-126 0 -186.5 -28.5t-108.5 -96.5l-75 66q61 85 141.5 118t206.5 33q383 0 383 -323v-676h-105v98q-62 -62 -129 -86t-175 -24t-174.5 20.5t-113.5 69.5q-71 71 -71 199t91 203t253 75h319v111z" />
    <glyph glyph-name="ccedilla.ss01" horiz-adv-x="1009" 
d="M451 -80q91 0 147.5 -54t56.5 -138t-56.5 -138.5t-147.5 -54.5v76q51 0 85.5 33.5t34.5 83.5t-34.5 83t-85.5 33v76zM141 494q0 235 116 370t318 135q104 0 177 -32.5t149 -118.5l-72 -66q-63 70 -119 97.5t-135 27.5q-174 0 -262 -131q-37 -54 -52 -118t-15 -206.5
t67 -240.5q88 -131 262 -131q78 0 134.5 28t119.5 97l72 -66q-76 -86 -149 -118.5t-177 -32.5q-202 0 -318 135.5t-116 370.5z" />
    </font>
</defs>
</svg>
